STARTFONT 2.1
FONT -mplus-gothic-medium-R-normal--12-120-75-75-C-120-jisx0208.1990-0
SIZE 13 75 75
FONTBOUNDINGBOX 12 13 0 -2
STARTPROPERTIES 24
ADD_STYLE_NAME ""
AVERAGE_WIDTH 120
CHARSET_ENCODING "0"
CHARSET_REGISTRY "jisx0208.1990"
COPYRIGHT "Copyright (C) 2002-2004 COZ"
DEFAULT_CHAR 8481
FACE_NAME "-mplus-gothic-medium-R-normal--12-120-75-75-C-120-jisx0208.1990-0"
FAMILY_NAME "gothic"
FONTNAME_REGISTRY ""
FONT_ASCENT 11
FONT_DESCENT 2
FOUNDRY "mplus"
PIXEL_SIZE 14
POINT_SIZE 130
QUAD_WIDTH 12
RESOLUTION_X 75
RESOLUTION_Y 75
SETWIDTH_NAME "normal"
SLANT "R"
SPACING "C"
WEIGHT 10
WEIGHT_NAME "medium"
X_HEIGHT 11
_XMBDFED_INFO "Edited with xmbdfed 4.5."
ENDPROPERTIES
CHARS 7187
STARTCHAR 0x2121
ENCODING 8481
SWIDTH 857 0
DWIDTH 12 0
BBX 12 13 0 -2
BITMAP
0000
0000
0000
0000
0000
0000
0000
0000
0000
0000
0000
0000
0000
ENDCHAR
STARTCHAR 0x2122
ENCODING 8482
SWIDTH 857 0
DWIDTH 12 0
BBX 12 13 0 -2
BITMAP
0000
0000
0000
0000
0000
0000
0000
0000
0000
0000
4000
2000
0000
ENDCHAR
STARTCHAR 0x2123
ENCODING 8483
SWIDTH 857 0
DWIDTH 12 0
BBX 12 13 0 -2
BITMAP
0000
0000
0000
0000
0000
0000
0000
0000
3000
4800
4800
3000
0000
ENDCHAR
STARTCHAR 0x2124
ENCODING 8484
SWIDTH 857 0
DWIDTH 12 0
BBX 12 13 0 -2
BITMAP
0000
0000
0000
0000
0000
0000
0000
0000
0000
3000
3000
6000
0000
ENDCHAR
STARTCHAR 0x2125
ENCODING 8485
SWIDTH 857 0
DWIDTH 12 0
BBX 12 13 0 -2
BITMAP
0000
0000
0000
0000
0000
0000
0000
0000
0000
3000
3000
0000
0000
ENDCHAR
STARTCHAR 0x2126
ENCODING 8486
SWIDTH 857 0
DWIDTH 12 0
BBX 12 13 0 -2
BITMAP
0000
0000
0000
0000
0000
0000
0C00
0C00
0000
0000
0000
0000
0000
ENDCHAR
STARTCHAR 0x2127
ENCODING 8487
SWIDTH 857 0
DWIDTH 12 0
BBX 12 13 0 -2
BITMAP
0000
0000
0000
0000
0C00
0C00
0000
0000
0C00
0C00
0000
0000
0000
ENDCHAR
STARTCHAR 0x2128
ENCODING 8488
SWIDTH 857 0
DWIDTH 12 0
BBX 12 13 0 -2
BITMAP
0000
0000
0000
0000
0C00
0C00
0000
0000
0C00
0C00
1800
0000
0000
ENDCHAR
STARTCHAR 0x2129
ENCODING 8489
SWIDTH 857 0
DWIDTH 12 0
BBX 12 13 0 -2
BITMAP
0000
0E00
1100
2080
0080
0100
0200
0400
0400
0000
0400
0000
0000
ENDCHAR
STARTCHAR 0x212A
ENCODING 8490
SWIDTH 857 0
DWIDTH 12 0
BBX 12 13 0 -2
BITMAP
0000
0400
0400
0400
0400
0400
0400
0400
0000
0000
0400
0000
0000
ENDCHAR
STARTCHAR 0x212B
ENCODING 8491
SWIDTH 857 0
DWIDTH 12 0
BBX 12 13 0 -2
BITMAP
1000
4800
2000
0000
0000
0000
0000
0000
0000
0000
0000
0000
0000
ENDCHAR
STARTCHAR 0x212C
ENCODING 8492
SWIDTH 857 0
DWIDTH 12 0
BBX 12 13 0 -2
BITMAP
3000
4800
4800
3000
0000
0000
0000
0000
0000
0000
0000
0000
0000
ENDCHAR
STARTCHAR 0x212D
ENCODING 8493
SWIDTH 857 0
DWIDTH 12 0
BBX 12 13 0 -2
BITMAP
0400
0800
0000
0000
0000
0000
0000
0000
0000
0000
0000
0000
0000
ENDCHAR
STARTCHAR 0x212E
ENCODING 8494
SWIDTH 857 0
DWIDTH 12 0
BBX 12 13 0 -2
BITMAP
0800
0400
0000
0000
0000
0000
0000
0000
0000
0000
0000
0000
0000
ENDCHAR
STARTCHAR 0x212F
ENCODING 8495
SWIDTH 857 0
DWIDTH 12 0
BBX 12 13 0 -2
BITMAP
1980
1980
0000
0000
0000
0000
0000
0000
0000
0000
0000
0000
0000
ENDCHAR
STARTCHAR 0x2130
ENCODING 8496
SWIDTH 857 0
DWIDTH 12 0
BBX 12 13 0 -2
BITMAP
0400
0A00
1100
0000
0000
0000
0000
0000
0000
0000
0000
0000
0000
ENDCHAR
STARTCHAR 0x2131
ENCODING 8497
SWIDTH 857 0
DWIDTH 12 0
BBX 12 13 0 -2
BITMAP
FFF0
0000
0000
0000
0000
0000
0000
0000
0000
0000
0000
0000
0000
ENDCHAR
STARTCHAR 0x2132
ENCODING 8498
SWIDTH 857 0
DWIDTH 12 0
BBX 12 13 0 -2
BITMAP
0000
0000
0000
0000
0000
0000
0000
0000
0000
0000
0000
FFF0
0000
ENDCHAR
STARTCHAR 0x2133
ENCODING 8499
SWIDTH 857 0
DWIDTH 12 0
BBX 12 13 0 -2
BITMAP
0000
0000
0000
1000
0800
0400
0400
0200
0200
0000
0000
0000
0000
ENDCHAR
STARTCHAR 0x2134
ENCODING 8500
SWIDTH 857 0
DWIDTH 12 0
BBX 12 13 0 -2
BITMAP
0000
0080
0240
2100
1000
0800
0800
0400
0400
0000
0000
0000
0000
ENDCHAR
STARTCHAR 0x2135
ENCODING 8501
SWIDTH 857 0
DWIDTH 12 0
BBX 12 13 0 -2
BITMAP
0000
0000
0000
0800
0400
0200
0200
0100
0F00
0000
0000
0000
0000
ENDCHAR
STARTCHAR 0x2136
ENCODING 8502
SWIDTH 857 0
DWIDTH 12 0
BBX 12 13 0 -2
BITMAP
0000
0080
0240
1100
0800
0400
0400
0200
1E00
0000
0000
0000
0000
ENDCHAR
STARTCHAR 0x2137
ENCODING 8503
SWIDTH 857 0
DWIDTH 12 0
BBX 12 13 0 -2
BITMAP
0000
0000
0000
0900
0900
0900
1200
1200
1200
0000
0000
0000
0000
ENDCHAR
STARTCHAR 0x2138
ENCODING 8504
SWIDTH 857 0
DWIDTH 12 0
BBX 12 13 0 -2
BITMAP
0000
0E00
1100
2080
4040
8020
3F80
0400
0400
0400
0400
7FC0
0000
ENDCHAR
STARTCHAR 0x2139
ENCODING 8505
SWIDTH 857 0
DWIDTH 12 0
BBX 12 13 0 -2
BITMAP
0000
0000
1000
1000
1F80
2080
2080
0100
0A00
0400
0200
0000
0000
ENDCHAR
STARTCHAR 0x213A
ENCODING 8506
SWIDTH 857 0
DWIDTH 12 0
BBX 12 13 0 -2
BITMAP
0000
0000
0040
0080
1D00
2200
4500
4880
5040
6000
4000
0000
0000
ENDCHAR
STARTCHAR 0x213B
ENCODING 8507
SWIDTH 857 0
DWIDTH 12 0
BBX 12 13 0 -2
BITMAP
0000
0000
0E00
3180
4040
8020
8020
8020
4040
3180
0E00
0000
0000
ENDCHAR
STARTCHAR 0x213C
ENCODING 8508
SWIDTH 857 0
DWIDTH 12 0
BBX 12 13 0 -2
BITMAP
0000
0000
0000
0000
0000
4000
3FC0
0000
0000
0000
0000
0000
0000
ENDCHAR
STARTCHAR 0x213D
ENCODING 8509
SWIDTH 857 0
DWIDTH 12 0
BBX 12 13 0 -2
BITMAP
0000
0000
0000
0000
0000
0000
FFF0
0000
0000
0000
0000
0000
0000
ENDCHAR
STARTCHAR 0x213E
ENCODING 8510
SWIDTH 857 0
DWIDTH 12 0
BBX 12 13 0 -2
BITMAP
0000
0000
0000
0000
0000
0000
0E00
0000
0000
0000
0000
0000
0000
ENDCHAR
STARTCHAR 0x213F
ENCODING 8511
SWIDTH 857 0
DWIDTH 12 0
BBX 12 13 0 -2
BITMAP
0000
0020
0040
0080
0100
0200
0400
0800
1000
2000
4000
8000
0000
ENDCHAR
STARTCHAR 0x2140
ENCODING 8512
SWIDTH 857 0
DWIDTH 12 0
BBX 12 13 0 -2
BITMAP
0000
8000
4000
2000
1000
0800
0400
0200
0100
0080
0040
0020
0000
ENDCHAR
STARTCHAR 0x2141
ENCODING 8513
SWIDTH 857 0
DWIDTH 12 0
BBX 12 13 0 -2
BITMAP
0000
0000
0000
0000
0000
3800
4440
0380
0000
0000
0000
0000
0000
ENDCHAR
STARTCHAR 0x2142
ENCODING 8514
SWIDTH 857 0
DWIDTH 12 0
BBX 12 13 0 -2
BITMAP
0A00
0A00
0A00
0A00
0A00
0A00
0A00
0A00
0A00
0A00
0A00
0A00
0A00
ENDCHAR
STARTCHAR 0x2143
ENCODING 8515
SWIDTH 857 0
DWIDTH 12 0
BBX 12 13 0 -2
BITMAP
0400
0400
0400
0400
0400
0400
0400
0400
0400
0400
0400
0400
0400
ENDCHAR
STARTCHAR 0x2144
ENCODING 8516
SWIDTH 857 0
DWIDTH 12 0
BBX 12 13 0 -2
BITMAP
0000
0000
0000
0000
0000
0000
6660
6660
0000
0000
0000
0000
0000
ENDCHAR
STARTCHAR 0x2145
ENCODING 8517
SWIDTH 857 0
DWIDTH 12 0
BBX 12 13 0 -2
BITMAP
0000
0000
0000
0000
0000
0000
3180
3180
0000
0000
0000
0000
0000
ENDCHAR
STARTCHAR 0x2146
ENCODING 8518
SWIDTH 857 0
DWIDTH 12 0
BBX 12 13 0 -2
BITMAP
00C0
0180
0180
0000
0000
0000
0000
0000
0000
0000
0000
0000
0000
ENDCHAR
STARTCHAR 0x2147
ENCODING 8519
SWIDTH 857 0
DWIDTH 12 0
BBX 12 13 0 -2
BITMAP
3000
3000
6000
0000
0000
0000
0000
0000
0000
0000
0000
0000
0000
ENDCHAR
STARTCHAR 0x2148
ENCODING 8520
SWIDTH 857 0
DWIDTH 12 0
BBX 12 13 0 -2
BITMAP
06C0
0D80
0D80
0000
0000
0000
0000
0000
0000
0000
0000
0000
0000
ENDCHAR
STARTCHAR 0x2149
ENCODING 8521
SWIDTH 857 0
DWIDTH 12 0
BBX 12 13 0 -2
BITMAP
3600
3600
6C00
0000
0000
0000
0000
0000
0000
0000
0000
0000
0000
ENDCHAR
STARTCHAR 0x214A
ENCODING 8522
SWIDTH 857 0
DWIDTH 12 0
BBX 12 13 0 -2
BITMAP
0040
0080
0100
0100
0200
0200
0200
0200
0200
0100
0100
0080
0040
ENDCHAR
STARTCHAR 0x214B
ENCODING 8523
SWIDTH 857 0
DWIDTH 12 0
BBX 12 13 0 -2
BITMAP
4000
2000
1000
1000
0800
0800
0800
0800
0800
1000
1000
2000
4000
ENDCHAR
STARTCHAR 0x214C
ENCODING 8524
SWIDTH 857 0
DWIDTH 12 0
BBX 12 13 0 -2
BITMAP
0040
0080
0100
0100
0100
0100
0100
0100
0100
0100
0100
0080
0040
ENDCHAR
STARTCHAR 0x214D
ENCODING 8525
SWIDTH 857 0
DWIDTH 12 0
BBX 12 13 0 -2
BITMAP
4000
2000
1000
1000
1000
1000
1000
1000
1000
1000
1000
2000
4000
ENDCHAR
STARTCHAR 0x214E
ENCODING 8526
SWIDTH 857 0
DWIDTH 12 0
BBX 12 13 0 -2
BITMAP
03C0
0200
0200
0200
0200
0200
0200
0200
0200
0200
0200
0200
03C0
ENDCHAR
STARTCHAR 0x214F
ENCODING 8527
SWIDTH 857 0
DWIDTH 12 0
BBX 12 13 0 -2
BITMAP
7800
0800
0800
0800
0800
0800
0800
0800
0800
0800
0800
0800
7800
ENDCHAR
STARTCHAR 0x2150
ENCODING 8528
SWIDTH 857 0
DWIDTH 12 0
BBX 12 13 0 -2
BITMAP
00C0
0100
0100
0100
0100
0100
0600
0100
0100
0100
0100
0100
00C0
ENDCHAR
STARTCHAR 0x2151
ENCODING 8529
SWIDTH 857 0
DWIDTH 12 0
BBX 12 13 0 -2
BITMAP
6000
1000
1000
1000
1000
1000
0C00
1000
1000
1000
1000
1000
6000
ENDCHAR
STARTCHAR 0x2152
ENCODING 8530
SWIDTH 857 0
DWIDTH 12 0
BBX 12 13 0 -2
BITMAP
0000
0040
0040
0080
0080
0100
0100
0100
0080
0080
0040
0040
0000
ENDCHAR
STARTCHAR 0x2153
ENCODING 8531
SWIDTH 857 0
DWIDTH 12 0
BBX 12 13 0 -2
BITMAP
0000
4000
4000
2000
2000
1000
1000
1000
2000
2000
4000
4000
0000
ENDCHAR
STARTCHAR 0x2154
ENCODING 8532
SWIDTH 857 0
DWIDTH 12 0
BBX 12 13 0 -2
BITMAP
0000
0120
0120
0240
0240
0480
0480
0480
0240
0240
0120
0120
0000
ENDCHAR
STARTCHAR 0x2155
ENCODING 8533
SWIDTH 857 0
DWIDTH 12 0
BBX 12 13 0 -2
BITMAP
0000
9000
9000
4800
4800
2400
2400
2400
4800
4800
9000
9000
0000
ENDCHAR
STARTCHAR 0x2156
ENCODING 8534
SWIDTH 857 0
DWIDTH 12 0
BBX 12 13 0 -2
BITMAP
03C0
0200
0200
0200
0200
0200
0200
0200
0000
0000
0000
0000
0000
ENDCHAR
STARTCHAR 0x2157
ENCODING 8535
SWIDTH 857 0
DWIDTH 12 0
BBX 12 13 0 -2
BITMAP
0000
0000
0000
0000
0000
0800
0800
0800
0800
0800
0800
0800
7800
ENDCHAR
STARTCHAR 0x2158
ENCODING 8536
SWIDTH 857 0
DWIDTH 12 0
BBX 12 13 0 -2
BITMAP
0FC0
0840
0BC0
0A00
0A00
0A00
0A00
0A00
0E00
0000
0000
0000
0000
ENDCHAR
STARTCHAR 0x2159
ENCODING 8537
SWIDTH 857 0
DWIDTH 12 0
BBX 12 13 0 -2
BITMAP
0000
0000
0000
0000
0E00
0A00
0A00
0A00
0A00
0A00
7A00
4200
7E00
ENDCHAR
STARTCHAR 0x215A
ENCODING 8538
SWIDTH 857 0
DWIDTH 12 0
BBX 12 13 0 -2
BITMAP
03C0
0380
0300
0300
0200
0200
0200
0200
0200
0300
0300
0380
03C0
ENDCHAR
STARTCHAR 0x215B
ENCODING 8539
SWIDTH 857 0
DWIDTH 12 0
BBX 12 13 0 -2
BITMAP
7800
3800
1800
1800
0800
0800
0800
0800
0800
1800
1800
3800
7800
ENDCHAR
STARTCHAR 0x215C
ENCODING 8540
SWIDTH 857 0
DWIDTH 12 0
BBX 12 13 0 -2
BITMAP
0000
0000
0400
0400
0400
0400
7FC0
0400
0400
0400
0400
0000
0000
ENDCHAR
STARTCHAR 0x215D
ENCODING 8541
SWIDTH 857 0
DWIDTH 12 0
BBX 12 13 0 -2
BITMAP
0000
0000
0000
0000
0000
0000
7FC0
0000
0000
0000
0000
0000
0000
ENDCHAR
STARTCHAR 0x215E
ENCODING 8542
SWIDTH 857 0
DWIDTH 12 0
BBX 12 13 0 -2
BITMAP
0000
0000
0400
0400
0400
3F80
0400
0400
0400
0000
3F80
0000
0000
ENDCHAR
STARTCHAR 0x215F
ENCODING 8543
SWIDTH 857 0
DWIDTH 12 0
BBX 12 13 0 -2
BITMAP
0000
0000
0000
2080
1100
0A00
0400
0A00
1100
2080
0000
0000
0000
ENDCHAR
STARTCHAR 0x2160
ENCODING 8544
SWIDTH 857 0
DWIDTH 12 0
BBX 12 13 0 -2
BITMAP
0000
0000
0400
0E00
0400
0000
7FC0
0000
0400
0E00
0400
0000
0000
ENDCHAR
STARTCHAR 0x2161
ENCODING 8545
SWIDTH 857 0
DWIDTH 12 0
BBX 12 13 0 -2
BITMAP
0000
0000
0000
0000
0000
7FC0
0000
0000
7FC0
0000
0000
0000
0000
ENDCHAR
STARTCHAR 0x2162
ENCODING 8546
SWIDTH 857 0
DWIDTH 12 0
BBX 12 13 0 -2
BITMAP
0000
0000
0000
0080
0100
7FC0
0400
0800
7FC0
2000
4000
0000
0000
ENDCHAR
STARTCHAR 0x2163
ENCODING 8547
SWIDTH 857 0
DWIDTH 12 0
BBX 12 13 0 -2
BITMAP
0000
0000
00C0
0300
0C00
3000
C000
3000
0C00
0300
00C0
0000
0000
ENDCHAR
STARTCHAR 0x2164
ENCODING 8548
SWIDTH 857 0
DWIDTH 12 0
BBX 12 13 0 -2
BITMAP
0000
0000
6000
1800
0600
0180
0060
0180
0600
1800
6000
0000
0000
ENDCHAR
STARTCHAR 0x2165
ENCODING 8549
SWIDTH 857 0
DWIDTH 12 0
BBX 12 13 0 -2
BITMAP
0000
0000
01C0
0E00
7000
0E00
01C0
0000
7FC0
0000
7FC0
0000
0000
ENDCHAR
STARTCHAR 0x2166
ENCODING 8550
SWIDTH 857 0
DWIDTH 12 0
BBX 12 13 0 -2
BITMAP
0000
0000
7000
0E00
01C0
0E00
7000
0000
7FC0
0000
7FC0
0000
0000
ENDCHAR
STARTCHAR 0x2167
ENCODING 8551
SWIDTH 857 0
DWIDTH 12 0
BBX 12 13 0 -2
BITMAP
0000
0000
0000
0000
3180
4A40
8420
8420
4A40
3180
0000
0000
0000
ENDCHAR
STARTCHAR 0x2168
ENCODING 8552
SWIDTH 857 0
DWIDTH 12 0
BBX 12 13 0 -2
BITMAP
0000
0000
0400
0E00
0400
0000
0000
2080
71C0
2080
0000
0000
0000
ENDCHAR
STARTCHAR 0x2169
ENCODING 8553
SWIDTH 857 0
DWIDTH 12 0
BBX 12 13 0 -2
BITMAP
0000
0000
07C0
00C0
0140
0240
3C40
4400
4400
4400
3800
0000
0000
ENDCHAR
STARTCHAR 0x216A
ENCODING 8554
SWIDTH 857 0
DWIDTH 12 0
BBX 12 13 0 -2
BITMAP
0000
0E00
1100
1100
1100
0E00
0400
0400
3F80
0400
0400
0000
0000
ENDCHAR
STARTCHAR 0x216B
ENCODING 8555
SWIDTH 857 0
DWIDTH 12 0
BBX 12 13 0 -2
BITMAP
0000
3000
4800
4800
3000
0000
0000
0000
0000
0000
0000
0000
0000
ENDCHAR
STARTCHAR 0x216C
ENCODING 8556
SWIDTH 857 0
DWIDTH 12 0
BBX 12 13 0 -2
BITMAP
0000
1000
2000
4000
0000
0000
0000
0000
0000
0000
0000
0000
0000
ENDCHAR
STARTCHAR 0x216D
ENCODING 8557
SWIDTH 857 0
DWIDTH 12 0
BBX 12 13 0 -2
BITMAP
0000
1200
2400
4800
0000
0000
0000
0000
0000
0000
0000
0000
0000
ENDCHAR
STARTCHAR 0x216E
ENCODING 8558
SWIDTH 857 0
DWIDTH 12 0
BBX 12 13 0 -2
BITMAP
3000
4800
4800
3380
0440
0800
0800
0800
0800
0440
0380
0000
0000
ENDCHAR
STARTCHAR 0x216F
ENCODING 8559
SWIDTH 857 0
DWIDTH 12 0
BBX 12 13 0 -2
BITMAP
0000
2080
2080
1100
1100
3F80
0400
0400
3F80
0400
0400
0000
0000
ENDCHAR
STARTCHAR 0x2170
ENCODING 8560
SWIDTH 857 0
DWIDTH 12 0
BBX 12 13 0 -2
BITMAP
0000
0400
1F00
2480
2400
1F00
0480
0480
2480
1F00
0400
0000
0000
ENDCHAR
STARTCHAR 0x2171
ENCODING 8561
SWIDTH 857 0
DWIDTH 12 0
BBX 12 13 0 -2
BITMAP
0000
0080
0080
0700
0980
1200
1200
1200
0C80
0700
0800
0800
0000
ENDCHAR
STARTCHAR 0x2172
ENCODING 8562
SWIDTH 857 0
DWIDTH 12 0
BBX 12 13 0 -2
BITMAP
0000
0700
0880
0800
0800
7F00
0800
3800
4800
4C40
3380
0000
0000
ENDCHAR
STARTCHAR 0x2173
ENCODING 8563
SWIDTH 857 0
DWIDTH 12 0
BBX 12 13 0 -2
BITMAP
0000
3100
4900
4A00
4A00
3400
0580
0A40
0A40
1240
1180
0000
0000
ENDCHAR
STARTCHAR 0x2174
ENCODING 8564
SWIDTH 857 0
DWIDTH 12 0
BBX 12 13 0 -2
BITMAP
0000
0900
0900
0900
3FC0
0900
0900
3FC0
0900
0900
0900
0000
0000
ENDCHAR
STARTCHAR 0x2175
ENCODING 8565
SWIDTH 857 0
DWIDTH 12 0
BBX 12 13 0 -2
BITMAP
0000
0C00
1200
1200
1200
0DC0
1480
2280
2100
2280
1C40
0000
0000
ENDCHAR
STARTCHAR 0x2176
ENCODING 8566
SWIDTH 857 0
DWIDTH 12 0
BBX 12 13 0 -2
BITMAP
0000
0400
2480
1500
0E00
1500
2480
0400
0000
0000
0000
0000
0000
ENDCHAR
STARTCHAR 0x2177
ENCODING 8567
SWIDTH 857 0
DWIDTH 12 0
BBX 12 13 0 -2
BITMAP
0000
0F00
3080
2640
4940
4940
4940
4940
2780
3000
0E00
0000
0000
ENDCHAR
STARTCHAR 0x2178
ENCODING 8568
SWIDTH 857 0
DWIDTH 12 0
BBX 12 13 0 -2
BITMAP
0E00
1100
1100
0800
0E00
1100
1100
0E00
0200
1100
1100
0E00
0000
ENDCHAR
STARTCHAR 0x2179
ENCODING 8569
SWIDTH 857 0
DWIDTH 12 0
BBX 12 13 0 -2
BITMAP
0400
0400
0A00
0A00
FBE0
2080
1100
1500
2A80
3180
4040
0000
0000
ENDCHAR
STARTCHAR 0x217A
ENCODING 8570
SWIDTH 857 0
DWIDTH 12 0
BBX 12 13 0 -2
BITMAP
0400
0400
0E00
0E00
FFE0
3F80
1F00
1F00
3B80
3180
4040
0000
0000
ENDCHAR
STARTCHAR 0x217B
ENCODING 8571
SWIDTH 857 0
DWIDTH 12 0
BBX 12 13 0 -2
BITMAP
0000
0600
1980
2040
2040
4020
4020
2040
2040
1980
0600
0000
0000
ENDCHAR
STARTCHAR 0x217C
ENCODING 8572
SWIDTH 857 0
DWIDTH 12 0
BBX 12 13 0 -2
BITMAP
0000
0600
1F80
3FC0
3FC0
7FE0
7FE0
3FC0
3FC0
1F80
0600
0000
0000
ENDCHAR
STARTCHAR 0x217D
ENCODING 8573
SWIDTH 857 0
DWIDTH 12 0
BBX 12 13 0 -2
BITMAP
0000
0600
1980
2040
2640
4920
4920
2640
2040
1980
0600
0000
0000
ENDCHAR
STARTCHAR 0x217E
ENCODING 8574
SWIDTH 857 0
DWIDTH 12 0
BBX 12 13 0 -2
BITMAP
0000
0400
0A00
1100
2080
4040
8020
4040
2080
1100
0A00
0400
0000
ENDCHAR
STARTCHAR 0x2221
ENCODING 8737
SWIDTH 857 0
DWIDTH 12 0
BBX 12 13 0 -2
BITMAP
0000
0400
0E00
1F00
3F80
7FC0
FFE0
7FC0
3F80
1F00
0E00
0400
0000
ENDCHAR
STARTCHAR 0x2222
ENCODING 8738
SWIDTH 857 0
DWIDTH 12 0
BBX 12 13 0 -2
BITMAP
0000
0000
7FC0
4040
4040
4040
4040
4040
4040
4040
7FC0
0000
0000
ENDCHAR
STARTCHAR 0x2223
ENCODING 8739
SWIDTH 857 0
DWIDTH 12 0
BBX 12 13 0 -2
BITMAP
0000
0000
7FC0
7FC0
7FC0
7FC0
7FC0
7FC0
7FC0
7FC0
7FC0
0000
0000
ENDCHAR
STARTCHAR 0x2224
ENCODING 8740
SWIDTH 857 0
DWIDTH 12 0
BBX 12 13 0 -2
BITMAP
0000
0000
0400
0A00
0A00
1100
1100
2080
2080
4040
7FC0
0000
0000
ENDCHAR
STARTCHAR 0x2225
ENCODING 8741
SWIDTH 857 0
DWIDTH 12 0
BBX 12 13 0 -2
BITMAP
0000
0000
0400
0E00
0E00
1F00
1F00
3F80
3F80
7FC0
7FC0
0000
0000
ENDCHAR
STARTCHAR 0x2226
ENCODING 8742
SWIDTH 857 0
DWIDTH 12 0
BBX 12 13 0 -2
BITMAP
0000
0000
7FC0
4040
2080
2080
1100
1100
0A00
0A00
0400
0000
0000
ENDCHAR
STARTCHAR 0x2227
ENCODING 8743
SWIDTH 857 0
DWIDTH 12 0
BBX 12 13 0 -2
BITMAP
0000
0000
7FC0
7FC0
3F80
3F80
1F00
1F00
0E00
0E00
0400
0000
0000
ENDCHAR
STARTCHAR 0x2228
ENCODING 8744
SWIDTH 857 0
DWIDTH 12 0
BBX 12 13 0 -2
BITMAP
0000
0400
4E40
2480
1100
4A40
E4E0
4A40
1100
2480
4E40
0400
0000
ENDCHAR
STARTCHAR 0x2229
ENCODING 8745
SWIDTH 857 0
DWIDTH 12 0
BBX 12 13 0 -2
BITMAP
0000
7FC0
0000
0000
0000
7FC0
0400
0400
0400
0400
0400
0000
0000
ENDCHAR
STARTCHAR 0x222A
ENCODING 8746
SWIDTH 857 0
DWIDTH 12 0
BBX 12 13 0 -2
BITMAP
0000
0000
0200
0100
0080
0040
FFE0
0040
0080
0100
0200
0000
0000
ENDCHAR
STARTCHAR 0x222B
ENCODING 8747
SWIDTH 857 0
DWIDTH 12 0
BBX 12 13 0 -2
BITMAP
0000
0000
0800
1000
2000
4000
FFE0
4000
2000
1000
0800
0000
0000
ENDCHAR
STARTCHAR 0x222C
ENCODING 8748
SWIDTH 857 0
DWIDTH 12 0
BBX 12 13 0 -2
BITMAP
0000
0400
0E00
1500
2480
4440
0400
0400
0400
0400
0400
0400
0000
ENDCHAR
STARTCHAR 0x222D
ENCODING 8749
SWIDTH 857 0
DWIDTH 12 0
BBX 12 13 0 -2
BITMAP
0000
0400
0400
0400
0400
0400
0400
4440
2480
1500
0E00
0400
0000
ENDCHAR
STARTCHAR 0x222E
ENCODING 8750
SWIDTH 857 0
DWIDTH 12 0
BBX 12 13 0 -2
BITMAP
0000
0000
0000
7FC0
7FC0
7FC0
0000
7FC0
7FC0
7FC0
0000
0000
0000
ENDCHAR
STARTCHAR 0x223A
ENCODING 8762
SWIDTH 857 0
DWIDTH 12 0
BBX 12 13 0 -2
BITMAP
0000
0000
0000
1FC0
2000
4000
7FC0
4000
2000
1FC0
0000
0000
0000
ENDCHAR
STARTCHAR 0x223B
ENCODING 8763
SWIDTH 857 0
DWIDTH 12 0
BBX 12 13 0 -2
BITMAP
0000
0000
0000
7F00
0080
0040
7FC0
0040
0080
7F00
0000
0000
0000
ENDCHAR
STARTCHAR 0x223C
ENCODING 8764
SWIDTH 857 0
DWIDTH 12 0
BBX 12 13 0 -2
BITMAP
0000
0000
1FC0
2000
4000
4000
2000
1FC0
0000
0000
7FC0
0000
0000
ENDCHAR
STARTCHAR 0x223D
ENCODING 8765
SWIDTH 857 0
DWIDTH 12 0
BBX 12 13 0 -2
BITMAP
0000
0000
7F00
0080
0040
0040
0080
7F00
0000
0000
7FC0
0000
0000
ENDCHAR
STARTCHAR 0x223E
ENCODING 8766
SWIDTH 857 0
DWIDTH 12 0
BBX 12 13 0 -2
BITMAP
0000
0000
0000
1FC0
2000
4000
4000
4000
2000
1FC0
0000
0000
0000
ENDCHAR
STARTCHAR 0x223F
ENCODING 8767
SWIDTH 857 0
DWIDTH 12 0
BBX 12 13 0 -2
BITMAP
0000
0000
0000
7F00
0080
0040
0040
0040
0080
7F00
0000
0000
0000
ENDCHAR
STARTCHAR 0x2240
ENCODING 8768
SWIDTH 857 0
DWIDTH 12 0
BBX 12 13 0 -2
BITMAP
0000
0000
2080
2080
2080
2080
2080
2080
2080
1100
0E00
0000
0000
ENDCHAR
STARTCHAR 0x2241
ENCODING 8769
SWIDTH 857 0
DWIDTH 12 0
BBX 12 13 0 -2
BITMAP
0000
0000
0E00
1100
2080
2080
2080
2080
2080
2080
2080
0000
0000
ENDCHAR
STARTCHAR 0x224A
ENCODING 8778
SWIDTH 857 0
DWIDTH 12 0
BBX 12 13 0 -2
BITMAP
0000
0400
0400
0A00
0A00
1100
1100
2080
2080
4040
4040
0000
0000
ENDCHAR
STARTCHAR 0x224B
ENCODING 8779
SWIDTH 857 0
DWIDTH 12 0
BBX 12 13 0 -2
BITMAP
0000
4040
4040
2080
2080
1100
1100
0A00
0A00
0400
0400
0000
0000
ENDCHAR
STARTCHAR 0x224C
ENCODING 8780
SWIDTH 857 0
DWIDTH 12 0
BBX 12 13 0 -2
BITMAP
0000
0000
0000
0000
0000
0000
7FC0
0040
0040
0000
0000
0000
0000
ENDCHAR
STARTCHAR 0x224D
ENCODING 8781
SWIDTH 857 0
DWIDTH 12 0
BBX 12 13 0 -2
BITMAP
0000
0000
0000
0100
0080
FFC0
0020
FFC0
0080
0100
0000
0000
0000
ENDCHAR
STARTCHAR 0x224E
ENCODING 8782
SWIDTH 857 0
DWIDTH 12 0
BBX 12 13 0 -2
BITMAP
0000
0000
0000
1100
2080
7FC0
8020
7FC0
2080
1100
0000
0000
0000
ENDCHAR
STARTCHAR 0x224F
ENCODING 8783
SWIDTH 857 0
DWIDTH 12 0
BBX 12 13 0 -2
BITMAP
0000
4040
4040
2080
3F80
1100
1100
0A00
0A00
0400
0400
0000
0000
ENDCHAR
STARTCHAR 0x2250
ENCODING 8784
SWIDTH 857 0
DWIDTH 12 0
BBX 12 13 0 -2
BITMAP
0000
3F80
0080
0080
0080
3F80
0080
0080
0080
0080
3F80
0000
0000
ENDCHAR
STARTCHAR 0x225C
ENCODING 8796
SWIDTH 857 0
DWIDTH 12 0
BBX 12 13 0 -2
BITMAP
0000
0000
0080
0100
0200
0400
0800
1000
2000
7FC0
0000
0000
0000
ENDCHAR
STARTCHAR 0x225D
ENCODING 8797
SWIDTH 857 0
DWIDTH 12 0
BBX 12 13 0 -2
BITMAP
0000
0000
0400
0400
0400
0400
0400
0400
0400
7FC0
0000
0000
0000
ENDCHAR
STARTCHAR 0x225E
ENCODING 8798
SWIDTH 857 0
DWIDTH 12 0
BBX 12 13 0 -2
BITMAP
1F00
60C0
8020
0000
0000
0000
0000
0000
0000
0000
0000
0000
0000
ENDCHAR
STARTCHAR 0x225F
ENCODING 8799
SWIDTH 857 0
DWIDTH 12 0
BBX 12 13 0 -2
BITMAP
0000
0000
0700
0880
0080
0080
0E80
1100
2100
2200
1C00
0000
0000
ENDCHAR
STARTCHAR 0x2260
ENCODING 8800
SWIDTH 857 0
DWIDTH 12 0
BBX 12 13 0 -2
BITMAP
0000
0000
7FC0
7FC0
3080
3080
1900
1900
0A00
0E00
0400
0000
0000
ENDCHAR
STARTCHAR 0x2261
ENCODING 8801
SWIDTH 857 0
DWIDTH 12 0
BBX 12 13 0 -2
BITMAP
0000
0000
0000
7FC0
0000
0000
7FC0
0000
0000
7FC0
0000
0000
0000
ENDCHAR
STARTCHAR 0x2262
ENCODING 8802
SWIDTH 857 0
DWIDTH 12 0
BBX 12 13 0 -2
BITMAP
0000
0000
3000
3000
0000
7FC0
0000
7FC0
0000
0180
0180
0000
0000
ENDCHAR
STARTCHAR 0x2263
ENCODING 8803
SWIDTH 857 0
DWIDTH 12 0
BBX 12 13 0 -2
BITMAP
0000
0000
0440
0880
1100
2200
4400
2200
1100
0880
0440
0000
0000
ENDCHAR
STARTCHAR 0x2264
ENCODING 8804
SWIDTH 857 0
DWIDTH 12 0
BBX 12 13 0 -2
BITMAP
0000
0000
8800
4400
2200
1100
0880
1100
2200
4400
8800
0000
0000
ENDCHAR
STARTCHAR 0x2265
ENCODING 8805
SWIDTH 857 0
DWIDTH 12 0
BBX 12 13 0 -2
BITMAP
03E0
0200
0200
0400
0400
4400
4800
A800
A800
1000
1000
0000
0000
ENDCHAR
STARTCHAR 0x2266
ENCODING 8806
SWIDTH 857 0
DWIDTH 12 0
BBX 12 13 0 -2
BITMAP
0000
0000
0000
2180
4240
8420
8420
4840
3080
0000
0000
0000
0000
ENDCHAR
STARTCHAR 0x2267
ENCODING 8807
SWIDTH 857 0
DWIDTH 12 0
BBX 12 13 0 -2
BITMAP
0000
0000
0000
3180
4A40
8400
8400
4A40
3180
0000
0000
0000
0000
ENDCHAR
STARTCHAR 0x2268
ENCODING 8808
SWIDTH 857 0
DWIDTH 12 0
BBX 12 13 0 -2
BITMAP
0000
0000
2080
71C0
2080
0000
0000
0400
0E00
0400
0000
0000
0000
ENDCHAR
STARTCHAR 0x2269
ENCODING 8809
SWIDTH 857 0
DWIDTH 12 0
BBX 12 13 0 -2
BITMAP
0600
0A00
0800
0800
0800
0400
0400
0200
0200
0200
0A00
0C00
0000
ENDCHAR
STARTCHAR 0x226A
ENCODING 8810
SWIDTH 857 0
DWIDTH 12 0
BBX 12 13 0 -2
BITMAP
1980
2A80
2200
2200
2200
1100
1100
0880
0880
0880
2A80
3300
0000
ENDCHAR
STARTCHAR 0x2272
ENCODING 8818
SWIDTH 857 0
DWIDTH 12 0
BBX 12 13 0 -2
BITMAP
0600
0900
0900
0600
0400
0A00
0A00
1100
1F00
2080
2080
0000
0000
ENDCHAR
STARTCHAR 0x2273
ENCODING 8819
SWIDTH 857 0
DWIDTH 12 0
BBX 12 13 0 -2
BITMAP
0000
6200
9200
9400
9400
6800
0EC0
1920
1920
2920
26C0
0000
0000
ENDCHAR
STARTCHAR 0x2274
ENCODING 8820
SWIDTH 857 0
DWIDTH 12 0
BBX 12 13 0 -2
BITMAP
0000
0900
0900
09C0
0F00
3900
09C0
0F00
3900
0900
0900
0000
0000
ENDCHAR
STARTCHAR 0x2275
ENCODING 8821
SWIDTH 857 0
DWIDTH 12 0
BBX 12 13 0 -2
BITMAP
0000
1000
1000
1000
1600
1900
1100
1100
1200
1400
1800
0000
0000
ENDCHAR
STARTCHAR 0x2276
ENCODING 8822
SWIDTH 857 0
DWIDTH 12 0
BBX 12 13 0 -2
BITMAP
0000
0400
0600
0500
0480
0480
0500
0400
1C00
3C00
3800
0000
0000
ENDCHAR
STARTCHAR 0x2277
ENCODING 8823
SWIDTH 857 0
DWIDTH 12 0
BBX 12 13 0 -2
BITMAP
0400
0400
1F00
0400
0400
0E00
0E00
0E00
0400
0400
0400
0400
0000
ENDCHAR
STARTCHAR 0x2278
ENCODING 8824
SWIDTH 857 0
DWIDTH 12 0
BBX 12 13 0 -2
BITMAP
0400
0400
1F00
0400
0E00
0400
0400
0E00
0400
1F00
0400
0400
0000
ENDCHAR
STARTCHAR 0x2279
ENCODING 8825
SWIDTH 857 0
DWIDTH 12 0
BBX 12 13 0 -2
BITMAP
0000
0F00
1D00
3D00
3D00
1D00
0D00
0500
0500
0500
0500
0000
0000
ENDCHAR
STARTCHAR 0x227E
ENCODING 8830
SWIDTH 857 0
DWIDTH 12 0
BBX 12 13 0 -2
BITMAP
0000
0E00
3180
4040
4040
8020
8020
8020
4040
4040
3180
0E00
0000
ENDCHAR
STARTCHAR 0x2330
ENCODING 9008
SWIDTH 857 0
DWIDTH 12 0
BBX 12 13 0 -2
BITMAP
0000
0E00
1100
2080
2080
2080
2080
2080
2080
1100
0E00
0000
0000
ENDCHAR
STARTCHAR 0x2331
ENCODING 9009
SWIDTH 857 0
DWIDTH 12 0
BBX 12 13 0 -2
BITMAP
0000
0400
0C00
1400
2400
0400
0400
0400
0400
0400
0400
0000
0000
ENDCHAR
STARTCHAR 0x2332
ENCODING 9010
SWIDTH 857 0
DWIDTH 12 0
BBX 12 13 0 -2
BITMAP
0000
0E00
1100
2080
0080
0100
0200
0400
0800
1000
3F80
0000
0000
ENDCHAR
STARTCHAR 0x2333
ENCODING 9011
SWIDTH 857 0
DWIDTH 12 0
BBX 12 13 0 -2
BITMAP
0000
3F80
0100
0200
0400
0E00
0100
0080
2080
1100
0E00
0000
0000
ENDCHAR
STARTCHAR 0x2334
ENCODING 9012
SWIDTH 857 0
DWIDTH 12 0
BBX 12 13 0 -2
BITMAP
0000
0600
0A00
0A00
1200
1200
2200
2200
7F80
0200
0200
0000
0000
ENDCHAR
STARTCHAR 0x2335
ENCODING 9013
SWIDTH 857 0
DWIDTH 12 0
BBX 12 13 0 -2
BITMAP
0000
3F80
2000
2000
2E00
3100
0080
0080
0080
2100
1E00
0000
0000
ENDCHAR
STARTCHAR 0x2336
ENCODING 9014
SWIDTH 857 0
DWIDTH 12 0
BBX 12 13 0 -2
BITMAP
0000
0F00
1000
2000
2E00
3100
2080
2080
2080
1100
0E00
0000
0000
ENDCHAR
STARTCHAR 0x2337
ENCODING 9015
SWIDTH 857 0
DWIDTH 12 0
BBX 12 13 0 -2
BITMAP
0000
3F80
0080
0100
0100
0200
0200
0400
0400
0800
0800
0000
0000
ENDCHAR
STARTCHAR 0x2338
ENCODING 9016
SWIDTH 857 0
DWIDTH 12 0
BBX 12 13 0 -2
BITMAP
0000
0E00
1100
2080
1100
0E00
1100
2080
2080
1100
0E00
0000
0000
ENDCHAR
STARTCHAR 0x2339
ENCODING 9017
SWIDTH 857 0
DWIDTH 12 0
BBX 12 13 0 -2
BITMAP
0000
0E00
1100
2080
2080
2080
1180
0E80
0080
0100
1E00
0000
0000
ENDCHAR
STARTCHAR 0x2341
ENCODING 9025
SWIDTH 857 0
DWIDTH 12 0
BBX 12 13 0 -2
BITMAP
0000
0400
0400
0A00
0A00
1100
1100
3F80
2080
4040
4040
0000
0000
ENDCHAR
STARTCHAR 0x2342
ENCODING 9026
SWIDTH 857 0
DWIDTH 12 0
BBX 12 13 0 -2
BITMAP
0000
3F00
2080
2080
2080
3F00
2080
2040
2040
2080
3F00
0000
0000
ENDCHAR
STARTCHAR 0x2343
ENCODING 9027
SWIDTH 857 0
DWIDTH 12 0
BBX 12 13 0 -2
BITMAP
0000
0F80
1040
2000
2000
2000
2000
2000
2000
1040
0F80
0000
0000
ENDCHAR
STARTCHAR 0x2344
ENCODING 9028
SWIDTH 857 0
DWIDTH 12 0
BBX 12 13 0 -2
BITMAP
0000
3E00
2180
2080
2040
2040
2040
2040
2080
2180
3E00
0000
0000
ENDCHAR
STARTCHAR 0x2345
ENCODING 9029
SWIDTH 857 0
DWIDTH 12 0
BBX 12 13 0 -2
BITMAP
0000
3F80
2000
2000
2000
3F00
2000
2000
2000
2000
3F80
0000
0000
ENDCHAR
STARTCHAR 0x2346
ENCODING 9030
SWIDTH 857 0
DWIDTH 12 0
BBX 12 13 0 -2
BITMAP
0000
3F80
2000
2000
2000
3F00
2000
2000
2000
2000
2000
0000
0000
ENDCHAR
STARTCHAR 0x2347
ENCODING 9031
SWIDTH 857 0
DWIDTH 12 0
BBX 12 13 0 -2
BITMAP
0000
0F80
1040
2000
2000
23C0
2040
2040
2040
10C0
0F40
0000
0000
ENDCHAR
STARTCHAR 0x2348
ENCODING 9032
SWIDTH 857 0
DWIDTH 12 0
BBX 12 13 0 -2
BITMAP
0000
2040
2040
2040
2040
3FC0
2040
2040
2040
2040
2040
0000
0000
ENDCHAR
STARTCHAR 0x2349
ENCODING 9033
SWIDTH 857 0
DWIDTH 12 0
BBX 12 13 0 -2
BITMAP
0000
0400
0400
0400
0400
0400
0400
0400
0400
0400
0400
0000
0000
ENDCHAR
STARTCHAR 0x234A
ENCODING 9034
SWIDTH 857 0
DWIDTH 12 0
BBX 12 13 0 -2
BITMAP
0000
0100
0100
0100
0100
0100
4100
4100
4100
2200
1C00
0000
0000
ENDCHAR
STARTCHAR 0x234B
ENCODING 9035
SWIDTH 857 0
DWIDTH 12 0
BBX 12 13 0 -2
BITMAP
0000
2080
2100
2200
2400
2800
3400
2200
2100
2080
2040
0000
0000
ENDCHAR
STARTCHAR 0x234C
ENCODING 9036
SWIDTH 857 0
DWIDTH 12 0
BBX 12 13 0 -2
BITMAP
0000
2000
2000
2000
2000
2000
2000
2000
2000
2000
3F80
0000
0000
ENDCHAR
STARTCHAR 0x234D
ENCODING 9037
SWIDTH 857 0
DWIDTH 12 0
BBX 12 13 0 -2
BITMAP
0000
4040
60C0
5140
4A40
4440
4040
4040
4040
4040
4040
0000
0000
ENDCHAR
STARTCHAR 0x234E
ENCODING 9038
SWIDTH 857 0
DWIDTH 12 0
BBX 12 13 0 -2
BITMAP
0000
2080
3080
2880
2480
2280
2180
2080
2080
2080
2080
0000
0000
ENDCHAR
STARTCHAR 0x234F
ENCODING 9039
SWIDTH 857 0
DWIDTH 12 0
BBX 12 13 0 -2
BITMAP
0000
0F00
1080
2040
2040
2040
2040
2040
2040
1080
0F00
0000
0000
ENDCHAR
STARTCHAR 0x2350
ENCODING 9040
SWIDTH 857 0
DWIDTH 12 0
BBX 12 13 0 -2
BITMAP
0000
3E00
2100
2080
2080
2100
3E00
2000
2000
2000
2000
0000
0000
ENDCHAR
STARTCHAR 0x2351
ENCODING 9041
SWIDTH 857 0
DWIDTH 12 0
BBX 12 13 0 -2
BITMAP
0000
0F00
1080
2040
2040
2040
2040
2040
2040
1080
0F00
0200
01C0
ENDCHAR
STARTCHAR 0x2352
ENCODING 9042
SWIDTH 857 0
DWIDTH 12 0
BBX 12 13 0 -2
BITMAP
0000
3E00
2100
2080
2080
2100
3E00
2100
2100
2080
2080
0000
0000
ENDCHAR
STARTCHAR 0x2353
ENCODING 9043
SWIDTH 857 0
DWIDTH 12 0
BBX 12 13 0 -2
BITMAP
0000
0F00
1080
2040
1000
0F00
0080
0040
2040
1080
0F00
0000
0000
ENDCHAR
STARTCHAR 0x2354
ENCODING 9044
SWIDTH 857 0
DWIDTH 12 0
BBX 12 13 0 -2
BITMAP
0000
7FC0
0400
0400
0400
0400
0400
0400
0400
0400
0400
0000
0000
ENDCHAR
STARTCHAR 0x2355
ENCODING 9045
SWIDTH 857 0
DWIDTH 12 0
BBX 12 13 0 -2
BITMAP
0000
2080
2080
2080
2080
2080
2080
2080
2080
1100
0E00
0000
0000
ENDCHAR
STARTCHAR 0x2356
ENCODING 9046
SWIDTH 857 0
DWIDTH 12 0
BBX 12 13 0 -2
BITMAP
0000
2080
2080
2080
1100
1100
1100
0A00
0A00
0400
0400
0000
0000
ENDCHAR
STARTCHAR 0x2357
ENCODING 9047
SWIDTH 857 0
DWIDTH 12 0
BBX 12 13 0 -2
BITMAP
0000
4440
4440
4440
4440
2A80
2A80
2A80
1100
1100
1100
0000
0000
ENDCHAR
STARTCHAR 0x2358
ENCODING 9048
SWIDTH 857 0
DWIDTH 12 0
BBX 12 13 0 -2
BITMAP
0000
2080
2080
1100
0A00
0400
0400
0A00
1100
2080
2080
0000
0000
ENDCHAR
STARTCHAR 0x2359
ENCODING 9049
SWIDTH 857 0
DWIDTH 12 0
BBX 12 13 0 -2
BITMAP
0000
2080
2080
1100
1100
0A00
0A00
0400
0400
0400
0400
0000
0000
ENDCHAR
STARTCHAR 0x235A
ENCODING 9050
SWIDTH 857 0
DWIDTH 12 0
BBX 12 13 0 -2
BITMAP
0000
3F80
0080
0100
0200
0400
0800
1000
2000
2000
3F80
0000
0000
ENDCHAR
STARTCHAR 0x2361
ENCODING 9057
SWIDTH 857 0
DWIDTH 12 0
BBX 12 13 0 -2
BITMAP
0000
0000
0000
0000
0F00
0080
0780
1880
1080
1180
0E80
0000
0000
ENDCHAR
STARTCHAR 0x2362
ENCODING 9058
SWIDTH 857 0
DWIDTH 12 0
BBX 12 13 0 -2
BITMAP
0000
1000
1000
1000
1600
1900
1080
1080
1080
1900
1600
0000
0000
ENDCHAR
STARTCHAR 0x2363
ENCODING 9059
SWIDTH 857 0
DWIDTH 12 0
BBX 12 13 0 -2
BITMAP
0000
0000
0000
0000
0700
0880
1000
1000
1000
0880
0700
0000
0000
ENDCHAR
STARTCHAR 0x2364
ENCODING 9060
SWIDTH 857 0
DWIDTH 12 0
BBX 12 13 0 -2
BITMAP
0000
0080
0080
0080
0680
0980
1080
1080
1080
0980
0680
0000
0000
ENDCHAR
STARTCHAR 0x2365
ENCODING 9061
SWIDTH 857 0
DWIDTH 12 0
BBX 12 13 0 -2
BITMAP
0000
0000
0000
0000
0600
0900
1080
1F80
1000
0880
0700
0000
0000
ENDCHAR
STARTCHAR 0x2366
ENCODING 9062
SWIDTH 857 0
DWIDTH 12 0
BBX 12 13 0 -2
BITMAP
0000
0380
0400
0400
0400
1F80
0400
0400
0400
0400
0400
0000
0000
ENDCHAR
STARTCHAR 0x2367
ENCODING 9063
SWIDTH 857 0
DWIDTH 12 0
BBX 12 13 0 -2
BITMAP
0000
0000
0000
0000
0680
0980
1080
1080
0980
0680
0080
0100
0E00
ENDCHAR
STARTCHAR 0x2368
ENCODING 9064
SWIDTH 857 0
DWIDTH 12 0
BBX 12 13 0 -2
BITMAP
0000
1000
1000
1000
1600
1900
1080
1080
1080
1080
1080
0000
0000
ENDCHAR
STARTCHAR 0x2369
ENCODING 9065
SWIDTH 857 0
DWIDTH 12 0
BBX 12 13 0 -2
BITMAP
0000
0400
0400
0000
0000
0400
0400
0400
0400
0400
0400
0000
0000
ENDCHAR
STARTCHAR 0x236A
ENCODING 9066
SWIDTH 857 0
DWIDTH 12 0
BBX 12 13 0 -2
BITMAP
0000
0200
0200
0000
0000
0200
0200
0200
0200
0200
0200
0400
3800
ENDCHAR
STARTCHAR 0x236B
ENCODING 9067
SWIDTH 857 0
DWIDTH 12 0
BBX 12 13 0 -2
BITMAP
0000
1000
1000
1000
1080
1100
1200
1400
1200
1100
1080
0000
0000
ENDCHAR
STARTCHAR 0x236C
ENCODING 9068
SWIDTH 857 0
DWIDTH 12 0
BBX 12 13 0 -2
BITMAP
0000
0400
0400
0400
0400
0400
0400
0400
0400
0400
0400
0000
0000
ENDCHAR
STARTCHAR 0x236D
ENCODING 9069
SWIDTH 857 0
DWIDTH 12 0
BBX 12 13 0 -2
BITMAP
0000
0000
0000
0000
5980
6640
4440
4440
4440
4440
4440
0000
0000
ENDCHAR
STARTCHAR 0x236E
ENCODING 9070
SWIDTH 857 0
DWIDTH 12 0
BBX 12 13 0 -2
BITMAP
0000
0000
0000
0000
1700
1880
1080
1080
1080
1080
1080
0000
0000
ENDCHAR
STARTCHAR 0x236F
ENCODING 9071
SWIDTH 857 0
DWIDTH 12 0
BBX 12 13 0 -2
BITMAP
0000
0000
0000
0000
0E00
1100
2080
2080
2080
1100
0E00
0000
0000
ENDCHAR
STARTCHAR 0x2370
ENCODING 9072
SWIDTH 857 0
DWIDTH 12 0
BBX 12 13 0 -2
BITMAP
0000
0000
0000
0000
1600
1900
1080
1080
1080
1900
1600
1000
1000
ENDCHAR
STARTCHAR 0x2371
ENCODING 9073
SWIDTH 857 0
DWIDTH 12 0
BBX 12 13 0 -2
BITMAP
0000
0000
0000
0000
0680
0980
1080
1080
1080
0980
0680
0080
0080
ENDCHAR
STARTCHAR 0x2372
ENCODING 9074
SWIDTH 857 0
DWIDTH 12 0
BBX 12 13 0 -2
BITMAP
0000
0000
0000
0000
1600
1900
1000
1000
1000
1000
1000
0000
0000
ENDCHAR
STARTCHAR 0x2373
ENCODING 9075
SWIDTH 857 0
DWIDTH 12 0
BBX 12 13 0 -2
BITMAP
0000
0000
0000
0000
0F00
1080
1000
0F00
0080
1080
0F00
0000
0000
ENDCHAR
STARTCHAR 0x2374
ENCODING 9076
SWIDTH 857 0
DWIDTH 12 0
BBX 12 13 0 -2
BITMAP
0000
0800
0800
0800
3F00
0800
0800
0800
0800
0880
0700
0000
0000
ENDCHAR
STARTCHAR 0x2375
ENCODING 9077
SWIDTH 857 0
DWIDTH 12 0
BBX 12 13 0 -2
BITMAP
0000
0000
0000
0000
1080
1080
1080
1080
1080
1180
0E80
0000
0000
ENDCHAR
STARTCHAR 0x2376
ENCODING 9078
SWIDTH 857 0
DWIDTH 12 0
BBX 12 13 0 -2
BITMAP
0000
0000
0000
0000
2080
2080
1100
1100
0A00
0A00
0400
0000
0000
ENDCHAR
STARTCHAR 0x2377
ENCODING 9079
SWIDTH 857 0
DWIDTH 12 0
BBX 12 13 0 -2
BITMAP
0000
0000
0000
0000
4440
4440
4440
2A80
2A80
1100
1100
0000
0000
ENDCHAR
STARTCHAR 0x2378
ENCODING 9080
SWIDTH 857 0
DWIDTH 12 0
BBX 12 13 0 -2
BITMAP
0000
0000
0000
0000
2080
1100
0A00
0400
0A00
1100
2080
0000
0000
ENDCHAR
STARTCHAR 0x2379
ENCODING 9081
SWIDTH 857 0
DWIDTH 12 0
BBX 12 13 0 -2
BITMAP
0000
0000
0000
0000
1080
1080
0880
0900
0500
0200
0200
0400
1800
ENDCHAR
STARTCHAR 0x237A
ENCODING 9082
SWIDTH 857 0
DWIDTH 12 0
BBX 12 13 0 -2
BITMAP
0000
0000
0000
0000
1F80
0100
0200
0400
0800
1000
1F80
0000
0000
ENDCHAR
STARTCHAR 0x2421
ENCODING 9249
SWIDTH 857 0
DWIDTH 12 0
BBX 12 13 0 -2
BITMAP
0000
0000
0000
0000
0400
3F80
0800
0F00
1A80
2A80
2C80
1900
0000
ENDCHAR
STARTCHAR 0x2422
ENCODING 9250
SWIDTH 857 0
DWIDTH 12 0
BBX 12 13 0 -2
BITMAP
0000
0400
04C0
7F00
0800
0F80
1940
2920
4A20
4C20
3440
0180
0000
ENDCHAR
STARTCHAR 0x2423
ENCODING 9251
SWIDTH 857 0
DWIDTH 12 0
BBX 12 13 0 -2
BITMAP
0000
0000
0000
0000
0000
2100
2100
2080
2080
2480
1800
0000
0000
ENDCHAR
STARTCHAR 0x2424
ENCODING 9252
SWIDTH 857 0
DWIDTH 12 0
BBX 12 13 0 -2
BITMAP
0000
0000
0000
2000
2080
4040
4040
4020
4220
2400
1800
0000
0000
ENDCHAR
STARTCHAR 0x2425
ENCODING 9253
SWIDTH 857 0
DWIDTH 12 0
BBX 12 13 0 -2
BITMAP
0000
0000
0000
0000
0C00
0300
0000
0700
1880
0080
0100
0600
0000
ENDCHAR
STARTCHAR 0x2426
ENCODING 9254
SWIDTH 857 0
DWIDTH 12 0
BBX 12 13 0 -2
BITMAP
0000
1C00
0300
0000
0E00
3100
0080
0080
0080
0100
0600
1800
0000
ENDCHAR
STARTCHAR 0x2427
ENCODING 9255
SWIDTH 857 0
DWIDTH 12 0
BBX 12 13 0 -2
BITMAP
0000
0000
0000
0000
0C00
0300
0000
1F00
0200
0400
0A00
1180
0000
ENDCHAR
STARTCHAR 0x2428
ENCODING 9256
SWIDTH 857 0
DWIDTH 12 0
BBX 12 13 0 -2
BITMAP
0000
0C00
0300
0000
3F00
0100
0200
0400
0C00
1200
2200
41C0
0000
ENDCHAR
STARTCHAR 0x2429
ENCODING 9257
SWIDTH 857 0
DWIDTH 12 0
BBX 12 13 0 -2
BITMAP
0000
0000
0000
0000
0800
0880
3E40
0800
1F00
2880
2880
3300
0000
ENDCHAR
STARTCHAR 0x242A
ENCODING 9258
SWIDTH 857 0
DWIDTH 12 0
BBX 12 13 0 -2
BITMAP
0000
0800
08C0
7E20
0800
0800
0F80
1840
2820
4820
4840
3180
0000
ENDCHAR
STARTCHAR 0x242B
ENCODING 9259
SWIDTH 857 0
DWIDTH 12 0
BBX 12 13 0 -2
BITMAP
0000
1000
1080
1080
7C40
1240
1220
2220
2200
4200
4200
1C00
0000
ENDCHAR
STARTCHAR 0x242C
ENCODING 9260
SWIDTH 857 0
DWIDTH 12 0
BBX 12 13 0 -2
BITMAP
0000
1040
1120
1080
7C00
1240
1240
2220
2220
4200
4200
1C00
0000
ENDCHAR
STARTCHAR 0x242D
ENCODING 9261
SWIDTH 857 0
DWIDTH 12 0
BBX 12 13 0 -2
BITMAP
0000
0400
0580
7E00
03C0
7E00
0100
1E80
2180
2000
1000
0F00
0000
ENDCHAR
STARTCHAR 0x242E
ENCODING 9262
SWIDTH 857 0
DWIDTH 12 0
BBX 12 13 0 -2
BITMAP
0040
0520
0480
7E00
03C0
7E00
0100
1E80
2180
2000
1000
0F00
0000
ENDCHAR
STARTCHAR 0x242F
ENCODING 9263
SWIDTH 857 0
DWIDTH 12 0
BBX 12 13 0 -2
BITMAP
0000
0000
0100
0200
0400
0800
1000
1000
0C00
0200
0100
0080
0000
ENDCHAR
STARTCHAR 0x2430
ENCODING 9264
SWIDTH 857 0
DWIDTH 12 0
BBX 12 13 0 -2
BITMAP
0000
0000
0200
0440
0920
1080
2000
2000
1800
0400
0200
0100
0000
ENDCHAR
STARTCHAR 0x2431
ENCODING 9265
SWIDTH 857 0
DWIDTH 12 0
BBX 12 13 0 -2
BITMAP
0000
0080
2080
2080
4FE0
4080
4080
4080
4080
4080
2100
2600
0000
ENDCHAR
STARTCHAR 0x2432
ENCODING 9266
SWIDTH 857 0
DWIDTH 12 0
BBX 12 13 0 -2
BITMAP
0000
0140
4120
4180
9F40
8100
8100
8100
8100
8100
4200
4C00
0000
ENDCHAR
STARTCHAR 0x2433
ENCODING 9267
SWIDTH 857 0
DWIDTH 12 0
BBX 12 13 0 -2
BITMAP
0000
0000
1F80
0000
0000
0000
0000
1000
2000
2040
1F80
0000
0000
ENDCHAR
STARTCHAR 0x2434
ENCODING 9268
SWIDTH 857 0
DWIDTH 12 0
BBX 12 13 0 -2
BITMAP
0000
0000
3F40
0020
0080
0040
0000
2000
4000
4080
3F00
0000
0000
ENDCHAR
STARTCHAR 0x2435
ENCODING 9269
SWIDTH 857 0
DWIDTH 12 0
BBX 12 13 0 -2
BITMAP
0000
0200
0200
02C0
7F00
0100
0100
1E80
2180
2000
1000
0F00
0000
ENDCHAR
STARTCHAR 0x2436
ENCODING 9270
SWIDTH 857 0
DWIDTH 12 0
BBX 12 13 0 -2
BITMAP
0000
0840
0920
0E80
F800
0400
0200
3D00
4300
4000
2000
1E00
0000
ENDCHAR
STARTCHAR 0x2437
ENCODING 9271
SWIDTH 857 0
DWIDTH 12 0
BBX 12 13 0 -2
BITMAP
0000
0000
0800
0800
0800
1000
1000
1000
1040
1040
0880
0700
0000
ENDCHAR
STARTCHAR 0x2438
ENCODING 9272
SWIDTH 857 0
DWIDTH 12 0
BBX 12 13 0 -2
BITMAP
0000
0000
1080
1240
1100
2000
2000
2000
2080
2080
1100
0E00
0000
ENDCHAR
STARTCHAR 0x2439
ENCODING 9273
SWIDTH 857 0
DWIDTH 12 0
BBX 12 13 0 -2
BITMAP
0000
0200
0200
FFE0
0200
0E00
1200
1200
0E00
0200
0400
1800
0000
ENDCHAR
STARTCHAR 0x243A
ENCODING 9274
SWIDTH 857 0
DWIDTH 12 0
BBX 12 13 0 -2
BITMAP
0000
0200
0200
FFE0
0200
0E40
1220
1280
0E40
0200
0400
1800
0000
ENDCHAR
STARTCHAR 0x243B
ENCODING 9275
SWIDTH 857 0
DWIDTH 12 0
BBX 12 13 0 -2
BITMAP
0000
0080
1080
1080
13E0
7C80
1080
1080
1380
1000
1000
0FC0
0000
ENDCHAR
STARTCHAR 0x243C
ENCODING 9276
SWIDTH 857 0
DWIDTH 12 0
BBX 12 13 0 -2
BITMAP
0000
0100
2140
2120
2780
F940
2100
2100
2700
2000
2000
1F80
0000
ENDCHAR
STARTCHAR 0x243D
ENCODING 9277
SWIDTH 857 0
DWIDTH 12 0
BBX 12 13 0 -2
BITMAP
0000
0000
1F80
0100
0200
0400
7FE0
0400
0800
0800
0800
0780
0000
ENDCHAR
STARTCHAR 0x243E
ENCODING 9278
SWIDTH 857 0
DWIDTH 12 0
BBX 12 13 0 -2
BITMAP
0000
0000
3E40
0320
0480
0800
FFC0
0800
1000
1000
1000
0F00
0000
ENDCHAR
STARTCHAR 0x243F
ENCODING 9279
SWIDTH 857 0
DWIDTH 12 0
BBX 12 13 0 -2
BITMAP
0000
1000
1000
7F80
1000
13C0
1000
2200
2400
2400
43E0
4000
0000
ENDCHAR
STARTCHAR 0x2440
ENCODING 9280
SWIDTH 857 0
DWIDTH 12 0
BBX 12 13 0 -2
BITMAP
0040
1120
1080
7F00
1000
13C0
1000
2200
2400
2400
43E0
4000
0000
ENDCHAR
STARTCHAR 0x2441
ENCODING 9281
SWIDTH 857 0
DWIDTH 12 0
BBX 12 13 0 -2
BITMAP
0000
0400
0400
05E0
7E00
0800
1700
1880
0040
0040
0080
0F00
0000
ENDCHAR
STARTCHAR 0x2442
ENCODING 9282
SWIDTH 857 0
DWIDTH 12 0
BBX 12 13 0 -2
BITMAP
0040
0920
0880
0F00
F800
1000
2E00
3100
0080
0080
0100
1E00
0000
ENDCHAR
STARTCHAR 0x2443
ENCODING 9283
SWIDTH 857 0
DWIDTH 12 0
BBX 12 13 0 -2
BITMAP
0000
0000
0000
0000
0000
0000
0E00
3100
0080
0080
0100
0E00
0000
ENDCHAR
STARTCHAR 0x2444
ENCODING 9284
SWIDTH 857 0
DWIDTH 12 0
BBX 12 13 0 -2
BITMAP
0000
0000
0000
0F00
7080
0040
0040
0040
0080
0300
1C00
0000
0000
ENDCHAR
STARTCHAR 0x2445
ENCODING 9285
SWIDTH 857 0
DWIDTH 12 0
BBX 12 13 0 -2
BITMAP
0040
0120
0080
0F00
7080
0040
0040
0040
0080
0300
1C00
0000
0000
ENDCHAR
STARTCHAR 0x2446
ENCODING 9286
SWIDTH 857 0
DWIDTH 12 0
BBX 12 13 0 -2
BITMAP
0000
0000
0000
0FC0
F200
0400
0800
0800
0800
0800
0400
0380
0000
ENDCHAR
STARTCHAR 0x2447
ENCODING 9287
SWIDTH 857 0
DWIDTH 12 0
BBX 12 13 0 -2
BITMAP
0000
0000
0000
0FC0
F200
0440
0920
0880
0800
0800
0400
0380
0000
ENDCHAR
STARTCHAR 0x2448
ENCODING 9288
SWIDTH 857 0
DWIDTH 12 0
BBX 12 13 0 -2
BITMAP
0000
0800
0800
0800
0400
0780
0C00
1000
2000
2000
1000
0F80
0000
ENDCHAR
STARTCHAR 0x2449
ENCODING 9289
SWIDTH 857 0
DWIDTH 12 0
BBX 12 13 0 -2
BITMAP
0080
1240
1100
1000
0800
0F00
1800
2000
4000
4000
2000
1F00
0000
ENDCHAR
STARTCHAR 0x244A
ENCODING 9290
SWIDTH 857 0
DWIDTH 12 0
BBX 12 13 0 -2
BITMAP
0000
0800
08C0
FE20
1000
1080
2080
2080
4780
48C0
08A0
0700
0000
ENDCHAR
STARTCHAR 0x244B
ENCODING 9291
SWIDTH 857 0
DWIDTH 12 0
BBX 12 13 0 -2
BITMAP
0000
0000
2000
23C0
4000
4000
4000
4200
4400
4400
23E0
2000
0000
ENDCHAR
STARTCHAR 0x244C
ENCODING 9292
SWIDTH 857 0
DWIDTH 12 0
BBX 12 13 0 -2
BITMAP
0000
0200
0200
2200
2F80
3240
2220
5420
55A0
4A60
3240
01A0
0000
ENDCHAR
STARTCHAR 0x244D
ENCODING 9293
SWIDTH 857 0
DWIDTH 12 0
BBX 12 13 0 -2
BITMAP
0000
1000
1000
1000
7380
1440
1820
1020
31A0
5260
1240
11A0
0000
ENDCHAR
STARTCHAR 0x244E
ENCODING 9294
SWIDTH 857 0
DWIDTH 12 0
BBX 12 13 0 -2
BITMAP
0000
0000
0000
0F80
1440
2420
4420
4820
4820
3040
0180
0000
0000
ENDCHAR
STARTCHAR 0x244F
ENCODING 9295
SWIDTH 857 0
DWIDTH 12 0
BBX 12 13 0 -2
BITMAP
0000
0080
2080
2080
4FE0
4080
4080
4080
4780
48C0
28A0
2700
0000
ENDCHAR
STARTCHAR 0x2450
ENCODING 9296
SWIDTH 857 0
DWIDTH 12 0
BBX 12 13 0 -2
BITMAP
0000
0140
4120
4180
9F40
8100
8100
8100
8F00
9180
5140
4E00
0000
ENDCHAR
STARTCHAR 0x2451
ENCODING 9297
SWIDTH 857 0
DWIDTH 12 0
BBX 12 13 0 -2
BITMAP
0000
00C0
4120
4120
9FC0
8100
8100
8100
8F00
9180
5140
4E00
0000
ENDCHAR
STARTCHAR 0x2452
ENCODING 9298
SWIDTH 857 0
DWIDTH 12 0
BBX 12 13 0 -2
BITMAP
0000
0000
7900
0900
1080
20C0
20A0
4080
4100
4100
2200
1C00
0000
ENDCHAR
STARTCHAR 0x2453
ENCODING 9299
SWIDTH 857 0
DWIDTH 12 0
BBX 12 13 0 -2
BITMAP
0000
0040
7920
0880
1000
2080
20C0
40A0
4100
4100
2200
1C00
0000
ENDCHAR
STARTCHAR 0x2454
ENCODING 9300
SWIDTH 857 0
DWIDTH 12 0
BBX 12 13 0 -2
BITMAP
0000
00C0
7920
0920
10C0
20A0
2080
4080
4100
4100
2200
1C00
0000
ENDCHAR
STARTCHAR 0x2455n
ENCODING 9301
SWIDTH 857 0
DWIDTH 12 0
BBX 12 13 0 -2
BITMAP
0000
0000
1F00
0100
0200
0400
2440
2440
2220
4220
4220
0C00
0000
ENDCHAR
STARTCHAR 0x2456
ENCODING 9302
SWIDTH 857 0
DWIDTH 12 0
BBX 12 13 0 -2
BITMAP
0000
0040
1F20
0180
0240
0400
2400
2440
2240
4220
4220
0C00
0000
ENDCHAR
STARTCHAR 0x2457
ENCODING 9303
SWIDTH 857 0
DWIDTH 12 0
BBX 12 13 0 -2
BITMAP
0000
00C0
1F20
0120
02C0
0400
2400
2440
2240
4220
4220
0C00
0000
ENDCHAR
STARTCHAR 0x2458
ENCODING 9304
SWIDTH 857 0
DWIDTH 12 0
BBX 12 13 0 -2
BITMAP
0000
0000
0000
0000
0000
3800
4400
8200
0180
0060
0000
0000
0000
ENDCHAR
STARTCHAR 0x2459
ENCODING 9305
SWIDTH 857 0
DWIDTH 12 0
BBX 12 13 0 -2
BITMAP
0000
0000
0080
0240
0100
3800
4400
8200
0180
0060
0000
0000
0000
ENDCHAR
STARTCHAR 0x245A
ENCODING 9306
SWIDTH 857 0
DWIDTH 12 0
BBX 12 13 0 -2
BITMAP
0000
0000
0180
0240
0240
3980
4400
8200
0180
0060
0000
0000
0000
ENDCHAR
STARTCHAR 0x245B
ENCODING 9307
SWIDTH 857 0
DWIDTH 12 0
BBX 12 13 0 -2
BITMAP
0000
0000
2FE0
2080
4080
4FE0
4080
4080
4780
48C0
28A0
2700
0000
ENDCHAR
STARTCHAR 0x245C
ENCODING 9308
SWIDTH 857 0
DWIDTH 12 0
BBX 12 13 0 -2
BITMAP
0000
0040
5F20
4180
8100
9FC0
8100
8100
8F00
9180
5140
4E00
0000
ENDCHAR
STARTCHAR 0x245D
ENCODING 9309
SWIDTH 857 0
DWIDTH 12 0
BBX 12 13 0 -2
BITMAP
0000
00C0
5F20
4120
81C0
9F00
8100
8100
8F00
9180
5140
4E00
0000
ENDCHAR
STARTCHAR 0x245E
ENCODING 9310
SWIDTH 857 0
DWIDTH 12 0
BBX 12 13 0 -2
BITMAP
0000
0200
0200
7FC0
0200
3FC0
0200
0200
1E00
2380
2240
1C00
0000
ENDCHAR
STARTCHAR 0x245F
ENCODING 9311
SWIDTH 857 0
DWIDTH 12 0
BBX 12 13 0 -2
BITMAP
0000
0000
7C00
0480
0480
0480
3F80
48C0
88A0
9080
6100
0600
0000
ENDCHAR
STARTCHAR 0x2460
ENCODING 9312
SWIDTH 857 0
DWIDTH 12 0
BBX 12 13 0 -2
BITMAP
0000
0800
0800
7EC0
0820
0800
3800
4800
4840
3840
0840
0780
0000
ENDCHAR
STARTCHAR 0x2461
ENCODING 9313
SWIDTH 857 0
DWIDTH 12 0
BBX 12 13 0 -2
BITMAP
0000
0200
0200
2200
2F80
1240
3220
5420
4C20
4820
3040
0180
0000
ENDCHAR
STARTCHAR 0x2462
ENCODING 9314
SWIDTH 857 0
DWIDTH 12 0
BBX 12 13 0 -2
BITMAP
0000
0800
0800
7F80
0800
0800
7F80
1000
1040
1040
0880
0700
0000
ENDCHAR
STARTCHAR 0x2463
ENCODING 9315
SWIDTH 857 0
DWIDTH 12 0
BBX 12 13 0 -2
BITMAP
0000
0000
0000
0000
0200
1200
1700
3A80
0880
0900
0400
0400
0000
ENDCHAR
STARTCHAR 0x2464
ENCODING 9316
SWIDTH 857 0
DWIDTH 12 0
BBX 12 13 0 -2
BITMAP
0000
0100
1100
11C0
1720
1920
6820
04C0
0400
0400
0200
0200
0000
ENDCHAR
STARTCHAR 0x2465
ENCODING 9317
SWIDTH 857 0
DWIDTH 12 0
BBX 12 13 0 -2
BITMAP
0000
0000
0000
0000
0200
2200
2780
2940
3140
1780
1100
0200
0000
ENDCHAR
STARTCHAR 0x2466
ENCODING 9318
SWIDTH 857 0
DWIDTH 12 0
BBX 12 13 0 -2
BITMAP
0000
0100
0100
47C0
4920
5120
5120
2120
27C0
2100
0100
0600
0000
ENDCHAR
STARTCHAR 0x2467
ENCODING 9319
SWIDTH 857 0
DWIDTH 12 0
BBX 12 13 0 -2
BITMAP
0000
0000
0000
0000
0200
0200
0380
0200
0E00
1300
1280
0C00
0000
ENDCHAR
STARTCHAR 0x2468
ENCODING 9320
SWIDTH 857 0
DWIDTH 12 0
BBX 12 13 0 -2
BITMAP
0000
0400
0400
0400
0780
0400
0400
0400
3C00
4700
4480
3800
0000
ENDCHAR
STARTCHAR 0x2469
ENCODING 9321
SWIDTH 857 0
DWIDTH 12 0
BBX 12 13 0 -2
BITMAP
0000
0C00
0300
0000
2000
2000
2700
3880
0040
0040
0180
0E00
0000
ENDCHAR
STARTCHAR 0x246A
ENCODING 9322
SWIDTH 857 0
DWIDTH 12 0
BBX 12 13 0 -2
BITMAP
0000
0000
1080
1080
1080
1080
1080
1480
0880
0080
0100
0600
0000
ENDCHAR
STARTCHAR 0x246B
ENCODING 9323
SWIDTH 857 0
DWIDTH 12 0
BBX 12 13 0 -2
BITMAP
0000
0000
1F80
0100
0200
0700
1880
2040
0C40
1240
1280
0F00
0000
ENDCHAR
STARTCHAR 0x246C
ENCODING 9324
SWIDTH 857 0
DWIDTH 12 0
BBX 12 13 0 -2
BITMAP
0000
1000
1000
1000
7380
1440
1840
1040
3080
5080
1080
1060
0000
ENDCHAR
STARTCHAR 0x246D
ENCODING 9325
SWIDTH 857 0
DWIDTH 12 0
BBX 12 13 0 -2
BITMAP
0000
0000
1F80
0100
0200
0700
1880
2040
0040
0040
0180
0E00
0000
ENDCHAR
STARTCHAR 0x246E
ENCODING 9326
SWIDTH 857 0
DWIDTH 12 0
BBX 12 13 0 -2
BITMAP
0000
0000
0000
0000
0800
0800
3B00
0C80
0880
1880
2880
0B00
0000
ENDCHAR
STARTCHAR 0x246F
ENCODING 9327
SWIDTH 857 0
DWIDTH 12 0
BBX 12 13 0 -2
BITMAP
0000
1000
1000
1000
7380
1440
1820
1020
3020
5020
1040
1180
0000
ENDCHAR
STARTCHAR 0x2470
ENCODING 9328
SWIDTH 857 0
DWIDTH 12 0
BBX 12 13 0 -2
BITMAP
0000
0000
3E00
0200
0380
1C40
2420
4420
48E0
4920
3120
00C0
0000
ENDCHAR
STARTCHAR 0x2471
ENCODING 9329
SWIDTH 857 0
DWIDTH 12 0
BBX 12 13 0 -2
BITMAP
0000
3FC0
0100
0200
0F80
3040
0E40
1180
1F00
0800
39C0
4620
0000
ENDCHAR
STARTCHAR 0x2472
ENCODING 9330
SWIDTH 857 0
DWIDTH 12 0
BBX 12 13 0 -2
BITMAP
0000
0800
0800
7F80
1000
1C00
22C0
4700
4A00
1200
1000
0F80
0000
ENDCHAR
STARTCHAR 0x2473
ENCODING 9331
SWIDTH 857 0
DWIDTH 12 0
BBX 12 13 0 -2
BITMAP
0000
0000
0400
0400
0800
0800
1600
1900
2100
2120
4120
40C0
0000
ENDCHAR
STARTCHAR 0x2474
ENCODING 9332
SWIDTH 857 0
DWIDTH 12 0
BBX 12 13 0 -2
BITMAP
0080
3040
0D00
0080
1C00
6200
0100
0100
0100
0200
0C00
3000
0000
ENDCHAR
STARTCHAR 0x2521
ENCODING 9505
SWIDTH 857 0
DWIDTH 12 0
BBX 12 13 0 -2
BITMAP
0000
0000
0000
0000
0000
3F80
0080
0480
0500
0400
0800
1000
0000
ENDCHAR
STARTCHAR 0x2522
ENCODING 9506
SWIDTH 857 0
DWIDTH 12 0
BBX 12 13 0 -2
BITMAP
0000
0000
7FE0
0020
0040
0480
0400
0400
0400
0400
0800
3000
0000
ENDCHAR
STARTCHAR 0x2523
ENCODING 9507
SWIDTH 857 0
DWIDTH 12 0
BBX 12 13 0 -2
BITMAP
0000
0000
0000
0000
0000
0080
0100
0600
1A00
0200
0200
0200
0000
ENDCHAR
STARTCHAR 0x2524
ENCODING 9508
SWIDTH 857 0
DWIDTH 12 0
BBX 12 13 0 -2
BITMAP
0000
0000
0040
0080
0100
0600
1A00
6200
0200
0200
0200
0200
0000
ENDCHAR
STARTCHAR 0x2525
ENCODING 9509
SWIDTH 857 0
DWIDTH 12 0
BBX 12 13 0 -2
BITMAP
0000
0000
0000
0000
0400
0400
3F80
2080
2080
0080
0100
0E00
0000
ENDCHAR
STARTCHAR 0x2526
ENCODING 9510
SWIDTH 857 0
DWIDTH 12 0
BBX 12 13 0 -2
BITMAP
0000
0400
0400
7FC0
4040
4040
4040
0080
0080
0100
0600
1800
0000
ENDCHAR
STARTCHAR 0x2527
ENCODING 9511
SWIDTH 857 0
DWIDTH 12 0
BBX 12 13 0 -2
BITMAP
0000
0000
0000
0000
0000
3F80
0400
0400
0400
0400
3F80
0000
0000
ENDCHAR
STARTCHAR 0x2528
ENCODING 9512
SWIDTH 857 0
DWIDTH 12 0
BBX 12 13 0 -2
BITMAP
0000
0000
0000
7FC0
0400
0400
0400
0400
0400
0400
FFE0
0000
0000
ENDCHAR
STARTCHAR 0x2529
ENCODING 9513
SWIDTH 857 0
DWIDTH 12 0
BBX 12 13 0 -2
BITMAP
0000
0000
0000
0000
0200
0200
3F80
0200
0600
0A00
3200
0600
0000
ENDCHAR
STARTCHAR 0x252A
ENCODING 9514
SWIDTH 857 0
DWIDTH 12 0
BBX 12 13 0 -2
BITMAP
0000
0100
0100
0100
7FE0
0100
0300
0500
1900
6100
0100
0700
0000
ENDCHAR
STARTCHAR 0x252B
ENCODING 9515
SWIDTH 857 0
DWIDTH 12 0
BBX 12 13 0 -2
BITMAP
0000
0400
0400
0400
7FE0
0420
0420
0420
0820
0820
1020
61C0
0000
ENDCHAR
STARTCHAR 0x252C
ENCODING 9516
SWIDTH 857 0
DWIDTH 12 0
BBX 12 13 0 -2
BITMAP
0040
0920
0880
0800
FFC0
0840
0840
0840
1040
1040
2040
C380
0000
ENDCHAR
STARTCHAR 0x252D
ENCODING 9517
SWIDTH 857 0
DWIDTH 12 0
BBX 12 13 0 -2
BITMAP
0000
0400
0400
0400
7FC0
0400
0400
0400
7FE0
0200
0200
0200
0000
ENDCHAR
STARTCHAR 0x252E
ENCODING 9518
SWIDTH 857 0
DWIDTH 12 0
BBX 12 13 0 -2
BITMAP
0000
0840
0920
0880
FF00
0800
0800
0800
FFC0
0400
0400
0400
0000
ENDCHAR
STARTCHAR 0x252F
ENCODING 9519
SWIDTH 857 0
DWIDTH 12 0
BBX 12 13 0 -2
BITMAP
0000
0400
0400
07C0
0840
1040
2040
0080
0080
0100
0600
3800
0000
ENDCHAR
STARTCHAR 0x2530
ENCODING 9520
SWIDTH 857 0
DWIDTH 12 0
BBX 12 13 0 -2
BITMAP
0040
0920
0880
0F80
1080
2080
4080
0100
0100
0200
0C00
7000
0000
ENDCHAR
STARTCHAR 0x2531
ENCODING 9521
SWIDTH 857 0
DWIDTH 12 0
BBX 12 13 0 -2
BITMAP
0000
1000
1000
1000
1FE0
2100
4100
0100
0200
0200
0C00
3000
0000
ENDCHAR
STARTCHAR 0x2532
ENCODING 9522
SWIDTH 857 0
DWIDTH 12 0
BBX 12 13 0 -2
BITMAP
0040
2120
2080
2000
3FC0
4200
8200
0200
0400
0400
1800
6000
0000
ENDCHAR
STARTCHAR 0x2533
ENCODING 9523
SWIDTH 857 0
DWIDTH 12 0
BBX 12 13 0 -2
BITMAP
0000
0000
0000
7FC0
0040
0040
0040
0040
0040
0040
7FC0
0040
0000
ENDCHAR
STARTCHAR 0x2534
ENCODING 9524
SWIDTH 857 0
DWIDTH 12 0
BBX 12 13 0 -2
BITMAP
0040
0220
0100
7FC0
0040
0040
0040
0040
0040
0040
7FC0
0040
0000
ENDCHAR
STARTCHAR 0x2535
ENCODING 9525
SWIDTH 857 0
DWIDTH 12 0
BBX 12 13 0 -2
BITMAP
0000
1080
1080
1080
7FE0
1080
1080
1080
0100
0100
0600
1800
0000
ENDCHAR
STARTCHAR 0x2536
ENCODING 9526
SWIDTH 857 0
DWIDTH 12 0
BBX 12 13 0 -2
BITMAP
0000
2140
2120
2180
FF40
2100
2100
2100
0200
0200
0C00
3000
0000
ENDCHAR
STARTCHAR 0x2537
ENCODING 9527
SWIDTH 857 0
DWIDTH 12 0
BBX 12 13 0 -2
BITMAP
0000
0000
3000
0C00
0020
6020
1840
0040
0080
0100
0600
3800
0000
ENDCHAR
STARTCHAR 0x2538
ENCODING 9528
SWIDTH 857 0
DWIDTH 12 0
BBX 12 13 0 -2
BITMAP
0040
0120
3080
0C00
0020
6020
1840
0040
0080
0100
0600
3800
0000
ENDCHAR
STARTCHAR 0x2539
ENCODING 9529
SWIDTH 857 0
DWIDTH 12 0
BBX 12 13 0 -2
BITMAP
0000
0000
3F80
0080
0080
0080
0100
0100
0300
0480
1840
6020
0000
ENDCHAR
STARTCHAR 0x253A
ENCODING 9530
SWIDTH 857 0
DWIDTH 12 0
BBX 12 13 0 -2
BITMAP
0240
0120
7F00
0100
0100
0100
0200
0200
0600
0900
3080
C040
0000
ENDCHAR
STARTCHAR 0x253B
ENCODING 9531
SWIDTH 857 0
DWIDTH 12 0
BBX 12 13 0 -2
BITMAP
0000
0800
0800
08E0
0B20
1C40
E840
0880
0800
0800
0800
07E0
0000
ENDCHAR
STARTCHAR 0x253C
ENCODING 9532
SWIDTH 857 0
DWIDTH 12 0
BBX 12 13 0 -2
BITMAP
0040
0920
0880
08E0
0B20
1C40
E840
0880
0800
0800
0800
07E0
0000
ENDCHAR
STARTCHAR 0x253D
ENCODING 9533
SWIDTH 857 0
DWIDTH 12 0
BBX 12 13 0 -2
BITMAP
0000
0000
4040
4040
2040
2040
0040
0080
0080
0100
0600
1800
0000
ENDCHAR
STARTCHAR 0x253E
ENCODING 9534
SWIDTH 857 0
DWIDTH 12 0
BBX 12 13 0 -2
BITMAP
0040
0120
8080
8000
4080
4080
0080
0100
0100
0200
0C00
3000
0000
ENDCHAR
STARTCHAR 0x253F
ENCODING 9535
SWIDTH 857 0
DWIDTH 12 0
BBX 12 13 0 -2
BITMAP
0000
0400
0400
07C0
0840
1040
2640
0180
0080
0100
0600
3800
0000
ENDCHAR
STARTCHAR 0x2540
ENCODING 9536
SWIDTH 857 0
DWIDTH 12 0
BBX 12 13 0 -2
BITMAP
0040
0920
0880
0F80
1080
2080
4C80
0300
0100
0200
0C00
7000
0000
ENDCHAR
STARTCHAR 0x2541
ENCODING 9537
SWIDTH 857 0
DWIDTH 12 0
BBX 12 13 0 -2
BITMAP
0000
0000
03C0
7C00
0400
0400
FFE0
0400
0400
0400
0800
3000
0000
ENDCHAR
STARTCHAR 0x2542
ENCODING 9538
SWIDTH 857 0
DWIDTH 12 0
BBX 12 13 0 -2
BITMAP
0000
0040
0320
7C80
0400
0400
FFE0
0400
0400
0400
0800
3000
0000
ENDCHAR
STARTCHAR 0x2543
ENCODING 9539
SWIDTH 857 0
DWIDTH 12 0
BBX 12 13 0 -2
BITMAP
0000
0000
0000
0000
0000
2480
2480
2480
0100
0100
0600
1800
0000
ENDCHAR
STARTCHAR 0x2544
ENCODING 9540
SWIDTH 857 0
DWIDTH 12 0
BBX 12 13 0 -2
BITMAP
0000
0000
4840
4840
2440
2440
0040
0080
0080
0100
0600
1800
0000
ENDCHAR
STARTCHAR 0x2545
ENCODING 9541
SWIDTH 857 0
DWIDTH 12 0
BBX 12 13 0 -2
BITMAP
0040
0120
9080
9000
4880
4880
0080
0100
0100
0200
0C00
3000
0000
ENDCHAR
STARTCHAR 0x2546
ENCODING 9542
SWIDTH 857 0
DWIDTH 12 0
BBX 12 13 0 -2
BITMAP
0000
0000
3FC0
0000
0000
7FE0
0200
0200
0200
0200
0400
1800
0000
ENDCHAR
STARTCHAR 0x2547
ENCODING 9543
SWIDTH 857 0
DWIDTH 12 0
BBX 12 13 0 -2
BITMAP
0040
0120
7E80
0000
0000
FFC0
0400
0400
0400
0400
0800
3000
0000
ENDCHAR
STARTCHAR 0x2548
ENCODING 9544
SWIDTH 857 0
DWIDTH 12 0
BBX 12 13 0 -2
BITMAP
0000
1000
1000
1000
1000
1C00
1300
10C0
1000
1000
1000
1000
0000
ENDCHAR
STARTCHAR 0x2549
ENCODING 9545
SWIDTH 857 0
DWIDTH 12 0
BBX 12 13 0 -2
BITMAP
0000
2080
2240
2100
2000
3800
2600
2180
2000
2000
2000
2000
0000
ENDCHAR
STARTCHAR 0x254A
ENCODING 9546
SWIDTH 857 0
DWIDTH 12 0
BBX 12 13 0 -2
BITMAP
0000
0200
0200
0200
7FE0
0200
0200
0200
0400
0400
0800
3000
0000
ENDCHAR
STARTCHAR 0x254B
ENCODING 9547
SWIDTH 857 0
DWIDTH 12 0
BBX 12 13 0 -2
BITMAP
0000
0000
0000
3FC0
0000
0000
0000
0000
0000
0000
7FE0
0000
0000
ENDCHAR
STARTCHAR 0x254C
ENCODING 9548
SWIDTH 857 0
DWIDTH 12 0
BBX 12 13 0 -2
BITMAP
0000
0000
3FC0
0040
0040
0880
0480
0300
0100
0280
0C40
7000
0000
ENDCHAR
STARTCHAR 0x254D
ENCODING 9549
SWIDTH 857 0
DWIDTH 12 0
BBX 12 13 0 -2
BITMAP
0000
0400
0400
7F80
0080
0100
0200
0600
1D80
E460
0400
0400
0000
ENDCHAR
STARTCHAR 0x254E
ENCODING 9550
SWIDTH 857 0
DWIDTH 12 0
BBX 12 13 0 -2
BITMAP
0000
0000
0080
0080
0080
0080
0080
0100
0100
0200
0C00
3000
0000
ENDCHAR
STARTCHAR 0x254F
ENCODING 9551
SWIDTH 857 0
DWIDTH 12 0
BBX 12 13 0 -2
BITMAP
0000
0000
1000
1080
1080
1040
2040
2040
2020
4020
4020
4020
0000
ENDCHAR
STARTCHAR 0x2550
ENCODING 9552
SWIDTH 857 0
DWIDTH 12 0
BBX 12 13 0 -2
BITMAP
0000
0040
0120
1080
1000
1000
1080
2080
2040
2040
4020
4020
0000
ENDCHAR
STARTCHAR 0x2551
ENCODING 9553
SWIDTH 857 0
DWIDTH 12 0
BBX 12 13 0 -2
BITMAP
0000
00C0
0120
1120
10C0
1000
1080
2080
2040
2040
4020
4020
0000
ENDCHAR
STARTCHAR 0x2552
ENCODING 9554
SWIDTH 857 0
DWIDTH 12 0
BBX 12 13 0 -2
BITMAP
0000
2000
2000
2000
21C0
3E00
2000
2000
2000
2000
2000
1FC0
0000
ENDCHAR
STARTCHAR 0x2553
ENCODING 9555
SWIDTH 857 0
DWIDTH 12 0
BBX 12 13 0 -2
BITMAP
0000
0040
2120
2080
2000
21C0
3E00
2000
2000
2000
2000
1FC0
0000
ENDCHAR
STARTCHAR 0x2554
ENCODING 9556
SWIDTH 857 0
DWIDTH 12 0
BBX 12 13 0 -2
BITMAP
0000
00C0
4120
4120
40C0
4600
7800
4000
4000
4000
4000
3F80
0000
ENDCHAR
STARTCHAR 0x2555
ENCODING 9557
SWIDTH 857 0
DWIDTH 12 0
BBX 12 13 0 -2
BITMAP
0000
0000
7FC0
0040
0040
0040
0040
0080
0080
0100
0600
3800
0000
ENDCHAR
STARTCHAR 0x2556
ENCODING 9558
SWIDTH 857 0
DWIDTH 12 0
BBX 12 13 0 -2
BITMAP
0040
0220
0100
FF80
0080
0080
0080
0100
0100
0200
0C00
3000
0000
ENDCHAR
STARTCHAR 0x2557
ENCODING 9559
SWIDTH 857 0
DWIDTH 12 0
BBX 12 13 0 -2
BITMAP
00C0
0120
FF20
00C0
0080
0080
0080
0100
0100
0200
0C00
3000
0000
ENDCHAR
STARTCHAR 0x2558
ENCODING 9560
SWIDTH 857 0
DWIDTH 12 0
BBX 12 13 0 -2
BITMAP
0000
0000
0000
0000
1C00
2200
4100
8080
0040
0020
0000
0000
0000
ENDCHAR
STARTCHAR 0x2559
ENCODING 9561
SWIDTH 857 0
DWIDTH 12 0
BBX 12 13 0 -2
BITMAP
0000
0040
0120
0080
0000
1C00
2200
4100
8080
0040
0020
0000
0000
ENDCHAR
STARTCHAR 0x255A
ENCODING 9562
SWIDTH 857 0
DWIDTH 12 0
BBX 12 13 0 -2
BITMAP
0000
00C0
0120
0120
00C0
1C00
2200
4100
8080
0040
0020
0000
0000
ENDCHAR
STARTCHAR 0x255B
ENCODING 9563
SWIDTH 857 0
DWIDTH 12 0
BBX 12 13 0 -2
BITMAP
0000
0400
0400
0400
FFE0
0400
0400
2480
4440
8420
0400
0C00
0000
ENDCHAR
STARTCHAR 0x255C
ENCODING 9564
SWIDTH 857 0
DWIDTH 12 0
BBX 12 13 0 -2
BITMAP
0040
0520
0480
0400
FFE0
0400
0400
2480
4440
8420
0400
0C00
0000
ENDCHAR
STARTCHAR 0x255D
ENCODING 9565
SWIDTH 857 0
DWIDTH 12 0
BBX 12 13 0 -2
BITMAP
0000
04C0
0520
0520
FFC0
0400
0400
2480
4440
8420
0400
0C00
0000
ENDCHAR
STARTCHAR 0x255E
ENCODING 9566
SWIDTH 857 0
DWIDTH 12 0
BBX 12 13 0 -2
BITMAP
0000
0000
0000
7FE0
0020
0040
0080
1100
0A00
0400
0200
0100
0000
ENDCHAR
STARTCHAR 0x255F
ENCODING 9567
SWIDTH 857 0
DWIDTH 12 0
BBX 12 13 0 -2
BITMAP
0000
0000
1C00
0380
0000
0000
1C00
0300
0000
0000
3C00
0380
0000
ENDCHAR
STARTCHAR 0x2560
ENCODING 9568
SWIDTH 857 0
DWIDTH 12 0
BBX 12 13 0 -2
BITMAP
0000
0800
0800
0800
0800
1000
1080
1080
2080
2740
F840
0040
0000
ENDCHAR
STARTCHAR 0x2561
ENCODING 9569
SWIDTH 857 0
DWIDTH 12 0
BBX 12 13 0 -2
BITMAP
0000
0100
0100
0100
0100
3100
0E00
0380
0260
0400
1800
6000
0000
ENDCHAR
STARTCHAR 0x2562
ENCODING 9570
SWIDTH 857 0
DWIDTH 12 0
BBX 12 13 0 -2
BITMAP
0000
0000
7F80
0800
0800
0800
FFE0
0800
0800
0800
0800
0780
0000
ENDCHAR
STARTCHAR 0x2563
ENCODING 9571
SWIDTH 857 0
DWIDTH 12 0
BBX 12 13 0 -2
BITMAP
0000
0000
0000
0000
0800
0800
0B80
3C80
0900
0500
0400
0400
0000
ENDCHAR
STARTCHAR 0x2564
ENCODING 9572
SWIDTH 857 0
DWIDTH 12 0
BBX 12 13 0 -2
BITMAP
0000
1000
1000
11C0
1E40
E840
0880
0880
0800
0400
0400
0400
0000
ENDCHAR
STARTCHAR 0x2565
ENCODING 9573
SWIDTH 857 0
DWIDTH 12 0
BBX 12 13 0 -2
BITMAP
0000
0000
0000
0000
0000
3E00
0200
0200
0200
0200
7F80
0000
0000
ENDCHAR
STARTCHAR 0x2566
ENCODING 9574
SWIDTH 857 0
DWIDTH 12 0
BBX 12 13 0 -2
BITMAP
0000
0000
0000
3F00
0100
0100
0100
0100
0100
0100
FFE0
0000
0000
ENDCHAR
STARTCHAR 0x2567
ENCODING 9575
SWIDTH 857 0
DWIDTH 12 0
BBX 12 13 0 -2
BITMAP
0000
0000
0000
0000
0000
1F80
0080
0080
1F80
0080
0080
1F80
0000
ENDCHAR
STARTCHAR 0x2568
ENCODING 9576
SWIDTH 857 0
DWIDTH 12 0
BBX 12 13 0 -2
BITMAP
0000
0000
3FC0
0040
0040
0040
3FC0
0040
0040
0040
3FC0
0040
0000
ENDCHAR
STARTCHAR 0x2569
ENCODING 9577
SWIDTH 857 0
DWIDTH 12 0
BBX 12 13 0 -2
BITMAP
0000
0000
3F80
0000
0000
7FC0
0040
0040
0080
0100
0600
1800
0000
ENDCHAR
STARTCHAR 0x256A
ENCODING 9578
SWIDTH 857 0
DWIDTH 12 0
BBX 12 13 0 -2
BITMAP
0000
2080
2080
2080
2080
2080
2080
0080
0100
0100
0200
0C00
0000
ENDCHAR
STARTCHAR 0x256B
ENCODING 9579
SWIDTH 857 0
DWIDTH 12 0
BBX 12 13 0 -2
BITMAP
0000
0200
1200
1200
1200
1200
1220
1220
2240
2240
4280
4300
0000
ENDCHAR
STARTCHAR 0x256C
ENCODING 9580
SWIDTH 857 0
DWIDTH 12 0
BBX 12 13 0 -2
BITMAP
0000
0000
2000
2000
2000
2000
2000
2040
2080
2100
2600
3800
0000
ENDCHAR
STARTCHAR 0x256D
ENCODING 9581
SWIDTH 857 0
DWIDTH 12 0
BBX 12 13 0 -2
BITMAP
0000
0000
0000
7FC0
4040
4040
4040
4040
4040
4040
7FC0
4040
0000
ENDCHAR
STARTCHAR 0x256E
ENCODING 9582
SWIDTH 857 0
DWIDTH 12 0
BBX 12 13 0 -2
BITMAP
0000
0000
0000
0000
0000
3F80
2080
2080
0080
0080
0100
0E00
0000
ENDCHAR
STARTCHAR 0x256F
ENCODING 9583
SWIDTH 857 0
DWIDTH 12 0
BBX 12 13 0 -2
BITMAP
0000
0000
7FC0
4040
4040
4040
0040
0080
0080
0100
0600
1800
0000
ENDCHAR
STARTCHAR 0x2570
ENCODING 9584
SWIDTH 857 0
DWIDTH 12 0
BBX 12 13 0 -2
BITMAP
0000
0100
0100
0100
3FC0
1100
1100
1100
7FE0
0100
0100
0100
0000
ENDCHAR
STARTCHAR 0x2571
ENCODING 9585
SWIDTH 857 0
DWIDTH 12 0
BBX 12 13 0 -2
BITMAP
0000
0000
0000
3FC0
0080
0100
0600
0400
0400
0400
7FE0
0000
0000
ENDCHAR
STARTCHAR 0x2572
ENCODING 9586
SWIDTH 857 0
DWIDTH 12 0
BBX 12 13 0 -2
BITMAP
0000
0000
3FC0
0040
0040
3FC0
0040
0080
0080
0100
0600
1800
0000
ENDCHAR
STARTCHAR 0x2573
ENCODING 9587
SWIDTH 857 0
DWIDTH 12 0
BBX 12 13 0 -2
BITMAP
0000
0000
3000
0C00
0020
0020
0040
0040
0080
0100
0600
3800
0000
ENDCHAR
STARTCHAR 0x2574
ENCODING 9588
SWIDTH 857 0
DWIDTH 12 0
BBX 12 13 0 -2
BITMAP
0040
0520
0480
7FC0
4040
4040
4040
0080
0080
0100
0600
1800
0000
ENDCHAR
STARTCHAR 0x2575
ENCODING 9589
SWIDTH 857 0
DWIDTH 12 0
BBX 12 13 0 -2
BITMAP
0000
0000
0000
0000
0800
0800
3F80
0880
0880
0880
1080
1300
0000
ENDCHAR
STARTCHAR 0x2576
ENCODING 9590
SWIDTH 857 0
DWIDTH 12 0
BBX 12 13 0 -2
BITMAP
0000
0000
0000
0000
1000
1000
1F80
2200
2200
0200
0400
1800
0000
ENDCHAR
STARTCHAR 0x2621
ENCODING 9761
SWIDTH 857 0
DWIDTH 12 0
BBX 12 13 0 -2
BITMAP
0000
1C00
0400
0A00
0A00
1100
1100
1F00
2080
2080
F1E0
0000
0000
ENDCHAR
STARTCHAR 0x2622
ENCODING 9762
SWIDTH 857 0
DWIDTH 12 0
BBX 12 13 0 -2
BITMAP
0000
7F00
1080
1080
1080
1F00
1080
1040
1040
1080
7F00
0000
0000
ENDCHAR
STARTCHAR 0x2623
ENCODING 9763
SWIDTH 857 0
DWIDTH 12 0
BBX 12 13 0 -2
BITMAP
0000
3FC0
0840
0840
0800
0800
0800
0800
0800
0800
3E00
0000
0000
ENDCHAR
STARTCHAR 0x2624
ENCODING 9764
SWIDTH 857 0
DWIDTH 12 0
BBX 12 13 0 -2
BITMAP
0000
0400
0400
0A00
0A00
1100
1100
2080
2080
4040
7FC0
0000
0000
ENDCHAR
STARTCHAR 0x2625
ENCODING 9765
SWIDTH 857 0
DWIDTH 12 0
BBX 12 13 0 -2
BITMAP
0000
3FC0
0840
0800
0900
0F00
0900
0800
0840
0840
3FC0
0000
0000
ENDCHAR
STARTCHAR 0x2626
ENCODING 9766
SWIDTH 857 0
DWIDTH 12 0
BBX 12 13 0 -2
BITMAP
0000
3F80
2080
2100
0200
0400
0800
1000
2080
2080
3F80
0000
0000
ENDCHAR
STARTCHAR 0x2627
ENCODING 9767
SWIDTH 857 0
DWIDTH 12 0
BBX 12 13 0 -2
BITMAP
0000
79E0
1080
1080
1080
1F80
1080
1080
1080
1080
79E0
0000
0000
ENDCHAR
STARTCHAR 0x2628
ENCODING 9768
SWIDTH 857 0
DWIDTH 12 0
BBX 12 13 0 -2
BITMAP
0000
1F80
2040
4020
50A0
5FA0
50A0
4020
4020
2040
1F80
0000
0000
ENDCHAR
STARTCHAR 0x2629
ENCODING 9769
SWIDTH 857 0
DWIDTH 12 0
BBX 12 13 0 -2
BITMAP
0000
1F00
0400
0400
0400
0400
0400
0400
0400
0400
1F00
0000
0000
ENDCHAR
STARTCHAR 0x262A
ENCODING 9770
SWIDTH 857 0
DWIDTH 12 0
BBX 12 13 0 -2
BITMAP
0000
79E0
1080
1100
1200
1400
1C00
1200
1100
1080
79E0
0000
0000
ENDCHAR
STARTCHAR 0x262B
ENCODING 9771
SWIDTH 857 0
DWIDTH 12 0
BBX 12 13 0 -2
BITMAP
0000
1C00
0400
0A00
0A00
1100
1100
1100
2080
2080
F1E0
0000
0000
ENDCHAR
STARTCHAR 0x262C
ENCODING 9772
SWIDTH 857 0
DWIDTH 12 0
BBX 12 13 0 -2
BITMAP
0000
F1E0
3180
3180
2A80
2A80
2A80
2480
2480
2480
F1E0
0000
0000
ENDCHAR
STARTCHAR 0x262D
ENCODING 9773
SWIDTH 857 0
DWIDTH 12 0
BBX 12 13 0 -2
BITMAP
0000
79E0
1880
1480
1480
1280
1280
1180
1180
1080
7880
0000
0000
ENDCHAR
STARTCHAR 0x262E
ENCODING 9774
SWIDTH 857 0
DWIDTH 12 0
BBX 12 13 0 -2
BITMAP
0000
1FE0
2040
0000
1080
1F00
2100
0000
4080
8100
FF00
0000
0000
ENDCHAR
STARTCHAR 0x262F
ENCODING 9775
SWIDTH 857 0
DWIDTH 12 0
BBX 12 13 0 -2
BITMAP
0000
1F00
2080
4040
4040
4040
4040
4040
4040
2080
1F00
0000
0000
ENDCHAR
STARTCHAR 0x2630
ENCODING 9776
SWIDTH 857 0
DWIDTH 12 0
BBX 12 13 0 -2
BITMAP
0000
3FC0
1080
1080
1080
1080
1080
1080
1080
1080
79E0
0000
0000
ENDCHAR
STARTCHAR 0x2631
ENCODING 9777
SWIDTH 857 0
DWIDTH 12 0
BBX 12 13 0 -2
BITMAP
0000
7F00
1080
1040
1040
1080
1F00
1000
1000
1000
7800
0000
0000
ENDCHAR
STARTCHAR 0x2632
ENCODING 9778
SWIDTH 857 0
DWIDTH 12 0
BBX 12 13 0 -2
BITMAP
0080
3F80
1080
0880
0400
0200
0400
0800
1080
2080
3F80
0080
0000
ENDCHAR
STARTCHAR 0x2633
ENCODING 9779
SWIDTH 857 0
DWIDTH 12 0
BBX 12 13 0 -2
BITMAP
0000
7FC0
4440
4440
0400
0400
0400
0400
0400
0400
1F00
0000
0000
ENDCHAR
STARTCHAR 0x2634
ENCODING 9780
SWIDTH 857 0
DWIDTH 12 0
BBX 12 13 0 -2
BITMAP
0000
3180
4A40
8420
0400
0400
0400
0400
0400
0400
1F00
0000
0000
ENDCHAR
STARTCHAR 0x2635
ENCODING 9781
SWIDTH 857 0
DWIDTH 12 0
BBX 12 13 0 -2
BITMAP
0000
1F00
0400
1F00
2480
4440
4440
2480
1F00
0400
1F00
0000
0000
ENDCHAR
STARTCHAR 0x2636
ENCODING 9782
SWIDTH 857 0
DWIDTH 12 0
BBX 12 13 0 -2
BITMAP
0000
7BC0
1100
1100
0A00
0400
0400
0A00
1100
1100
7BC0
0000
0000
ENDCHAR
STARTCHAR 0x2637
ENCODING 9783
SWIDTH 857 0
DWIDTH 12 0
BBX 12 13 0 -2
BITMAP
0000
1F00
0400
4440
A4A0
2480
2480
1F00
0400
0400
1F00
0000
0000
ENDCHAR
STARTCHAR 0x2638
ENCODING 9784
SWIDTH 857 0
DWIDTH 12 0
BBX 12 13 0 -2
BITMAP
0000
0F00
1080
2040
2040
2040
2040
1080
0900
2940
39C0
0000
0000
ENDCHAR
STARTCHAR 0x2641
ENCODING 9793
SWIDTH 857 0
DWIDTH 12 0
BBX 12 13 0 -2
BITMAP
0000
0000
0000
0000
0C40
3280
2100
4100
4200
4600
3980
0000
0000
ENDCHAR
STARTCHAR 0x2642
ENCODING 9794
SWIDTH 857 0
DWIDTH 12 0
BBX 12 13 0 -2
BITMAP
0000
0300
0480
0880
0A80
1100
1080
1080
2880
2700
2000
2000
0000
ENDCHAR
STARTCHAR 0x2643
ENCODING 9795
SWIDTH 857 0
DWIDTH 12 0
BBX 12 13 0 -2
BITMAP
0000
0000
0000
0000
3180
0A40
0400
0400
0800
0800
1000
1000
0000
ENDCHAR
STARTCHAR 0x2644
ENCODING 9796
SWIDTH 857 0
DWIDTH 12 0
BBX 12 13 0 -2
BITMAP
0000
0600
0980
0800
0400
0A00
1100
2100
2100
2200
1C00
0000
0000
ENDCHAR
STARTCHAR 0x2645
ENCODING 9797
SWIDTH 857 0
DWIDTH 12 0
BBX 12 13 0 -2
BITMAP
0000
0000
0000
0780
0840
0800
0700
0C00
1000
1080
0F00
0000
0000
ENDCHAR
STARTCHAR 0x2646
ENCODING 9798
SWIDTH 857 0
DWIDTH 12 0
BBX 12 13 0 -2
BITMAP
0000
0800
1180
1600
0800
1000
2000
2000
1800
0600
0100
0E00
0000
ENDCHAR
STARTCHAR 0x2647
ENCODING 9799
SWIDTH 857 0
DWIDTH 12 0
BBX 12 13 0 -2
BITMAP
0000
0000
0000
3300
0C80
0880
1080
1100
2100
2200
0200
0000
0000
ENDCHAR
STARTCHAR 0x2648
ENCODING 9800
SWIDTH 857 0
DWIDTH 12 0
BBX 12 13 0 -2
BITMAP
0000
0300
0480
0880
0880
1080
1F80
1080
1100
1100
1200
0C00
0000
ENDCHAR
STARTCHAR 0x2649
ENCODING 9801
SWIDTH 857 0
DWIDTH 12 0
BBX 12 13 0 -2
BITMAP
0000
0000
0000
0800
0800
0800
1000
1080
2080
2100
1E00
0000
0000
ENDCHAR
STARTCHAR 0x264A
ENCODING 9802
SWIDTH 857 0
DWIDTH 12 0
BBX 12 13 0 -2
BITMAP
0000
0000
0000
10C0
0900
0A00
0C00
1400
1200
2280
2100
0000
0000
ENDCHAR
STARTCHAR 0x264B
ENCODING 9803
SWIDTH 857 0
DWIDTH 12 0
BBX 12 13 0 -2
BITMAP
0000
1C00
0200
0200
0200
0E00
1200
2200
2100
4100
40C0
0000
0000
ENDCHAR
STARTCHAR 0x264C
ENCODING 9804
SWIDTH 857 0
DWIDTH 12 0
BBX 12 13 0 -2
BITMAP
0000
0000
0000
0040
0840
0880
0880
1100
1300
1D00
20C0
2000
0000
ENDCHAR
STARTCHAR 0x264D
ENCODING 9805
SWIDTH 857 0
DWIDTH 12 0
BBX 12 13 0 -2
BITMAP
0000
0000
0000
0040
3040
0880
0880
0900
1100
1200
1C00
0000
0000
ENDCHAR
STARTCHAR 0x264E
ENCODING 9806
SWIDTH 857 0
DWIDTH 12 0
BBX 12 13 0 -2
BITMAP
0000
0780
0800
0F80
1000
1F80
2000
2000
1E00
0100
0100
0E00
0000
ENDCHAR
STARTCHAR 0x264F
ENCODING 9807
SWIDTH 857 0
DWIDTH 12 0
BBX 12 13 0 -2
BITMAP
0000
0000
0000
0700
1880
1080
2080
2080
2100
2300
1C00
0000
0000
ENDCHAR
STARTCHAR 0x2650
ENCODING 9808
SWIDTH 857 0
DWIDTH 12 0
BBX 12 13 0 -2
BITMAP
0000
0000
0000
0040
3F80
0900
0900
1200
1240
2440
4380
0000
0000
ENDCHAR
STARTCHAR 0x2651
ENCODING 9809
SWIDTH 857 0
DWIDTH 12 0
BBX 12 13 0 -2
BITMAP
0000
0000
0000
0380
0C40
0840
1040
1080
3180
2E00
2000
2000
0000
ENDCHAR
STARTCHAR 0x2652
ENCODING 9810
SWIDTH 857 0
DWIDTH 12 0
BBX 12 13 0 -2
BITMAP
0000
0000
0020
0FC0
3100
2100
4100
4100
4200
4600
3800
0000
0000
ENDCHAR
STARTCHAR 0x2653
ENCODING 9811
SWIDTH 857 0
DWIDTH 12 0
BBX 12 13 0 -2
BITMAP
0000
0000
0000
0040
3F80
0400
0400
0800
0840
0880
0700
0000
0000
ENDCHAR
STARTCHAR 0x2654
ENCODING 9812
SWIDTH 857 0
DWIDTH 12 0
BBX 12 13 0 -2
BITMAP
0000
0000
0000
0880
0840
0840
1080
1080
2100
2200
1C00
0000
0000
ENDCHAR
STARTCHAR 0x2655
ENCODING 9813
SWIDTH 857 0
DWIDTH 12 0
BBX 12 13 0 -2
BITMAP
0000
0200
0200
0F00
1480
2480
2480
2480
2500
1E00
0800
0800
0000
ENDCHAR
STARTCHAR 0x2656
ENCODING 9814
SWIDTH 857 0
DWIDTH 12 0
BBX 12 13 0 -2
BITMAP
0000
0000
0000
0C40
1280
0300
0200
0200
0600
0A20
1240
2180
0000
ENDCHAR
STARTCHAR 0x2657
ENCODING 9815
SWIDTH 857 0
DWIDTH 12 0
BBX 12 13 0 -2
BITMAP
0000
0100
0100
0200
6220
1240
1440
2480
2480
1F00
0800
0800
0000
ENDCHAR
STARTCHAR 0x2658
ENCODING 9816
SWIDTH 857 0
DWIDTH 12 0
BBX 12 13 0 -2
BITMAP
0000
0000
0000
0880
1040
1240
2240
2440
2440
2480
1B00
0000
0000
ENDCHAR
STARTCHAR 0x2721
ENCODING 10017
SWIDTH 857 0
DWIDTH 12 0
BBX 12 13 0 -2
BITMAP
0000
1C00
0400
0A00
0A00
1100
1100
1F00
2080
2080
F1E0
0000
0000
ENDCHAR
STARTCHAR 0x2722
ENCODING 10018
SWIDTH 857 0
DWIDTH 12 0
BBX 12 13 0 -2
BITMAP
0000
7F00
1080
1040
1000
1F00
1080
1040
1040
1080
7F00
0000
0000
ENDCHAR
STARTCHAR 0x2723
ENCODING 10019
SWIDTH 857 0
DWIDTH 12 0
BBX 12 13 0 -2
BITMAP
0000
7F00
1080
1080
1080
1F00
1080
1040
1040
1080
7F00
0000
0000
ENDCHAR
STARTCHAR 0x2724
ENCODING 10020
SWIDTH 857 0
DWIDTH 12 0
BBX 12 13 0 -2
BITMAP
0000
3FC0
0840
0840
0800
0800
0800
0800
0800
0800
3C00
0000
0000
ENDCHAR
STARTCHAR 0x2725
ENCODING 10021
SWIDTH 857 0
DWIDTH 12 0
BBX 12 13 0 -2
BITMAP
0000
3FC0
0880
0880
0880
0880
0880
1080
1080
3F80
2040
4020
0000
ENDCHAR
STARTCHAR 0x2726
ENCODING 10022
SWIDTH 857 0
DWIDTH 12 0
BBX 12 13 0 -2
BITMAP
0000
7F00
1100
1080
1200
1E00
1200
1000
1040
1080
7F80
0000
0000
ENDCHAR
STARTCHAR 0x2727
ENCODING 10023
SWIDTH 857 0
DWIDTH 12 0
BBX 12 13 0 -2
BITMAP
3180
0000
7F80
1080
1040
1200
1E00
1200
1020
1040
7FC0
0000
0000
ENDCHAR
STARTCHAR 0x2728
ENCODING 10024
SWIDTH 857 0
DWIDTH 12 0
BBX 12 13 0 -2
BITMAP
0000
1F00
4440
A4A0
2480
1F00
1500
2480
2480
4440
DF60
0000
0000
ENDCHAR
STARTCHAR 0x2729
ENCODING 10025
SWIDTH 857 0
DWIDTH 12 0
BBX 12 13 0 -2
BITMAP
0000
2F00
3080
2040
0080
0300
0080
0040
2040
3080
2F00
0000
0000
ENDCHAR
STARTCHAR 0x272A
ENCODING 10026
SWIDTH 857 0
DWIDTH 12 0
BBX 12 13 0 -2
BITMAP
0000
79E0
1180
1280
1280
1480
1480
1880
1880
1080
71E0
0000
0000
ENDCHAR
STARTCHAR 0x272B
ENCODING 10027
SWIDTH 857 0
DWIDTH 12 0
BBX 12 13 0 -2
BITMAP
0900
0600
70E0
1180
1180
1280
1280
1480
1480
1880
79E0
0000
0000
ENDCHAR
STARTCHAR 0x272C
ENCODING 10028
SWIDTH 857 0
DWIDTH 12 0
BBX 12 13 0 -2
BITMAP
0000
78C0
1120
1100
1200
1400
1C00
1200
1100
1080
79E0
0000
0000
ENDCHAR
STARTCHAR 0x272D
ENCODING 10029
SWIDTH 857 0
DWIDTH 12 0
BBX 12 13 0 -2
BITMAP
0000
1FE0
0480
0480
0480
0480
0480
4480
4480
4880
31E0
0000
0000
ENDCHAR
STARTCHAR 0x272E
ENCODING 10030
SWIDTH 857 0
DWIDTH 12 0
BBX 12 13 0 -2
BITMAP
0000
71C0
1100
1100
2A80
2A80
2A80
2480
2480
2480
F1E0
0000
0000
ENDCHAR
STARTCHAR 0x272F
ENCODING 10031
SWIDTH 857 0
DWIDTH 12 0
BBX 12 13 0 -2
BITMAP
0000
79E0
1080
1080
1080
1F80
1080
1080
1080
1080
79E0
0000
0000
ENDCHAR
STARTCHAR 0x2730
ENCODING 10032
SWIDTH 857 0
DWIDTH 12 0
BBX 12 13 0 -2
BITMAP
0000
1F00
2080
4040
4040
4040
4040
4040
4040
2080
1F00
0000
0000
ENDCHAR
STARTCHAR 0x2731
ENCODING 10033
SWIDTH 857 0
DWIDTH 12 0
BBX 12 13 0 -2
BITMAP
0000
3FC0
1080
1080
1080
1080
1080
1080
1080
1080
79E0
0000
0000
ENDCHAR
STARTCHAR 0x2732
ENCODING 10034
SWIDTH 857 0
DWIDTH 12 0
BBX 12 13 0 -2
BITMAP
0000
7F00
1080
1040
1040
1080
1F00
1000
1000
1000
7800
0000
0000
ENDCHAR
STARTCHAR 0x2733
ENCODING 10035
SWIDTH 857 0
DWIDTH 12 0
BBX 12 13 0 -2
BITMAP
0000
0F40
10C0
2040
2000
2000
2000
2000
2040
10C0
0F00
0000
0000
ENDCHAR
STARTCHAR 0x2734
ENCODING 10036
SWIDTH 857 0
DWIDTH 12 0
BBX 12 13 0 -2
BITMAP
0000
7FC0
4440
4440
8420
0400
0400
0400
0400
0400
1F00
0000
0000
ENDCHAR
STARTCHAR 0x2735
ENCODING 10037
SWIDTH 857 0
DWIDTH 12 0
BBX 12 13 0 -2
BITMAP
0000
79E0
1080
1080
0900
0900
0A00
0A00
0400
4400
4800
3000
0000
ENDCHAR
STARTCHAR 0x2736
ENCODING 10038
SWIDTH 857 0
DWIDTH 12 0
BBX 12 13 0 -2
BITMAP
0000
1F00
0400
1F00
2480
4440
4440
2480
1F00
0400
1F00
0000
0000
ENDCHAR
STARTCHAR 0x2737
ENCODING 10039
SWIDTH 857 0
DWIDTH 12 0
BBX 12 13 0 -2
BITMAP
0000
7BC0
1100
1100
0A00
0400
0400
0A00
1100
1100
7BC0
0000
0000
ENDCHAR
STARTCHAR 0x2738
ENCODING 10040
SWIDTH 857 0
DWIDTH 12 0
BBX 12 13 0 -2
BITMAP
0000
7BC0
1100
1100
1100
1100
1100
1100
1100
1100
7FC0
0020
0000
ENDCHAR
STARTCHAR 0x2739
ENCODING 10041
SWIDTH 857 0
DWIDTH 12 0
BBX 12 13 0 -2
BITMAP
0000
79E0
1080
1080
1080
1080
1180
0E80
0080
0080
01E0
0000
0000
ENDCHAR
STARTCHAR 0x273A
ENCODING 10042
SWIDTH 857 0
DWIDTH 12 0
BBX 12 13 0 -2
BITMAP
0000
EEE0
2480
2480
2480
2480
2480
2480
2480
2480
FFE0
0000
0000
ENDCHAR
STARTCHAR 0x273B
ENCODING 10043
SWIDTH 857 0
DWIDTH 12 0
BBX 12 13 0 -2
BITMAP
0000
EEE0
2480
2480
2480
2480
2480
2480
2480
2480
FFE0
0010
0000
ENDCHAR
STARTCHAR 0x273C
ENCODING 10044
SWIDTH 857 0
DWIDTH 12 0
BBX 12 13 0 -2
BITMAP
0000
7E00
4800
4800
0800
0F80
0840
0820
0820
0840
3F80
0000
0000
ENDCHAR
STARTCHAR 0x273D
ENCODING 10045
SWIDTH 857 0
DWIDTH 12 0
BBX 12 13 0 -2
BITMAP
0000
FBE0
2080
2080
2080
3C80
2280
2280
2280
2280
FDE0
0000
0000
ENDCHAR
STARTCHAR 0x273E
ENCODING 10046
SWIDTH 857 0
DWIDTH 12 0
BBX 12 13 0 -2
BITMAP
0000
7C00
1000
1000
1000
1F00
1080
1040
1040
1080
7F00
0000
0000
ENDCHAR
STARTCHAR 0x273F
ENCODING 10047
SWIDTH 857 0
DWIDTH 12 0
BBX 12 13 0 -2
BITMAP
0000
2F00
3080
2040
0040
0640
09C0
0040
2040
3080
2F00
0000
0000
ENDCHAR
STARTCHAR 0x2740
ENCODING 10048
SWIDTH 857 0
DWIDTH 12 0
BBX 12 13 0 -2
BITMAP
0000
F180
2240
2420
2420
3C20
2420
2420
2420
2240
F180
0000
0000
ENDCHAR
STARTCHAR 0x2741
ENCODING 10049
SWIDTH 857 0
DWIDTH 12 0
BBX 12 13 0 -2
BITMAP
0000
0FE0
1080
2080
2080
1080
0F80
0480
0880
1080
61E0
0000
0000
ENDCHAR
STARTCHAR 0x2751
ENCODING 10065
SWIDTH 857 0
DWIDTH 12 0
BBX 12 13 0 -2
BITMAP
0000
0000
0000
0F00
1080
0080
0780
1880
1080
1180
0EC0
0000
0000
ENDCHAR
STARTCHAR 0x2752
ENCODING 10066
SWIDTH 857 0
DWIDTH 12 0
BBX 12 13 0 -2
BITMAP
0100
0600
0800
1000
1600
1900
1080
1080
1080
0900
0600
0000
0000
ENDCHAR
STARTCHAR 0x2753
ENCODING 10067
SWIDTH 857 0
DWIDTH 12 0
BBX 12 13 0 -2
BITMAP
0000
0000
0000
3E00
1100
1100
1E00
1100
1080
1100
3E00
0000
0000
ENDCHAR
STARTCHAR 0x2754
ENCODING 10068
SWIDTH 857 0
DWIDTH 12 0
BBX 12 13 0 -2
BITMAP
0000
0000
0000
1F00
0880
0840
0800
0800
0800
0800
1E00
0000
0000
ENDCHAR
STARTCHAR 0x2755
ENCODING 10069
SWIDTH 857 0
DWIDTH 12 0
BBX 12 13 0 -2
BITMAP
0000
0000
0000
3F80
0900
0900
0900
0900
1100
1F80
2040
4040
0000
ENDCHAR
STARTCHAR 0x2756
ENCODING 10070
SWIDTH 857 0
DWIDTH 12 0
BBX 12 13 0 -2
BITMAP
0000
0000
0000
0E00
1100
2080
3F80
2000
2000
1080
0F00
0000
0000
ENDCHAR
STARTCHAR 0x2757
ENCODING 10071
SWIDTH 857 0
DWIDTH 12 0
BBX 12 13 0 -2
BITMAP
3180
0000
0000
0E00
1100
2080
3F80
2000
2000
1080
0F00
0000
0000
ENDCHAR
STARTCHAR 0x2758
ENCODING 10072
SWIDTH 857 0
DWIDTH 12 0
BBX 12 13 0 -2
BITMAP
0000
0000
0000
4E40
4440
3580
1F00
2480
2480
2480
6EC0
0000
0000
ENDCHAR
STARTCHAR 0x2759
ENCODING 10073
SWIDTH 857 0
DWIDTH 12 0
BBX 12 13 0 -2
BITMAP
0000
0000
0000
1F00
2080
0080
0700
0080
2080
3080
0F00
0000
0000
ENDCHAR
STARTCHAR 0x275A
ENCODING 10074
SWIDTH 857 0
DWIDTH 12 0
BBX 12 13 0 -2
BITMAP
0000
0000
0000
39C0
1180
1280
1280
1480
1480
1880
39C0
0000
0000
ENDCHAR
STARTCHAR 0x275B
ENCODING 10075
SWIDTH 857 0
DWIDTH 12 0
BBX 12 13 0 -2
BITMAP
0900
0600
0000
39C0
1180
1280
1280
1480
1480
1880
39C0
0000
0000
ENDCHAR
STARTCHAR 0x275C
ENCODING 10076
SWIDTH 857 0
DWIDTH 12 0
BBX 12 13 0 -2
BITMAP
0000
0000
0000
3980
1240
1200
1400
1A00
1100
1080
39C0
0000
0000
ENDCHAR
STARTCHAR 0x275D
ENCODING 10077
SWIDTH 857 0
DWIDTH 12 0
BBX 12 13 0 -2
BITMAP
0000
0000
0000
1FC0
0480
0480
0480
0480
2480
2480
19C0
0000
0000
ENDCHAR
STARTCHAR 0x275E
ENCODING 10078
SWIDTH 857 0
DWIDTH 12 0
BBX 12 13 0 -2
BITMAP
0000
0000
0000
71C0
3180
2A80
2A80
2A80
2480
2480
71C0
0000
0000
ENDCHAR
STARTCHAR 0x275F
ENCODING 10079
SWIDTH 857 0
DWIDTH 12 0
BBX 12 13 0 -2
BITMAP
0000
0000
0000
39C0
1080
1080
1F80
1080
1080
1080
39C0
0000
0000
ENDCHAR
STARTCHAR 0x2760
ENCODING 10080
SWIDTH 857 0
DWIDTH 12 0
BBX 12 13 0 -2
BITMAP
0000
0000
0000
0F00
1080
2040
2040
2040
2040
1080
0F00
0000
0000
ENDCHAR
STARTCHAR 0x2761
ENCODING 10081
SWIDTH 857 0
DWIDTH 12 0
BBX 12 13 0 -2
BITMAP
0000
0000
0000
3FC0
1080
1080
1080
1080
1080
1080
39C0
0000
0000
ENDCHAR
STARTCHAR 0x2762
ENCODING 10082
SWIDTH 857 0
DWIDTH 12 0
BBX 12 13 0 -2
BITMAP
0000
0000
0000
3700
1880
1040
1040
1040
1880
1700
1000
3800
0000
ENDCHAR
STARTCHAR 0x2763
ENCODING 10083
SWIDTH 857 0
DWIDTH 12 0
BBX 12 13 0 -2
BITMAP
0000
0000
0000
0F00
1080
2080
2000
2000
2000
1080
0F00
0000
0000
ENDCHAR
STARTCHAR 0x2764
ENCODING 10084
SWIDTH 857 0
DWIDTH 12 0
BBX 12 13 0 -2
BITMAP
0000
0000
0000
3F80
2480
4440
0400
0400
0400
0400
0E00
0000
0000
ENDCHAR
STARTCHAR 0x2765
ENCODING 10085
SWIDTH 857 0
DWIDTH 12 0
BBX 12 13 0 -2
BITMAP
0000
0000
0000
1DC0
0880
0880
0500
0500
0200
1200
1200
0C00
0000
ENDCHAR
STARTCHAR 0x2766
ENCODING 10086
SWIDTH 857 0
DWIDTH 12 0
BBX 12 13 0 -2
BITMAP
0000
0C00
0400
3580
4E40
4440
4440
4E40
3580
0400
0E00
0000
0000
ENDCHAR
STARTCHAR 0x2767
ENCODING 10087
SWIDTH 857 0
DWIDTH 12 0
BBX 12 13 0 -2
BITMAP
0000
0000
0000
3B80
1100
0A00
0400
0400
0A00
1100
3B80
0000
0000
ENDCHAR
STARTCHAR 0x2768
ENCODING 10088
SWIDTH 857 0
DWIDTH 12 0
BBX 12 13 0 -2
BITMAP
0000
0000
0000
3B80
1100
1100
1100
1100
1100
1100
3F80
0040
0000
ENDCHAR
STARTCHAR 0x2769
ENCODING 10089
SWIDTH 857 0
DWIDTH 12 0
BBX 12 13 0 -2
BITMAP
0000
0000
0000
3B80
1100
1100
1100
1300
0D00
0100
0380
0000
0000
ENDCHAR
STARTCHAR 0x276A
ENCODING 10090
SWIDTH 857 0
DWIDTH 12 0
BBX 12 13 0 -2
BITMAP
0000
0000
0000
6EC0
2480
2480
2480
2480
2480
2480
7FC0
0000
0000
ENDCHAR
STARTCHAR 0x276B
ENCODING 10091
SWIDTH 857 0
DWIDTH 12 0
BBX 12 13 0 -2
BITMAP
0000
0000
0000
6EC0
2480
2480
2480
2480
2480
2480
7FC0
0020
0000
ENDCHAR
STARTCHAR 0x276C
ENCODING 10092
SWIDTH 857 0
DWIDTH 12 0
BBX 12 13 0 -2
BITMAP
0000
0000
0000
1E00
2400
2400
0780
0440
0440
0440
1F80
0000
0000
ENDCHAR
STARTCHAR 0x276D
ENCODING 10093
SWIDTH 857 0
DWIDTH 12 0
BBX 12 13 0 -2
BITMAP
0000
0000
0000
71C0
2080
2080
3C80
2280
2280
2280
7DC0
0000
0000
ENDCHAR
STARTCHAR 0x276E
ENCODING 10094
SWIDTH 857 0
DWIDTH 12 0
BBX 12 13 0 -2
BITMAP
0000
0000
0000
1C00
0800
0800
0F00
0880
0880
0880
1F00
0000
0000
ENDCHAR
STARTCHAR 0x276F
ENCODING 10095
SWIDTH 857 0
DWIDTH 12 0
BBX 12 13 0 -2
BITMAP
0000
0000
0000
1E00
2100
0080
0C80
1380
0080
2100
1E00
0000
0000
ENDCHAR
STARTCHAR 0x2770
ENCODING 10096
SWIDTH 857 0
DWIDTH 12 0
BBX 12 13 0 -2
BITMAP
0000
0000
0000
3B80
1440
1440
1C40
1440
1440
1440
3B80
0000
0000
ENDCHAR
STARTCHAR 0x2771
ENCODING 10097
SWIDTH 857 0
DWIDTH 12 0
BBX 12 13 0 -2
BITMAP
0000
0000
0000
1F80
2100
2100
1F00
0500
0900
0900
3380
0000
0000
ENDCHAR
STARTCHAR 0x2821
ENCODING 10273
SWIDTH 857 0
DWIDTH 12 0
BBX 12 13 0 -2
BITMAP
0000
0000
0000
0000
0000
0000
FFF0
0000
0000
0000
0000
0000
0000
ENDCHAR
STARTCHAR 0x2822
ENCODING 10274
SWIDTH 857 0
DWIDTH 12 0
BBX 12 13 0 -2
BITMAP
0400
0400
0400
0400
0400
0400
0400
0400
0400
0400
0400
0400
0400
ENDCHAR
STARTCHAR 0x2823
ENCODING 10275
SWIDTH 857 0
DWIDTH 12 0
BBX 12 13 0 -2
BITMAP
0000
0000
0000
0000
0000
0000
07F0
0400
0400
0400
0400
0400
0400
ENDCHAR
STARTCHAR 0x2824
ENCODING 10276
SWIDTH 857 0
DWIDTH 12 0
BBX 12 13 0 -2
BITMAP
0000
0000
0000
0000
0000
0000
FC00
0400
0400
0400
0400
0400
0400
ENDCHAR
STARTCHAR 0x2825
ENCODING 10277
SWIDTH 857 0
DWIDTH 12 0
BBX 12 13 0 -2
BITMAP
0400
0400
0400
0400
0400
0400
FC00
0000
0000
0000
0000
0000
0000
ENDCHAR
STARTCHAR 0x2826
ENCODING 10278
SWIDTH 857 0
DWIDTH 12 0
BBX 12 13 0 -2
BITMAP
0400
0400
0400
0400
0400
0400
07F0
0000
0000
0000
0000
0000
0000
ENDCHAR
STARTCHAR 0x2827
ENCODING 10279
SWIDTH 857 0
DWIDTH 12 0
BBX 12 13 0 -2
BITMAP
0400
0400
0400
0400
0400
0400
07F0
0400
0400
0400
0400
0400
0400
ENDCHAR
STARTCHAR 0x2828
ENCODING 10280
SWIDTH 857 0
DWIDTH 12 0
BBX 12 13 0 -2
BITMAP
0000
0000
0000
0000
0000
0000
FFF0
0400
0400
0400
0400
0400
0400
ENDCHAR
STARTCHAR 0x2829
ENCODING 10281
SWIDTH 857 0
DWIDTH 12 0
BBX 12 13 0 -2
BITMAP
0400
0400
0400
0400
0400
0400
FC00
0400
0400
0400
0400
0400
0400
ENDCHAR
STARTCHAR 0x282A
ENCODING 10282
SWIDTH 857 0
DWIDTH 12 0
BBX 12 13 0 -2
BITMAP
0400
0400
0400
0400
0400
0400
FFF0
0000
0000
0000
0000
0000
0000
ENDCHAR
STARTCHAR 0x282B
ENCODING 10283
SWIDTH 857 0
DWIDTH 12 0
BBX 12 13 0 -2
BITMAP
0400
0400
0400
0400
0400
0400
FFF0
0400
0400
0400
0400
0400
0400
ENDCHAR
STARTCHAR 0x282C
ENCODING 10284
SWIDTH 857 0
DWIDTH 12 0
BBX 12 13 0 -2
BITMAP
0000
0000
0000
0000
0000
FFF0
FFF0
0000
0000
0000
0000
0000
0000
ENDCHAR
STARTCHAR 0x282D
ENCODING 10285
SWIDTH 857 0
DWIDTH 12 0
BBX 12 13 0 -2
BITMAP
0600
0600
0600
0600
0600
0600
0600
0600
0600
0600
0600
0600
0600
ENDCHAR
STARTCHAR 0x282E
ENCODING 10286
SWIDTH 857 0
DWIDTH 12 0
BBX 12 13 0 -2
BITMAP
0000
0000
0000
0000
0000
07F0
07F0
0600
0600
0600
0600
0600
0600
ENDCHAR
STARTCHAR 0x282F
ENCODING 10287
SWIDTH 857 0
DWIDTH 12 0
BBX 12 13 0 -2
BITMAP
0000
0000
0000
0000
0000
FE00
FE00
0600
0600
0600
0600
0600
0600
ENDCHAR
STARTCHAR 0x2830
ENCODING 10288
SWIDTH 857 0
DWIDTH 12 0
BBX 12 13 0 -2
BITMAP
0600
0600
0600
0600
0600
FE00
FE00
0000
0000
0000
0000
0000
0000
ENDCHAR
STARTCHAR 0x2831
ENCODING 10289
SWIDTH 857 0
DWIDTH 12 0
BBX 12 13 0 -2
BITMAP
0600
0600
0600
0600
0600
07F0
07F0
0000
0000
0000
0000
0000
0000
ENDCHAR
STARTCHAR 0x2832
ENCODING 10290
SWIDTH 857 0
DWIDTH 12 0
BBX 12 13 0 -2
BITMAP
0600
0600
0600
0600
0600
07F0
07F0
0600
0600
0600
0600
0600
0600
ENDCHAR
STARTCHAR 0x2833
ENCODING 10291
SWIDTH 857 0
DWIDTH 12 0
BBX 12 13 0 -2
BITMAP
0000
0000
0000
0000
0000
FFF0
FFF0
0600
0600
0600
0600
0600
0600
ENDCHAR
STARTCHAR 0x2834
ENCODING 10292
SWIDTH 857 0
DWIDTH 12 0
BBX 12 13 0 -2
BITMAP
0600
0600
0600
0600
0600
FE00
FE00
0600
0600
0600
0600
0600
0600
ENDCHAR
STARTCHAR 0x2835
ENCODING 10293
SWIDTH 857 0
DWIDTH 12 0
BBX 12 13 0 -2
BITMAP
0600
0600
0600
0600
0600
FFF0
FFF0
0000
0000
0000
0000
0000
0000
ENDCHAR
STARTCHAR 0x2836
ENCODING 10294
SWIDTH 857 0
DWIDTH 12 0
BBX 12 13 0 -2
BITMAP
0600
0600
0600
0600
0600
FFF0
FFF0
0600
0600
0600
0600
0600
0600
ENDCHAR
STARTCHAR 0x2837
ENCODING 10295
SWIDTH 857 0
DWIDTH 12 0
BBX 12 13 0 -2
BITMAP
0600
0600
0600
0600
0600
0600
07F0
0600
0600
0600
0600
0600
0600
ENDCHAR
STARTCHAR 0x2838
ENCODING 10296
SWIDTH 857 0
DWIDTH 12 0
BBX 12 13 0 -2
BITMAP
0000
0000
0000
0000
0000
FFF0
FFF0
0400
0400
0400
0400
0400
0400
ENDCHAR
STARTCHAR 0x2839
ENCODING 10297
SWIDTH 857 0
DWIDTH 12 0
BBX 12 13 0 -2
BITMAP
0600
0600
0600
0600
0600
0600
FE00
0600
0600
0600
0600
0600
0600
ENDCHAR
STARTCHAR 0x283A
ENCODING 10298
SWIDTH 857 0
DWIDTH 12 0
BBX 12 13 0 -2
BITMAP
0400
0400
0400
0400
0400
FFF0
FFF0
0000
0000
0000
0000
0000
0000
ENDCHAR
STARTCHAR 0x283B
ENCODING 10299
SWIDTH 857 0
DWIDTH 12 0
BBX 12 13 0 -2
BITMAP
0400
0400
0400
0400
0400
FFF0
FFF0
0400
0400
0400
0400
0400
0400
ENDCHAR
STARTCHAR 0x283C
ENCODING 10300
SWIDTH 857 0
DWIDTH 12 0
BBX 12 13 0 -2
BITMAP
0400
0400
0400
0400
0400
07F0
07F0
0400
0400
0400
0400
0400
0400
ENDCHAR
STARTCHAR 0x283D
ENCODING 10301
SWIDTH 857 0
DWIDTH 12 0
BBX 12 13 0 -2
BITMAP
0000
0000
0000
0000
0000
0000
FFF0
0600
0600
0600
0600
0600
0600
ENDCHAR
STARTCHAR 0x283E
ENCODING 10302
SWIDTH 857 0
DWIDTH 12 0
BBX 12 13 0 -2
BITMAP
0400
0400
0400
0400
0400
FC00
FC00
0400
0400
0400
0400
0400
0400
ENDCHAR
STARTCHAR 0x283F
ENCODING 10303
SWIDTH 857 0
DWIDTH 12 0
BBX 12 13 0 -2
BITMAP
0600
0600
0600
0600
0600
FFF0
0000
0000
0000
0000
0000
0000
0000
ENDCHAR
STARTCHAR 0x2840
ENCODING 10304
SWIDTH 857 0
DWIDTH 12 0
BBX 12 13 0 -2
BITMAP
0600
0600
0600
0600
0600
0600
FFF0
0600
0600
0600
0600
0600
0600
ENDCHAR
STARTCHAR 0x2D21
ENCODING 11553
SWIDTH 857 0
DWIDTH 12 0
BBX 12 13 0 -2
BITMAP
0000
0E00
3180
4440
4C40
9420
8420
8420
4440
4440
3180
0E00
0000
ENDCHAR
STARTCHAR 0x2D22
ENCODING 11554
SWIDTH 857 0
DWIDTH 12 0
BBX 12 13 0 -2
BITMAP
0000
0E00
3180
4E40
5140
8120
8620
8820
5040
5F40
3180
0E00
0000
ENDCHAR
STARTCHAR 0x2D23
ENCODING 11555
SWIDTH 857 0
DWIDTH 12 0
BBX 12 13 0 -2
BITMAP
0000
0E00
3180
4E40
5140
8120
8620
8120
5140
4E40
3180
0E00
0000
ENDCHAR
STARTCHAR 0x2D24
ENCODING 11556
SWIDTH 857 0
DWIDTH 12 0
BBX 12 13 0 -2
BITMAP
0000
0E00
3180
4640
4640
8A20
8A20
9220
5F40
4240
3180
0E00
0000
ENDCHAR
STARTCHAR 0x2D25
ENCODING 11557
SWIDTH 857 0
DWIDTH 12 0
BBX 12 13 0 -2
BITMAP
0000
0E00
3180
5F40
5040
9E20
8120
8120
5140
4E40
3180
0E00
0000
ENDCHAR
STARTCHAR 0x2D26
ENCODING 11558
SWIDTH 857 0
DWIDTH 12 0
BBX 12 13 0 -2
BITMAP
0000
0E00
3180
4E40
5040
9E20
9120
9120
5140
4E40
3180
0E00
0000
ENDCHAR
STARTCHAR 0x2D27
ENCODING 11559
SWIDTH 857 0
DWIDTH 12 0
BBX 12 13 0 -2
BITMAP
0000
0E00
3180
5F40
4140
8220
8420
8420
4840
4840
3180
0E00
0000
ENDCHAR
STARTCHAR 0x2D28
ENCODING 11560
SWIDTH 857 0
DWIDTH 12 0
BBX 12 13 0 -2
BITMAP
0000
0E00
3180
4E40
5140
9120
8E20
9120
5140
4E40
3180
0E00
0000
ENDCHAR
STARTCHAR 0x2D29
ENCODING 11561
SWIDTH 857 0
DWIDTH 12 0
BBX 12 13 0 -2
BITMAP
0000
0E00
3180
4E40
5140
9120
9120
8F20
4140
4E40
3180
0E00
0000
ENDCHAR
STARTCHAR 0x2D2A
ENCODING 11562
SWIDTH 857 0
DWIDTH 12 0
BBX 12 13 0 -2
BITMAP
0000
0E00
3180
5340
74C0
94A0
94A0
94A0
54C0
5340
3180
0E00
0000
ENDCHAR
STARTCHAR 0x2D2B
ENCODING 11563
SWIDTH 857 0
DWIDTH 12 0
BBX 12 13 0 -2
BITMAP
0000
0E00
3180
5140
7340
9120
9120
9120
5140
5140
3180
0E00
0000
ENDCHAR
STARTCHAR 0x2D2C
ENCODING 11564
SWIDTH 857 0
DWIDTH 12 0
BBX 12 13 0 -2
BITMAP
0000
0E00
3180
5340
74C0
90A0
9120
9220
5440
57C0
3180
0E00
0000
ENDCHAR
STARTCHAR 0x2D2D
ENCODING 11565
SWIDTH 857 0
DWIDTH 12 0
BBX 12 13 0 -2
BITMAP
0000
0E00
3180
5340
74C0
90A0
9320
90A0
54C0
5340
3180
0E00
0000
ENDCHAR
STARTCHAR 0x2D2E
ENCODING 11566
SWIDTH 857 0
DWIDTH 12 0
BBX 12 13 0 -2
BITMAP
0000
0E00
3180
5340
7340
9520
9520
9520
57C0
5140
3180
0E00
0000
ENDCHAR
STARTCHAR 0x2D2F
ENCODING 11567
SWIDTH 857 0
DWIDTH 12 0
BBX 12 13 0 -2
BITMAP
0000
0E00
3180
57C0
7440
9720
90A0
90A0
54C0
5340
3180
0E00
0000
ENDCHAR
STARTCHAR 0x2D30
ENCODING 11568
SWIDTH 857 0
DWIDTH 12 0
BBX 12 13 0 -2
BITMAP
0000
0E00
3180
5340
7440
9720
94A0
94A0
54C0
5340
3180
0E00
0000
ENDCHAR
STARTCHAR 0x2D31
ENCODING 11569
SWIDTH 857 0
DWIDTH 12 0
BBX 12 13 0 -2
BITMAP
0000
0E00
3180
57C0
70C0
9120
9120
9220
5240
5240
3180
0E00
0000
ENDCHAR
STARTCHAR 0x2D32
ENCODING 11570
SWIDTH 857 0
DWIDTH 12 0
BBX 12 13 0 -2
BITMAP
0000
0E00
3180
5340
74C0
94A0
9320
94A0
54C0
5340
3180
0E00
0000
ENDCHAR
STARTCHAR 0x2D33
ENCODING 11571
SWIDTH 857 0
DWIDTH 12 0
BBX 12 13 0 -2
BITMAP
0000
0E00
3180
5340
74C0
94A0
94A0
93A0
50C0
5740
3180
0E00
0000
ENDCHAR
STARTCHAR 0x2D34
ENCODING 11572
SWIDTH 857 0
DWIDTH 12 0
BBX 12 13 0 -2
BITMAP
0000
0E00
3180
5D40
56C0
86A0
8AA0
92A0
52C0
5D40
3180
0E00
0000
ENDCHAR
STARTCHAR 0x2D35
ENCODING 11573
SWIDTH 857 0
DWIDTH 12 0
BBX 12 13 0 -2
BITMAP
0000
1F00
0400
0400
0400
0400
0400
0400
0400
0400
1F00
0000
0000
ENDCHAR
STARTCHAR 0x2D36
ENCODING 11574
SWIDTH 857 0
DWIDTH 12 0
BBX 12 13 0 -2
BITMAP
0000
1F80
0900
0900
0900
0900
0900
0900
0900
0900
1F80
0000
0000
ENDCHAR
STARTCHAR 0x2D37
ENCODING 11575
SWIDTH 857 0
DWIDTH 12 0
BBX 12 13 0 -2
BITMAP
0000
7FC0
2480
2480
2480
2480
2480
2480
2480
2480
7FC0
0000
0000
ENDCHAR
STARTCHAR 0x2D38
ENCODING 11576
SWIDTH 857 0
DWIDTH 12 0
BBX 12 13 0 -2
BITMAP
0000
7DC0
2880
2880
2880
2500
2500
2500
2200
2200
7200
0000
0000
ENDCHAR
STARTCHAR 0x2D39
ENCODING 11577
SWIDTH 857 0
DWIDTH 12 0
BBX 12 13 0 -2
BITMAP
0000
71C0
2080
2080
1100
1100
1100
0A00
0A00
0400
0400
0000
0000
ENDCHAR
STARTCHAR 0x2D3A
ENCODING 11578
SWIDTH 857 0
DWIDTH 12 0
BBX 12 13 0 -2
BITMAP
0000
77C0
2280
2280
2280
1480
1480
1480
0880
0880
09C0
0000
0000
ENDCHAR
STARTCHAR 0x2D3B
ENCODING 11579
SWIDTH 857 0
DWIDTH 12 0
BBX 12 13 0 -2
BITMAP
0000
EFE0
4540
4540
4540
2940
2940
2940
1140
1140
13E0
0000
0000
ENDCHAR
STARTCHAR 0x2D3C
ENCODING 11580
SWIDTH 857 0
DWIDTH 12 0
BBX 12 13 0 -2
BITMAP
0000
DFE0
5540
5540
5540
5540
5540
2540
2540
2540
2FE0
0000
0000
ENDCHAR
STARTCHAR 0x2D3D
ENCODING 11581
SWIDTH 857 0
DWIDTH 12 0
BBX 12 13 0 -2
BITMAP
0000
7DC0
2880
2500
2500
2200
2200
2500
2500
2880
7DC0
0000
0000
ENDCHAR
STARTCHAR 0x2D3E
ENCODING 11582
SWIDTH 857 0
DWIDTH 12 0
BBX 12 13 0 -2
BITMAP
0000
71C0
2080
1100
0A00
0400
0400
0A00
1100
2080
71C0
0000
0000
ENDCHAR
STARTCHAR 0x2D40
ENCODING 11584
SWIDTH 857 0
DWIDTH 12 0
BBX 12 13 0 -2
BITMAP
0000
E000
1800
E000
1800
E000
1A20
0220
0220
0220
0040
0180
0000
ENDCHAR
STARTCHAR 0x2D41
ENCODING 11585
SWIDTH 857 0
DWIDTH 12 0
BBX 12 13 0 -2
BITMAP
0000
2000
F800
2000
2000
FC00
1000
13E0
0220
0220
0220
03E0
0000
ENDCHAR
STARTCHAR 0x2D42
ENCODING 11586
SWIDTH 857 0
DWIDTH 12 0
BBX 12 13 0 -2
BITMAP
0000
4200
F920
4820
4040
3B80
0000
7800
1000
FC00
1000
6000
0000
ENDCHAR
STARTCHAR 0x2D43
ENCODING 11587
SWIDTH 857 0
DWIDTH 12 0
BBX 12 13 0 -2
BITMAP
0000
0800
4800
33E0
1800
E400
0000
4280
4280
7A80
42A0
44C0
0000
ENDCHAR
STARTCHAR 0x2D44
ENCODING 11588
SWIDTH 857 0
DWIDTH 12 0
BBX 12 13 0 -2
BITMAP
0000
55C0
7800
8BE0
0820
1020
E1C0
2000
2000
4800
4400
FC00
0000
ENDCHAR
STARTCHAR 0x2D45
ENCODING 11589
SWIDTH 857 0
DWIDTH 12 0
BBX 12 13 0 -2
BITMAP
0000
4000
4000
4000
7800
4000
4000
4620
0120
0020
0040
0780
0000
ENDCHAR
STARTCHAR 0x2D46
ENCODING 11590
SWIDTH 857 0
DWIDTH 12 0
BBX 12 13 0 -2
BITMAP
0000
FC00
0400
2800
23E0
2000
4000
1000
5000
5200
5200
9C00
0000
ENDCHAR
STARTCHAR 0x2D47
ENCODING 11591
SWIDTH 857 0
DWIDTH 12 0
BBX 12 13 0 -2
BITMAP
0000
0100
61E0
9320
8820
0440
4180
7040
9140
5140
2F40
C160
0000
ENDCHAR
STARTCHAR 0x2D48
ENCODING 11592
SWIDTH 857 0
DWIDTH 12 0
BBX 12 13 0 -2
BITMAP
0000
9000
92A0
92A0
1020
61C0
0000
8480
8480
F480
84A0
84C0
0000
ENDCHAR
STARTCHAR 0x2D49
ENCODING 11593
SWIDTH 857 0
DWIDTH 12 0
BBX 12 13 0 -2
BITMAP
0000
F800
8AA0
8AA0
0820
71C0
0000
4000
4000
7800
4000
4000
0000
ENDCHAR
STARTCHAR 0x2D4A
ENCODING 11594
SWIDTH 857 0
DWIDTH 12 0
BBX 12 13 0 -2
BITMAP
0000
4000
FBE0
4A20
4A20
9BE0
0000
4800
4800
4BE0
0800
3000
0000
ENDCHAR
STARTCHAR 0x2D4B
ENCODING 11595
SWIDTH 857 0
DWIDTH 12 0
BBX 12 13 0 -2
BITMAP
0000
5400
5400
4000
7800
4000
4280
4280
0280
02A0
02A0
04C0
0000
ENDCHAR
STARTCHAR 0x2D4C
ENCODING 11596
SWIDTH 857 0
DWIDTH 12 0
BBX 12 13 0 -2
BITMAP
0000
4200
F920
4820
4040
3B80
0000
4000
4000
7800
4000
4000
0000
ENDCHAR
STARTCHAR 0x2D4D
ENCODING 11597
SWIDTH 857 0
DWIDTH 12 0
BBX 12 13 0 -2
BITMAP
0000
5200
5500
5200
49E0
8800
0000
4940
F540
5160
4140
7640
0000
ENDCHAR
STARTCHAR 0x2D4E
ENCODING 11598
SWIDTH 857 0
DWIDTH 12 0
BBX 12 13 0 -2
BITMAP
0000
F240
0240
F240
0040
F180
0000
A940
8140
AF40
9140
9160
0000
ENDCHAR
STARTCHAR 0x2D4F
ENCODING 11599
SWIDTH 857 0
DWIDTH 12 0
BBX 12 13 0 -2
BITMAP
0000
0400
6A00
9400
89E0
0400
0000
C280
0A80
C800
1000
E000
0000
ENDCHAR
STARTCHAR 0x2D50
ENCODING 11600
SWIDTH 857 0
DWIDTH 12 0
BBX 12 13 0 -2
BITMAP
0000
0000
0000
0000
0000
F3C0
AAA0
AAA0
AAA0
AAA0
AAA0
0000
0000
ENDCHAR
STARTCHAR 0x2D51
ENCODING 11601
SWIDTH 857 0
DWIDTH 12 0
BBX 12 13 0 -2
BITMAP
0000
0000
0000
0000
0000
73C0
8AA0
82A0
82A0
8AA0
72A0
0000
0000
ENDCHAR
STARTCHAR 0x2D52
ENCODING 11602
SWIDTH 857 0
DWIDTH 12 0
BBX 12 13 0 -2
BITMAP
0000
0000
8000
8000
8000
93C0
A2A0
C2A0
A2A0
92A0
8AA0
0000
0000
ENDCHAR
STARTCHAR 0x2D53
ENCODING 11603
SWIDTH 857 0
DWIDTH 12 0
BBX 12 13 0 -2
BITMAP
0000
0000
0000
0000
0060
F180
AA40
A980
AA00
A9C0
AA20
01C0
0000
ENDCHAR
STARTCHAR 0x2D54
ENCODING 11604
SWIDTH 857 0
DWIDTH 12 0
BBX 12 13 0 -2
BITMAP
0000
0000
8000
8000
8060
9180
A240
C180
A200
91C0
8A20
01C0
0000
ENDCHAR
STARTCHAR 0x2D55
ENCODING 11605
SWIDTH 857 0
DWIDTH 12 0
BBX 12 13 0 -2
BITMAP
0000
0000
0000
0000
0000
71C0
8A20
8200
8200
8A20
71C0
0000
0000
ENDCHAR
STARTCHAR 0x2D56
ENCODING 11606
SWIDTH 857 0
DWIDTH 12 0
BBX 12 13 0 -2
BITMAP
0000
00C0
0120
0040
0080
FDE0
9200
9200
9200
9200
9200
0000
0000
ENDCHAR
STARTCHAR 0x2D5F
ENCODING 11615
SWIDTH 857 0
DWIDTH 12 0
BBX 12 13 0 -2
BITMAP
0000
00A0
FBE0
2280
AAA0
AAA0
AB40
2340
FD40
2540
2BA0
28A0
0000
ENDCHAR
STARTCHAR 0x2D60
ENCODING 11616
SWIDTH 857 0
DWIDTH 12 0
BBX 12 13 0 -2
BITMAP
0140
0140
0280
0280
0000
0000
0000
0000
0000
0000
0000
0000
0000
ENDCHAR
STARTCHAR 0x2D61
ENCODING 11617
SWIDTH 857 0
DWIDTH 12 0
BBX 12 13 0 -2
BITMAP
0000
0000
0000
0000
0000
0000
0000
2800
2800
5000
5000
0000
0000
ENDCHAR
STARTCHAR 0x2D62
ENCODING 11618
SWIDTH 857 0
DWIDTH 12 0
BBX 12 13 0 -2
BITMAP
0000
0000
8800
C800
C800
A980
AA40
9A40
9A40
8A40
89A0
0000
0000
ENDCHAR
STARTCHAR 0x2D63
ENCODING 11619
SWIDTH 857 0
DWIDTH 12 0
BBX 12 13 0 -2
BITMAP
0000
0000
4A40
4A40
5280
5280
6300
5280
5280
4A40
4A40
0000
0000
ENDCHAR
STARTCHAR 0x2D64
ENCODING 11620
SWIDTH 857 0
DWIDTH 12 0
BBX 12 13 0 -2
BITMAP
0000
0000
F880
2080
2E80
2880
2880
2E80
2880
2880
2EE0
0000
0000
ENDCHAR
STARTCHAR 0x2D65
ENCODING 11621
SWIDTH 857 0
DWIDTH 12 0
BBX 12 13 0 -2
BITMAP
0000
0E00
3180
4440
4440
8720
8420
8420
7FC0
4040
3180
0E00
0000
ENDCHAR
STARTCHAR 0x2D66
ENCODING 11622
SWIDTH 857 0
DWIDTH 12 0
BBX 12 13 0 -2
BITMAP
0000
0E00
3180
4440
7FC0
A4A0
A4A0
BFA0
4440
4440
3180
0E00
0000
ENDCHAR
STARTCHAR 0x2D67
ENCODING 11623
SWIDTH 857 0
DWIDTH 12 0
BBX 12 13 0 -2
BITMAP
0000
0E00
3180
4040
7FC0
8420
8620
8520
4440
4440
3180
0E00
0000
ENDCHAR
STARTCHAR 0x2D68
ENCODING 11624
SWIDTH 857 0
DWIDTH 12 0
BBX 12 13 0 -2
BITMAP
0000
0E00
3180
4840
7FC0
8820
8F20
9220
6240
4FC0
3180
0E00
0000
ENDCHAR
STARTCHAR 0x2D69
ENCODING 11625
SWIDTH 857 0
DWIDTH 12 0
BBX 12 13 0 -2
BITMAP
0000
0E00
3180
4840
7FC0
8820
9F20
A920
4940
4F40
3180
0E00
0000
ENDCHAR
STARTCHAR 0x2D6A
ENCODING 11626
SWIDTH 857 0
DWIDTH 12 0
BBX 12 13 0 -2
BITMAP
0000
2080
5540
9520
FFE0
9520
B7E0
D920
93A0
9560
5140
2080
0000
ENDCHAR
STARTCHAR 0x2D6B
ENCODING 11627
SWIDTH 857 0
DWIDTH 12 0
BBX 12 13 0 -2
BITMAP
0000
2080
4840
BFA0
8820
8F20
9920
AF20
8920
8F20
4940
2080
0000
ENDCHAR
STARTCHAR 0x2D6C
ENCODING 11628
SWIDTH 857 0
DWIDTH 12 0
BBX 12 13 0 -2
BITMAP
0000
2080
4A40
8AA0
9220
9FA0
B220
D220
9220
9220
5140
2080
0000
ENDCHAR
STARTCHAR 0x2D6D
ENCODING 11629
SWIDTH 857 0
DWIDTH 12 0
BBX 12 13 0 -2
BITMAP
0000
3880
EC80
AA80
B920
ED20
ABE0
B800
E9E0
2B20
2D20
49E0
0000
ENDCHAR
STARTCHAR 0x2D6E
ENCODING 11630
SWIDTH 857 0
DWIDTH 12 0
BBX 12 13 0 -2
BITMAP
0000
2000
27E0
2080
F880
2280
22E0
5280
5280
5280
8A80
8FE0
0000
ENDCHAR
STARTCHAR 0x2D6F
ENCODING 11631
SWIDTH 857 0
DWIDTH 12 0
BBX 12 13 0 -2
BITMAP
0000
7700
2A00
EAE0
AFA0
BAA0
E2A0
BEA0
ABA0
AAA0
EAA0
3AE0
0000
ENDCHAR
STARTCHAR 0x2D70
ENCODING 11632
SWIDTH 857 0
DWIDTH 12 0
BBX 12 13 0 -2
BITMAP
0000
1000
3800
1000
0000
7FC0
0000
7FC0
0000
0100
0380
0100
0000
ENDCHAR
STARTCHAR 0x2D71
ENCODING 11633
SWIDTH 857 0
DWIDTH 12 0
BBX 12 13 0 -2
BITMAP
0000
0000
0000
7FC0
0000
0000
7FC0
0000
0000
7FC0
0000
0000
0000
ENDCHAR
STARTCHAR 0x2D72
ENCODING 11634
SWIDTH 857 0
DWIDTH 12 0
BBX 12 13 0 -2
BITMAP
0400
0A00
0800
0800
0800
0400
0400
0200
0200
0200
0A00
0400
0000
ENDCHAR
STARTCHAR 0x2D73
ENCODING 11635
SWIDTH 857 0
DWIDTH 12 0
BBX 12 13 0 -2
BITMAP
0400
0A00
0800
0E00
1500
1500
1500
1500
0E00
0200
0A00
0400
0000
ENDCHAR
STARTCHAR 0x2D74
ENCODING 11636
SWIDTH 857 0
DWIDTH 12 0
BBX 12 13 0 -2
BITMAP
0000
0000
7FC0
2000
1000
0800
0400
0800
1000
2000
7FC0
0000
0000
ENDCHAR
STARTCHAR 0x2D75
ENCODING 11637
SWIDTH 857 0
DWIDTH 12 0
BBX 12 13 0 -2
BITMAP
03E0
0200
0200
0400
0400
4400
4800
A800
A800
1000
1000
0000
0000
ENDCHAR
STARTCHAR 0x2D76
ENCODING 11638
SWIDTH 857 0
DWIDTH 12 0
BBX 12 13 0 -2
BITMAP
0000
0000
0400
0400
0400
0400
0400
0400
0400
7FC0
0000
0000
0000
ENDCHAR
STARTCHAR 0x2D77
ENCODING 11639
SWIDTH 857 0
DWIDTH 12 0
BBX 12 13 0 -2
BITMAP
0000
0000
0080
0100
0200
0400
0800
1000
2000
7FC0
0000
0000
0000
ENDCHAR
STARTCHAR 0x2D78
ENCODING 11640
SWIDTH 857 0
DWIDTH 12 0
BBX 12 13 0 -2
BITMAP
0000
0000
2000
2000
2000
2000
2000
2000
2000
3FC0
0000
0000
0000
ENDCHAR
STARTCHAR 0x2D79
ENCODING 11641
SWIDTH 857 0
DWIDTH 12 0
BBX 12 13 0 -2
BITMAP
0000
0000
0080
0180
0280
0480
0880
1080
2080
7F80
0000
0000
0000
ENDCHAR
STARTCHAR 0x2D7A
ENCODING 11642
SWIDTH 857 0
DWIDTH 12 0
BBX 12 13 0 -2
BITMAP
0000
0000
2080
71C0
2080
0000
0000
0400
0E00
0400
0000
0000
0000
ENDCHAR
STARTCHAR 0x2D7B
ENCODING 11643
SWIDTH 857 0
DWIDTH 12 0
BBX 12 13 0 -2
BITMAP
0000
0000
0E00
1100
2080
2080
2080
2080
2080
2080
2080
0000
0000
ENDCHAR
STARTCHAR 0x2D7C
ENCODING 11644
SWIDTH 857 0
DWIDTH 12 0
BBX 12 13 0 -2
BITMAP
0000
0000
2080
2080
2080
2080
2080
2080
2080
1100
0E00
0000
0000
ENDCHAR
STARTCHAR 0x3021
ENCODING 12321
SWIDTH 857 0
DWIDTH 12 0
BBX 12 13 0 -2
BITMAP
0000
FFE0
0A00
0A00
7FC0
4A40
4A40
4A40
7FC0
0A00
0A00
FFE0
0000
ENDCHAR
STARTCHAR 0x3022
ENCODING 12322
SWIDTH 857 0
DWIDTH 12 0
BBX 12 13 0 -2
BITMAP
0000
1FE0
E280
A280
AFE0
AAA0
AAA0
AAA0
AFE0
A280
E280
1FE0
0000
ENDCHAR
STARTCHAR 0x3023
ENCODING 12323
SWIDTH 857 0
DWIDTH 12 0
BBX 12 13 0 -2
BITMAP
0100
4100
47E0
F100
5100
5FE0
5100
9100
E7E0
3100
4100
4FE0
0000
ENDCHAR
STARTCHAR 0x3024
ENCODING 12324
SWIDTH 857 0
DWIDTH 12 0
BBX 12 13 0 -2
BITMAP
0000
EFE0
A040
A040
CE40
AA40
AA40
AA40
AE40
C040
8040
81C0
0000
ENDCHAR
STARTCHAR 0x3025
ENCODING 12325
SWIDTH 857 0
DWIDTH 12 0
BBX 12 13 0 -2
BITMAP
0400
0400
FFE0
0000
3F80
2080
2080
3F80
1420
E240
2180
7C60
0000
ENDCHAR
STARTCHAR 0x3026
ENCODING 12326
SWIDTH 857 0
DWIDTH 12 0
BBX 12 13 0 -2
BITMAP
0000
7F40
4840
2480
FFE0
9220
5140
8FA0
3080
0900
0E00
F1E0
0000
ENDCHAR
STARTCHAR 0x3027
ENCODING 12327
SWIDTH 857 0
DWIDTH 12 0
BBX 12 13 0 -2
BITMAP
0200
4240
4440
FFE0
4800
4FE0
4900
7100
DFE0
4280
4440
D820
0000
ENDCHAR
STARTCHAR 0x3028
ENCODING 12328
SWIDTH 857 0
DWIDTH 12 0
BBX 12 13 0 -2
BITMAP
0000
43C0
4420
F800
5000
57E0
5000
9000
E7E0
3420
4420
47E0
0000
ENDCHAR
STARTCHAR 0x3029
ENCODING 12329
SWIDTH 857 0
DWIDTH 12 0
BBX 12 13 0 -2
BITMAP
0000
07C0
9840
4480
0760
1900
E7C0
2100
2FE0
2100
5000
8FE0
0000
ENDCHAR
STARTCHAR 0x302A
ENCODING 12330
SWIDTH 857 0
DWIDTH 12 0
BBX 12 13 0 -2
BITMAP
1100
1100
FFE0
1100
FD20
4A40
3180
DF60
0400
7FC0
1100
E0E0
0000
ENDCHAR
STARTCHAR 0x302B
ENCODING 12331
SWIDTH 857 0
DWIDTH 12 0
BBX 12 13 0 -2
BITMAP
1100
1100
FFE0
1100
FFE0
1200
7FC0
4A40
5240
61C0
4040
7FC0
0000
ENDCHAR
STARTCHAR 0x302C
ENCODING 12332
SWIDTH 857 0
DWIDTH 12 0
BBX 12 13 0 -2
BITMAP
0000
1BC0
E480
2FE0
2520
F7E0
2520
6FE0
6920
AFE0
A900
20E0
0000
ENDCHAR
STARTCHAR 0x302D
ENCODING 12333
SWIDTH 857 0
DWIDTH 12 0
BBX 12 13 0 -2
BITMAP
0000
FFE0
0A00
7FC0
4A40
7FC0
0A00
FFE0
0400
1240
5020
8F80
0000
ENDCHAR
STARTCHAR 0x302E
ENCODING 12334
SWIDTH 857 0
DWIDTH 12 0
BBX 12 13 0 -2
BITMAP
0000
4FE0
4820
EFE0
4800
4FE0
4A40
6BE0
C880
53E0
5080
C7E0
0000
ENDCHAR
STARTCHAR 0x302F
ENCODING 12335
SWIDTH 857 0
DWIDTH 12 0
BBX 12 13 0 -2
BITMAP
0000
0FE0
8820
4FE0
0800
8FE0
4A40
0BE0
4880
53E0
9080
87E0
0000
ENDCHAR
STARTCHAR 0x3030
ENCODING 12336
SWIDTH 857 0
DWIDTH 12 0
BBX 12 13 0 -2
BITMAP
0000
47C0
4440
4440
F7C0
5440
5440
5440
57C0
5000
9020
8FE0
0000
ENDCHAR
STARTCHAR 0x3031
ENCODING 12337
SWIDTH 857 0
DWIDTH 12 0
BBX 12 13 0 -2
BITMAP
1100
1100
FFE0
0400
3F80
0880
FFE0
1100
3FC0
2400
FFE0
0400
0000
ENDCHAR
STARTCHAR 0x3032
ENCODING 12338
SWIDTH 857 0
DWIDTH 12 0
BBX 12 13 0 -2
BITMAP
1100
1100
FFE0
1100
7FC0
0000
3FC0
2040
3FC0
2000
4000
4000
0000
ENDCHAR
STARTCHAR 0x3033
ENCODING 12339
SWIDTH 857 0
DWIDTH 12 0
BBX 12 13 0 -2
BITMAP
0200
7240
9440
27E0
F900
AFE0
F940
AA20
FCC0
0300
A860
AB80
0000
ENDCHAR
STARTCHAR 0x3034
ENCODING 12340
SWIDTH 857 0
DWIDTH 12 0
BBX 12 13 0 -2
BITMAP
0100
2100
2FE0
F440
2440
2480
6FE0
6100
B100
AFE0
2100
2100
0000
ENDCHAR
STARTCHAR 0x3035
ENCODING 12341
SWIDTH 857 0
DWIDTH 12 0
BBX 12 13 0 -2
BITMAP
0000
7FE0
4000
4100
4100
4100
5FE0
4100
4100
8100
8100
1FE0
0000
ENDCHAR
STARTCHAR 0x3036
ENCODING 12342
SWIDTH 857 0
DWIDTH 12 0
BBX 12 13 0 -2
BITMAP
2000
2180
FA40
2420
F940
88C0
FA40
8940
F860
20C0
FB40
2040
0000
ENDCHAR
STARTCHAR 0x3037
ENCODING 12343
SWIDTH 857 0
DWIDTH 12 0
BBX 12 13 0 -2
BITMAP
0000
5FC0
4440
E480
4500
45C0
4840
6A40
D140
5080
4340
CC20
0000
ENDCHAR
STARTCHAR 0x3038
ENCODING 12344
SWIDTH 857 0
DWIDTH 12 0
BBX 12 13 0 -2
BITMAP
0400
0400
FFE0
8020
4020
7BC0
4A40
6A40
9AC0
0A00
3220
C1E0
0000
ENDCHAR
STARTCHAR 0x3039
ENCODING 12345
SWIDTH 857 0
DWIDTH 12 0
BBX 12 13 0 -2
BITMAP
0000
47E0
4420
F420
57E0
5420
5420
97E0
E420
3420
4420
4FE0
0000
ENDCHAR
STARTCHAR 0x303A
ENCODING 12346
SWIDTH 857 0
DWIDTH 12 0
BBX 12 13 0 -2
BITMAP
0100
2100
2100
FFE0
AA00
AA00
AA00
FA00
2200
2A00
2A00
F9E0
0000
ENDCHAR
STARTCHAR 0x303B
ENCODING 12347
SWIDTH 857 0
DWIDTH 12 0
BBX 12 13 0 -2
BITMAP
0000
7100
8900
2220
FA20
8BE0
F800
8800
FBE0
9220
8A20
F7E0
0000
ENDCHAR
STARTCHAR 0x303C
ENCODING 12348
SWIDTH 857 0
DWIDTH 12 0
BBX 12 13 0 -2
BITMAP
0400
2400
47E0
8820
E820
27A0
44A0
F7A0
24A0
B7A0
A020
20C0
0000
ENDCHAR
STARTCHAR 0x303D
ENCODING 12349
SWIDTH 857 0
DWIDTH 12 0
BBX 12 13 0 -2
BITMAP
0100
2100
4FE0
8100
EFE0
2280
4C60
F3C0
2C40
A240
A380
2C60
0000
ENDCHAR
STARTCHAR 0x303E
ENCODING 12350
SWIDTH 857 0
DWIDTH 12 0
BBX 12 13 0 -2
BITMAP
0100
7100
9100
21E0
F900
A900
F900
ABE0
FA20
0220
AA20
ABE0
0000
ENDCHAR
STARTCHAR 0x303F
ENCODING 12351
SWIDTH 857 0
DWIDTH 12 0
BBX 12 13 0 -2
BITMAP
0100
0120
FFE0
0100
7900
4920
48A0
78A0
0040
18C0
E320
0C20
0000
ENDCHAR
STARTCHAR 0x3040
ENCODING 12352
SWIDTH 857 0
DWIDTH 12 0
BBX 12 13 0 -2
BITMAP
0000
FFE0
0A00
7FC0
4A40
4A40
7FC0
2480
FFE0
0D00
3480
C460
0000
ENDCHAR
STARTCHAR 0x3041
ENCODING 12353
SWIDTH 857 0
DWIDTH 12 0
BBX 12 13 0 -2
BITMAP
0000
23C0
2420
F800
1000
17E0
2000
6000
B7E0
2420
2420
27E0
0000
ENDCHAR
STARTCHAR 0x3042
ENCODING 12354
SWIDTH 857 0
DWIDTH 12 0
BBX 12 13 0 -2
BITMAP
0400
0400
FFE0
8020
8820
0800
FFE0
1080
1080
3100
0F00
70C0
0000
ENDCHAR
STARTCHAR 0x3043
ENCODING 12355
SWIDTH 857 0
DWIDTH 12 0
BBX 12 13 0 -2
BITMAP
0200
0200
7FE0
4400
7FE0
4A80
5240
7FE0
5240
5FC0
9220
83E0
0000
ENDCHAR
STARTCHAR 0x3044
ENCODING 12356
SWIDTH 857 0
DWIDTH 12 0
BBX 12 13 0 -2
BITMAP
0200
4200
5FE0
F020
5220
4200
5FE0
6440
C440
4C80
4380
DC60
0000
ENDCHAR
STARTCHAR 0x3045
ENCODING 12357
SWIDTH 857 0
DWIDTH 12 0
BBX 12 13 0 -2
BITMAP
0100
0100
FFE0
9240
9240
9FE0
F000
97E0
9420
97E0
F420
07E0
0000
ENDCHAR
STARTCHAR 0x3046
ENCODING 12358
SWIDTH 857 0
DWIDTH 12 0
BBX 12 13 0 -2
BITMAP
0400
0400
FFE0
8820
FFE0
1080
1F00
2480
FFE0
0D00
3480
C460
0000
ENDCHAR
STARTCHAR 0x3047
ENCODING 12359
SWIDTH 857 0
DWIDTH 12 0
BBX 12 13 0 -2
BITMAP
0000
FBE0
8A20
FBE0
8A20
FFE0
8A20
BFA0
9120
9F20
9120
9F60
0000
ENDCHAR
STARTCHAR 0x3048
ENCODING 12360
SWIDTH 857 0
DWIDTH 12 0
BBX 12 13 0 -2
BITMAP
0100
5100
FFE0
5420
7520
2100
FFE0
AA40
FA40
2280
F980
2660
0000
ENDCHAR
STARTCHAR 0x3049
ENCODING 12361
SWIDTH 857 0
DWIDTH 12 0
BBX 12 13 0 -2
BITMAP
0400
0400
FFE0
0400
0D00
3480
C440
0420
3F80
2080
2080
3F80
0000
ENDCHAR
STARTCHAR 0x304A
ENCODING 12362
SWIDTH 857 0
DWIDTH 12 0
BBX 12 13 0 -2
BITMAP
0000
2040
2440
2440
2240
2240
2040
2080
3880
C140
0620
1820
0000
ENDCHAR
STARTCHAR 0x304B
ENCODING 12363
SWIDTH 857 0
DWIDTH 12 0
BBX 12 13 0 -2
BITMAP
0000
2FE0
2120
4120
5FE0
C120
4120
4FE0
4100
4100
4200
4C00
0000
ENDCHAR
STARTCHAR 0x304C
ENCODING 12364
SWIDTH 857 0
DWIDTH 12 0
BBX 12 13 0 -2
BITMAP
0100
2100
2100
5FE0
4000
C440
4440
4440
4440
4480
4080
5FE0
0000
ENDCHAR
STARTCHAR 0x304D
ENCODING 12365
SWIDTH 857 0
DWIDTH 12 0
BBX 12 13 0 -2
BITMAP
0100
2100
3FE0
4200
4200
C520
4920
5940
6880
4880
4B40
5C20
0000
ENDCHAR
STARTCHAR 0x304E
ENCODING 12366
SWIDTH 857 0
DWIDTH 12 0
BBX 12 13 0 -2
BITMAP
0100
2100
2FE0
4220
5FE0
C840
4FC0
4100
4FE0
4900
5FE0
4100
0000
ENDCHAR
STARTCHAR 0x304F
ENCODING 12367
SWIDTH 857 0
DWIDTH 12 0
BBX 12 13 0 -2
BITMAP
0000
FFE0
8020
8920
BFA0
8920
8920
BFA0
9120
9120
8020
FFE0
0000
ENDCHAR
STARTCHAR 0x3050
ENCODING 12368
SWIDTH 857 0
DWIDTH 12 0
BBX 12 13 0 -2
BITMAP
0400
0400
FFE0
0400
7FC0
0440
7FC0
4400
FFE0
0A20
3180
C060
0000
ENDCHAR
STARTCHAR 0x3051
ENCODING 12369
SWIDTH 857 0
DWIDTH 12 0
BBX 12 13 0 -2
BITMAP
0000
7FC0
0400
FFE0
0D00
3480
C460
0800
FFE0
1080
1F00
60C0
0000
ENDCHAR
STARTCHAR 0x3052
ENCODING 12370
SWIDTH 857 0
DWIDTH 12 0
BBX 12 13 0 -2
BITMAP
0080
00A0
7FE0
4080
7E80
48A0
7FA0
52A0
5240
5440
8CA0
B320
0000
ENDCHAR
STARTCHAR 0x3053
ENCODING 12371
SWIDTH 857 0
DWIDTH 12 0
BBX 12 13 0 -2
BITMAP
0020
7E20
4220
7FE0
4020
7E20
4120
7EA0
4820
AA20
AA20
1860
0000
ENDCHAR
STARTCHAR 0x3054
ENCODING 12372
SWIDTH 857 0
DWIDTH 12 0
BBX 12 13 0 -2
BITMAP
0200
2240
2240
27E0
A480
AFE0
B480
A480
A7E0
2480
2480
27E0
0000
ENDCHAR
STARTCHAR 0x3055
ENCODING 12373
SWIDTH 857 0
DWIDTH 12 0
BBX 12 13 0 -2
BITMAP
0400
0400
FFE0
1100
FFE0
2080
3F80
2080
3F80
1240
5020
8F80
0000
ENDCHAR
STARTCHAR 0x3056
ENCODING 12374
SWIDTH 857 0
DWIDTH 12 0
BBX 12 13 0 -2
BITMAP
0040
F840
8FE0
F840
8240
F940
2040
A840
A4C0
1000
5040
8F20
0000
ENDCHAR
STARTCHAR 0x3057
ENCODING 12375
SWIDTH 857 0
DWIDTH 12 0
BBX 12 13 0 -2
BITMAP
0000
3FC0
2040
3FC0
2040
3FC0
1000
3FE0
4920
8920
1220
24C0
0000
ENDCHAR
STARTCHAR 0x3058
ENCODING 12376
SWIDTH 857 0
DWIDTH 12 0
BBX 12 13 0 -2
BITMAP
0100
2100
2FE0
F280
2440
2820
6FE0
6020
A720
A520
2720
2060
0000
ENDCHAR
STARTCHAR 0x3059
ENCODING 12377
SWIDTH 857 0
DWIDTH 12 0
BBX 12 13 0 -2
BITMAP
2200
1200
0400
7F80
0880
1FC0
2040
7FE0
8020
5520
5520
00C0
0000
ENDCHAR
STARTCHAR 0x305A
ENCODING 12378
SWIDTH 857 0
DWIDTH 12 0
BBX 12 13 0 -2
BITMAP
0000
7FC0
4440
7FC0
4440
7FC0
0000
FFE0
2440
2240
2180
F860
0000
ENDCHAR
STARTCHAR 0x305B
ENCODING 12379
SWIDTH 857 0
DWIDTH 12 0
BBX 12 13 0 -2
BITMAP
0000
7FC0
4440
7FC0
4440
7FC0
1100
FFE0
1100
FFE0
2080
4040
0000
ENDCHAR
STARTCHAR 0x305C
ENCODING 12380
SWIDTH 857 0
DWIDTH 12 0
BBX 12 13 0 -2
BITMAP
0100
1900
E3E0
2C20
2240
F180
2600
63E0
6C20
A240
A180
2E00
0000
ENDCHAR
STARTCHAR 0x305D
ENCODING 12381
SWIDTH 857 0
DWIDTH 12 0
BBX 12 13 0 -2
BITMAP
0200
2240
4240
87E0
F480
2FE0
4480
F480
27E0
B480
A480
27E0
0000
ENDCHAR
STARTCHAR 0x305E
ENCODING 12382
SWIDTH 857 0
DWIDTH 12 0
BBX 12 13 0 -2
BITMAP
0080
2080
4FE0
8120
EFE0
2420
47E0
F080
27E0
B480
AFE0
2080
0000
ENDCHAR
STARTCHAR 0x305F
ENCODING 12383
SWIDTH 857 0
DWIDTH 12 0
BBX 12 13 0 -2
BITMAP
0000
7FE0
4420
7FE0
4420
7FE0
2040
3FC0
2040
3FC0
2040
20C0
0000
ENDCHAR
STARTCHAR 0x3060
ENCODING 12384
SWIDTH 857 0
DWIDTH 12 0
BBX 12 13 0 -2
BITMAP
1100
1100
FFE0
0400
FFE0
1500
64C0
0800
FFE0
1080
1F00
60C0
0000
ENDCHAR
STARTCHAR 0x3061
ENCODING 12385
SWIDTH 857 0
DWIDTH 12 0
BBX 12 13 0 -2
BITMAP
0400
0400
FFE0
0400
0800
1220
2240
6180
A100
2080
2640
7820
0000
ENDCHAR
STARTCHAR 0x3062
ENCODING 12386
SWIDTH 857 0
DWIDTH 12 0
BBX 12 13 0 -2
BITMAP
0000
EFE0
0920
EFE0
0920
EFE0
0440
07C0
E440
A7C0
A440
E4C0
0000
ENDCHAR
STARTCHAR 0x3063
ENCODING 12387
SWIDTH 857 0
DWIDTH 12 0
BBX 12 13 0 -2
BITMAP
0100
0100
4FE0
2120
0FE0
0440
E7E0
2480
2FE0
2080
5000
8FE0
0000
ENDCHAR
STARTCHAR 0x3064
ENCODING 12388
SWIDTH 857 0
DWIDTH 12 0
BBX 12 13 0 -2
BITMAP
0100
0100
8FE0
4920
1FE0
0440
E7C0
2440
27C0
2820
5000
8FE0
0000
ENDCHAR
STARTCHAR 0x3065
ENCODING 12389
SWIDTH 857 0
DWIDTH 12 0
BBX 12 13 0 -2
BITMAP
0000
FFE0
9000
9FC0
9200
A200
BFC0
8500
8880
B040
8000
FFE0
0000
ENDCHAR
STARTCHAR 0x3066
ENCODING 12390
SWIDTH 857 0
DWIDTH 12 0
BBX 12 13 0 -2
BITMAP
1100
1100
1100
FFE0
1100
1100
1100
FFE0
2100
2100
4100
4100
0000
ENDCHAR
STARTCHAR 0x3067
ENCODING 12391
SWIDTH 857 0
DWIDTH 12 0
BBX 12 13 0 -2
BITMAP
0400
0400
FFE0
1080
2100
1200
0C40
7080
0100
0600
1980
E060
0000
ENDCHAR
STARTCHAR 0x3068
ENCODING 12392
SWIDTH 857 0
DWIDTH 12 0
BBX 12 13 0 -2
BITMAP
0080
40A0
5FE0
4080
EE80
4AA0
4AA0
4E40
4040
5EA0
E120
0620
0000
ENDCHAR
STARTCHAR 0x3069
ENCODING 12393
SWIDTH 857 0
DWIDTH 12 0
BBX 12 13 0 -2
BITMAP
0400
0400
FFE0
0900
1080
FFC0
20A0
3F80
2080
3F80
2080
2180
0000
ENDCHAR
STARTCHAR 0x306A
ENCODING 12394
SWIDTH 857 0
DWIDTH 12 0
BBX 12 13 0 -2
BITMAP
1000
11E0
FF20
2120
2140
7D80
C540
7D20
4520
7D20
45C0
4D00
0000
ENDCHAR
STARTCHAR 0x306B
ENCODING 12395
SWIDTH 857 0
DWIDTH 12 0
BBX 12 13 0 -2
BITMAP
0100
0540
F9A0
2540
2AA0
2FE0
7100
D7E0
5480
56A0
58C0
7320
0000
ENDCHAR
STARTCHAR 0x306C
ENCODING 12396
SWIDTH 857 0
DWIDTH 12 0
BBX 12 13 0 -2
BITMAP
0000
0000
0000
0000
0000
0000
FFE0
0000
0000
0000
0000
0000
0000
ENDCHAR
STARTCHAR 0x306D
ENCODING 12397
SWIDTH 857 0
DWIDTH 12 0
BBX 12 13 0 -2
BITMAP
0400
0400
FFE0
0400
7FC0
0000
FFE0
9020
91A0
1E00
1040
0FC0
0000
ENDCHAR
STARTCHAR 0x306E
ENCODING 12398
SWIDTH 857 0
DWIDTH 12 0
BBX 12 13 0 -2
BITMAP
1080
0880
8100
7FE0
0880
8880
5040
1FE0
5540
5540
9540
BFE0
0000
ENDCHAR
STARTCHAR 0x306F
ENCODING 12399
SWIDTH 857 0
DWIDTH 12 0
BBX 12 13 0 -2
BITMAP
0000
07C0
8880
5FE0
0920
0920
EFE0
2280
2480
28E0
5000
8FE0
0000
ENDCHAR
STARTCHAR 0x3070
ENCODING 12400
SWIDTH 857 0
DWIDTH 12 0
BBX 12 13 0 -2
BITMAP
0000
1FA0
E220
2940
2440
F000
2BE0
6A20
6BE0
AA20
AA20
2BE0
0000
ENDCHAR
STARTCHAR 0x3071
ENCODING 12401
SWIDTH 857 0
DWIDTH 12 0
BBX 12 13 0 -2
BITMAP
1100
1100
FFE0
1100
0400
47E0
2920
1140
0100
2280
4440
9820
0000
ENDCHAR
STARTCHAR 0x3072
ENCODING 12402
SWIDTH 857 0
DWIDTH 12 0
BBX 12 13 0 -2
BITMAP
1100
1100
FFE0
1100
0000
7FC0
0400
0400
FFE0
0400
0400
1C00
0000
ENDCHAR
STARTCHAR 0x3073
ENCODING 12403
SWIDTH 857 0
DWIDTH 12 0
BBX 12 13 0 -2
BITMAP
0000
7FE0
9220
2EE0
F880
AEE0
F320
AAA0
F660
0AA0
B320
ACC0
0000
ENDCHAR
STARTCHAR 0x3074
ENCODING 12404
SWIDTH 857 0
DWIDTH 12 0
BBX 12 13 0 -2
BITMAP
0800
0800
1080
1080
2040
FFC0
1220
1220
1200
1200
2220
C1E0
0000
ENDCHAR
STARTCHAR 0x3075
ENCODING 12405
SWIDTH 857 0
DWIDTH 12 0
BBX 12 13 0 -2
BITMAP
0000
1800
E3E0
8220
8220
FA20
8220
8220
8220
8220
FAE0
0200
0000
ENDCHAR
STARTCHAR 0x3076
ENCODING 12406
SWIDTH 857 0
DWIDTH 12 0
BBX 12 13 0 -2
BITMAP
0000
0FE0
E920
A920
AFE0
A920
A920
A920
AAA0
AC60
E820
0FE0
0000
ENDCHAR
STARTCHAR 0x3077
ENCODING 12407
SWIDTH 857 0
DWIDTH 12 0
BBX 12 13 0 -2
BITMAP
0000
7FC0
4040
7FC0
0000
7FC0
4040
7FC0
4040
7FC0
2080
C060
0000
ENDCHAR
STARTCHAR 0x3078
ENCODING 12408
SWIDTH 857 0
DWIDTH 12 0
BBX 12 13 0 -2
BITMAP
0000
FFE0
8420
8420
BFA0
8420
8420
8A20
9120
A0A0
8020
FFE0
0000
ENDCHAR
STARTCHAR 0x3079
ENCODING 12409
SWIDTH 857 0
DWIDTH 12 0
BBX 12 13 0 -2
BITMAP
0000
4FE0
4920
F920
4FE0
4920
4920
8920
EAA0
3C60
4820
4FE0
0000
ENDCHAR
STARTCHAR 0x307A
ENCODING 12410
SWIDTH 857 0
DWIDTH 12 0
BBX 12 13 0 -2
BITMAP
0000
F840
0840
0840
F840
8040
8040
F840
0840
0840
1040
6040
0000
ENDCHAR
STARTCHAR 0x307B
ENCODING 12411
SWIDTH 857 0
DWIDTH 12 0
BBX 12 13 0 -2
BITMAP
0200
7200
8BE0
22A0
FAA0
8AA0
F880
8880
F940
9140
8A20
F420
0000
ENDCHAR
STARTCHAR 0x307C
ENCODING 12412
SWIDTH 857 0
DWIDTH 12 0
BBX 12 13 0 -2
BITMAP
0000
1FA0
8220
4940
0440
8000
4FE0
0100
5FE0
4100
8100
9FE0
0000
ENDCHAR
STARTCHAR 0x307D
ENCODING 12413
SWIDTH 857 0
DWIDTH 12 0
BBX 12 13 0 -2
BITMAP
0400
4840
5140
5F40
4440
4940
5F40
5140
5F40
5120
9F20
9120
0000
ENDCHAR
STARTCHAR 0x307E
ENCODING 12414
SWIDTH 857 0
DWIDTH 12 0
BBX 12 13 0 -2
BITMAP
1100
1100
FFE0
1100
F3C0
9420
A3C0
A080
97E0
9200
E420
87E0
0000
ENDCHAR
STARTCHAR 0x3121
ENCODING 12577
SWIDTH 857 0
DWIDTH 12 0
BBX 12 13 0 -2
BITMAP
0100
E100
AFE0
A820
C7E0
A000
A000
AFE0
A280
C280
84A0
98E0
0000
ENDCHAR
STARTCHAR 0x3122
ENCODING 12578
SWIDTH 857 0
DWIDTH 12 0
BBX 12 13 0 -2
BITMAP
0000
E380
A440
A820
D7C0
A000
A7C0
A080
AFE0
C400
8820
8FE0
0000
ENDCHAR
STARTCHAR 0x3123
ENCODING 12579
SWIDTH 857 0
DWIDTH 12 0
BBX 12 13 0 -2
BITMAP
0000
EFE0
A520
A540
CFE0
A020
AFE0
A020
AFE0
C500
9440
A3A0
0000
ENDCHAR
STARTCHAR 0x3124
ENCODING 12580
SWIDTH 857 0
DWIDTH 12 0
BBX 12 13 0 -2
BITMAP
2000
27E0
F420
57E0
5000
FFE0
0420
F7E0
9420
F7E0
9240
FC20
0000
ENDCHAR
STARTCHAR 0x3125
ENCODING 12581
SWIDTH 857 0
DWIDTH 12 0
BBX 12 13 0 -2
BITMAP
0040
0040
F040
9FE0
9040
9040
9440
9240
9040
9040
F040
01C0
0000
ENDCHAR
STARTCHAR 0x3126
ENCODING 12582
SWIDTH 857 0
DWIDTH 12 0
BBX 12 13 0 -2
BITMAP
0400
0400
FFE0
0400
0400
0800
1FC0
3040
D040
1040
1040
1FC0
0000
ENDCHAR
STARTCHAR 0x3127
ENCODING 12583
SWIDTH 857 0
DWIDTH 12 0
BBX 12 13 0 -2
BITMAP
0400
0400
FFE0
8020
8020
3F80
0400
0400
FFE0
0400
0400
1C00
0000
ENDCHAR
STARTCHAR 0x3128
ENCODING 12584
SWIDTH 857 0
DWIDTH 12 0
BBX 12 13 0 -2
BITMAP
0400
0800
3F80
2080
3F80
2000
3FE0
2000
3FE0
0020
5520
9560
0000
ENDCHAR
STARTCHAR 0x3129
ENCODING 12585
SWIDTH 857 0
DWIDTH 12 0
BBX 12 13 0 -2
BITMAP
0000
FBE0
0820
0820
8A20
4920
1860
28A0
4920
8A20
0820
1860
0000
ENDCHAR
STARTCHAR 0x312A
ENCODING 12586
SWIDTH 857 0
DWIDTH 12 0
BBX 12 13 0 -2
BITMAP
0000
0FE0
4080
2080
0080
0FE0
E080
2080
2080
2180
5000
8FE0
0000
ENDCHAR
STARTCHAR 0x312B
ENCODING 12587
SWIDTH 857 0
DWIDTH 12 0
BBX 12 13 0 -2
BITMAP
0000
FFE0
0400
0400
FFE0
8420
A520
94A0
8420
A520
94A0
8460
0000
ENDCHAR
STARTCHAR 0x312C
ENCODING 12588
SWIDTH 857 0
DWIDTH 12 0
BBX 12 13 0 -2
BITMAP
0000
0DE0
7120
4120
4520
4520
4520
5D20
E520
0560
0900
3100
0000
ENDCHAR
STARTCHAR 0x312D
ENCODING 12589
SWIDTH 857 0
DWIDTH 12 0
BBX 12 13 0 -2
BITMAP
8880
4900
13C0
FA40
2BC0
FA40
A3E0
FA00
2BE0
6820
A520
2960
0000
ENDCHAR
STARTCHAR 0x312E
ENCODING 12590
SWIDTH 857 0
DWIDTH 12 0
BBX 12 13 0 -2
BITMAP
0400
0400
FFE0
8A20
77C0
2440
FFC0
2440
FFC0
2280
52A0
8CE0
0000
ENDCHAR
STARTCHAR 0x312F
ENCODING 12591
SWIDTH 857 0
DWIDTH 12 0
BBX 12 13 0 -2
BITMAP
0000
7F80
0880
0880
0880
0880
FFE0
1100
1100
1100
1100
FFE0
0000
ENDCHAR
STARTCHAR 0x3130
ENCODING 12592
SWIDTH 857 0
DWIDTH 12 0
BBX 12 13 0 -2
BITMAP
0200
0240
FA40
27E0
2480
2FE0
7480
D480
57E0
5480
5480
77E0
0000
ENDCHAR
STARTCHAR 0x3131
ENCODING 12593
SWIDTH 857 0
DWIDTH 12 0
BBX 12 13 0 -2
BITMAP
0000
0600
1800
61E0
4020
4020
4020
79E0
4020
4020
4020
7FE0
0000
ENDCHAR
STARTCHAR 0x3132
ENCODING 12594
SWIDTH 857 0
DWIDTH 12 0
BBX 12 13 0 -2
BITMAP
0000
0FC0
8840
4BC0
0A40
9FE0
5020
17A0
54A0
54A0
97A0
9060
0000
ENDCHAR
STARTCHAR 0x3133
ENCODING 12595
SWIDTH 857 0
DWIDTH 12 0
BBX 12 13 0 -2
BITMAP
0200
03C0
E200
BFE0
A420
BFC0
A400
A7E0
B2A0
AAC0
E280
1FE0
0000
ENDCHAR
STARTCHAR 0x3134
ENCODING 12596
SWIDTH 857 0
DWIDTH 12 0
BBX 12 13 0 -2
BITMAP
0000
07E0
F420
97E0
9420
97E0
9420
9420
97E0
F000
0440
0820
0000
ENDCHAR
STARTCHAR 0x3135
ENCODING 12597
SWIDTH 857 0
DWIDTH 12 0
BBX 12 13 0 -2
BITMAP
2080
2A80
F5E0
6AC0
A4A0
FFE0
9120
FFE0
8520
FCA0
8820
F660
0000
ENDCHAR
STARTCHAR 0x3136
ENCODING 12598
SWIDTH 857 0
DWIDTH 12 0
BBX 12 13 0 -2
BITMAP
1100
1100
FFE0
1100
F840
8FE0
F840
8240
F940
2040
A840
A4C0
0000
ENDCHAR
STARTCHAR 0x3137
ENCODING 12599
SWIDTH 857 0
DWIDTH 12 0
BBX 12 13 0 -2
BITMAP
0000
73C0
9240
23C0
FA40
AFE0
FAA0
AFE0
FA40
0240
A980
AE60
0000
ENDCHAR
STARTCHAR 0x3138
ENCODING 12600
SWIDTH 857 0
DWIDTH 12 0
BBX 12 13 0 -2
BITMAP
0200
4200
4FE0
F240
5280
5FE0
5200
94C0
E700
3400
4420
47E0
0000
ENDCHAR
STARTCHAR 0x3139
ENCODING 12601
SWIDTH 857 0
DWIDTH 12 0
BBX 12 13 0 -2
BITMAP
0000
FFE0
8000
BDE0
A540
BD40
A540
BFE0
A040
A8C0
A540
BA60
0000
ENDCHAR
STARTCHAR 0x313A
ENCODING 12602
SWIDTH 857 0
DWIDTH 12 0
BBX 12 13 0 -2
BITMAP
0100
0120
9FE0
4100
0FE0
8920
4FE0
0920
0FE0
2920
4920
8960
0000
ENDCHAR
STARTCHAR 0x313B
ENCODING 12603
SWIDTH 857 0
DWIDTH 12 0
BBX 12 13 0 -2
BITMAP
0000
7FE0
4880
4880
4880
4880
4880
4840
4940
8940
BF20
8020
0000
ENDCHAR
STARTCHAR 0x313C
ENCODING 12604
SWIDTH 857 0
DWIDTH 12 0
BBX 12 13 0 -2
BITMAP
0000
FBE0
8A20
FBE0
8A20
FBE0
8020
BFA0
8420
9F20
8420
BFA0
0000
ENDCHAR
STARTCHAR 0x313D
ENCODING 12605
SWIDTH 857 0
DWIDTH 12 0
BBX 12 13 0 -2
BITMAP
0440
0480
FFE0
A280
AFE0
AAA0
ACE0
A820
BFE0
A040
E440
02C0
0000
ENDCHAR
STARTCHAR 0x313E
ENCODING 12606
SWIDTH 857 0
DWIDTH 12 0
BBX 12 13 0 -2
BITMAP
0000
7FC0
0000
0000
0000
FFE0
1000
1080
2080
2080
4340
7C40
0000
ENDCHAR
STARTCHAR 0x313F
ENCODING 12607
SWIDTH 857 0
DWIDTH 12 0
BBX 12 13 0 -2
BITMAP
0000
1FE0
9120
4FE0
0920
0FE0
E920
2FE0
2100
2FE0
5100
8FE0
0000
ENDCHAR
STARTCHAR 0x3140
ENCODING 12608
SWIDTH 857 0
DWIDTH 12 0
BBX 12 13 0 -2
BITMAP
0000
7FC0
0400
FFE0
A520
94A0
0400
7FC0
0000
FFE0
2080
7F40
0000
ENDCHAR
STARTCHAR 0x3141
ENCODING 12609
SWIDTH 857 0
DWIDTH 12 0
BBX 12 13 0 -2
BITMAP
1100
1100
FFE0
1100
2000
2FE0
4100
C100
5FE0
4100
4100
4FE0
0000
ENDCHAR
STARTCHAR 0x3142
ENCODING 12610
SWIDTH 857 0
DWIDTH 12 0
BBX 12 13 0 -2
BITMAP
0000
77E0
8A40
2240
FBC0
8A40
FA40
8BC0
FA40
A260
97C0
E840
0000
ENDCHAR
STARTCHAR 0x3143
ENCODING 12611
SWIDTH 857 0
DWIDTH 12 0
BBX 12 13 0 -2
BITMAP
1000
1DE0
1020
FE20
92A0
54A0
AAA0
7CA0
C640
7C40
44A0
7F20
0000
ENDCHAR
STARTCHAR 0x3144
ENCODING 12612
SWIDTH 857 0
DWIDTH 12 0
BBX 12 13 0 -2
BITMAP
0400
2440
2480
FFE0
9120
9120
9F20
0400
3F80
2080
2080
3F80
0000
ENDCHAR
STARTCHAR 0x3145
ENCODING 12613
SWIDTH 857 0
DWIDTH 12 0
BBX 12 13 0 -2
BITMAP
0000
FBE0
8A20
FBE0
8A20
FBE0
2480
4840
FFE0
1080
1F00
60C0
0000
ENDCHAR
STARTCHAR 0x3146
ENCODING 12614
SWIDTH 857 0
DWIDTH 12 0
BBX 12 13 0 -2
BITMAP
0000
FC20
8440
FC80
8400
FC20
1040
FE80
4800
7820
9440
B280
0000
ENDCHAR
STARTCHAR 0x3147
ENCODING 12615
SWIDTH 857 0
DWIDTH 12 0
BBX 12 13 0 -2
BITMAP
0100
0100
EFE0
A920
A920
A920
E920
BFE0
A100
A280
E440
1820
0000
ENDCHAR
STARTCHAR 0x3148
ENCODING 12616
SWIDTH 857 0
DWIDTH 12 0
BBX 12 13 0 -2
BITMAP
0400
0400
7FC0
4440
7FC0
4440
7FC0
0240
0280
0300
0D20
F0E0
0000
ENDCHAR
STARTCHAR 0x3149
ENCODING 12617
SWIDTH 857 0
DWIDTH 12 0
BBX 12 13 0 -2
BITMAP
0840
4480
2100
FFE0
8420
0400
7FC0
0400
0D00
3480
C460
0400
0000
ENDCHAR
STARTCHAR 0x314A
ENCODING 12618
SWIDTH 857 0
DWIDTH 12 0
BBX 12 13 0 -2
BITMAP
1800
0600
0000
3C40
0480
F500
1600
1500
2480
4440
8420
1C00
0000
ENDCHAR
STARTCHAR 0x314B
ENCODING 12619
SWIDTH 857 0
DWIDTH 12 0
BBX 12 13 0 -2
BITMAP
0200
0100
8000
4F00
0120
9D40
4580
0500
4980
4940
9120
9300
0000
ENDCHAR
STARTCHAR 0x314C
ENCODING 12620
SWIDTH 857 0
DWIDTH 12 0
BBX 12 13 0 -2
BITMAP
0100
0100
9FE0
5120
1FE0
9120
5FE0
0120
0140
2180
46A0
9860
0000
ENDCHAR
STARTCHAR 0x314D
ENCODING 12621
SWIDTH 857 0
DWIDTH 12 0
BBX 12 13 0 -2
BITMAP
0440
0440
EFE0
4540
4100
EFE0
4920
4920
5FE0
4280
E440
1820
0000
ENDCHAR
STARTCHAR 0x314E
ENCODING 12622
SWIDTH 857 0
DWIDTH 12 0
BBX 12 13 0 -2
BITMAP
0000
FF80
2100
3DE0
4520
5820
8CC0
9000
7FC0
4A40
4A40
FFE0
0000
ENDCHAR
STARTCHAR 0x314F
ENCODING 12623
SWIDTH 857 0
DWIDTH 12 0
BBX 12 13 0 -2
BITMAP
0000
8FE0
F100
87E0
F420
07E0
F420
27E0
FC20
27E0
7240
AC20
0000
ENDCHAR
STARTCHAR 0x3150
ENCODING 12624
SWIDTH 857 0
DWIDTH 12 0
BBX 12 13 0 -2
BITMAP
0000
8FE0
F100
87E0
F420
07E0
F420
07E0
FC20
27E0
A240
AC20
0000
ENDCHAR
STARTCHAR 0x3151
ENCODING 12625
SWIDTH 857 0
DWIDTH 12 0
BBX 12 13 0 -2
BITMAP
1100
1100
FFE0
1500
0400
3F80
2480
2480
FFE0
0A00
3180
C060
0000
ENDCHAR
STARTCHAR 0x3152
ENCODING 12626
SWIDTH 857 0
DWIDTH 12 0
BBX 12 13 0 -2
BITMAP
0400
24E0
5F00
8500
1FE0
2920
4F20
C220
5FA0
5220
7FA0
4260
0000
ENDCHAR
STARTCHAR 0x3153
ENCODING 12627
SWIDTH 857 0
DWIDTH 12 0
BBX 12 13 0 -2
BITMAP
0200
E100
0000
EF00
0120
E140
1D80
0500
E580
A940
B120
E700
0000
ENDCHAR
STARTCHAR 0x3154
ENCODING 12628
SWIDTH 857 0
DWIDTH 12 0
BBX 12 13 0 -2
BITMAP
0440
3240
4880
87E0
F420
2420
F7E0
2280
B280
A280
24A0
F8E0
0000
ENDCHAR
STARTCHAR 0x3155
ENCODING 12629
SWIDTH 857 0
DWIDTH 12 0
BBX 12 13 0 -2
BITMAP
0100
0100
BFE0
4900
09C0
9240
5240
3540
5540
5080
9180
9660
0000
ENDCHAR
STARTCHAR 0x3156
ENCODING 12630
SWIDTH 857 0
DWIDTH 12 0
BBX 12 13 0 -2
BITMAP
0200
0200
7FE0
4000
CF80
48A0
58E0
C000
5FC0
4840
8780
B860
0000
ENDCHAR
STARTCHAR 0x3157
ENCODING 12631
SWIDTH 857 0
DWIDTH 12 0
BBX 12 13 0 -2
BITMAP
2100
1100
0200
FFE0
1100
2080
4040
FFE0
4A40
4A40
4A40
FFE0
0000
ENDCHAR
STARTCHAR 0x3158
ENCODING 12632
SWIDTH 857 0
DWIDTH 12 0
BBX 12 13 0 -2
BITMAP
0000
FBE0
A220
FA20
A220
FBE0
A280
FA80
0A40
AA40
0C20
3420
0000
ENDCHAR
STARTCHAR 0x3159
ENCODING 12633
SWIDTH 857 0
DWIDTH 12 0
BBX 12 13 0 -2
BITMAP
0440
2240
2080
27E0
B420
AC20
A7E0
A280
A280
2280
24A0
38E0
0000
ENDCHAR
STARTCHAR 0x315A
ENCODING 12634
SWIDTH 857 0
DWIDTH 12 0
BBX 12 13 0 -2
BITMAP
0000
EFC0
0840
EFC0
0840
EFC0
0400
0FE0
F820
A920
AF20
E0C0
0000
ENDCHAR
STARTCHAR 0x315B
ENCODING 12635
SWIDTH 857 0
DWIDTH 12 0
BBX 12 13 0 -2
BITMAP
2080
20A0
FBE0
2280
22A0
FEA0
2240
3A40
A2A0
A720
F000
8FE0
0000
ENDCHAR
STARTCHAR 0x315C
ENCODING 12636
SWIDTH 857 0
DWIDTH 12 0
BBX 12 13 0 -2
BITMAP
0000
FBE0
8A20
FBE0
8A20
FBE0
8A20
9F20
9120
9F20
8AA0
B3A0
0000
ENDCHAR
STARTCHAR 0x315D
ENCODING 12637
SWIDTH 857 0
DWIDTH 12 0
BBX 12 13 0 -2
BITMAP
0000
2FE0
2100
F7E0
2420
27E0
6420
67E0
A440
AA40
2180
2E60
0000
ENDCHAR
STARTCHAR 0x315E
ENCODING 12638
SWIDTH 857 0
DWIDTH 12 0
BBX 12 13 0 -2
BITMAP
0000
FFE0
A480
BCA0
83E0
BC80
A480
BCC0
A540
BD40
A620
AC20
0000
ENDCHAR
STARTCHAR 0x315F
ENCODING 12639
SWIDTH 857 0
DWIDTH 12 0
BBX 12 13 0 -2
BITMAP
0000
FFE0
8420
8420
8420
8420
FFE0
8020
8020
8020
8020
80E0
0000
ENDCHAR
STARTCHAR 0x3160
ENCODING 12640
SWIDTH 857 0
DWIDTH 12 0
BBX 12 13 0 -2
BITMAP
0000
FFE0
8420
BFA0
8420
FFE0
9120
9F20
8AA0
B920
88A0
FFE0
0000
ENDCHAR
STARTCHAR 0x3161
ENCODING 12641
SWIDTH 857 0
DWIDTH 12 0
BBX 12 13 0 -2
BITMAP
0000
4FE0
4A20
4BE0
EA20
4BE0
4900
4FE0
4940
49C0
EA20
0FE0
0000
ENDCHAR
STARTCHAR 0x3162
ENCODING 12642
SWIDTH 857 0
DWIDTH 12 0
BBX 12 13 0 -2
BITMAP
0400
0400
FFE0
1100
2480
7FE0
A480
3F80
2480
3F80
0420
07E0
0000
ENDCHAR
STARTCHAR 0x3163
ENCODING 12643
SWIDTH 857 0
DWIDTH 12 0
BBX 12 13 0 -2
BITMAP
0400
0400
FFE0
A0A0
BFA0
2080
3F80
0800
FFE0
1080
1F00
60C0
0000
ENDCHAR
STARTCHAR 0x3164
ENCODING 12644
SWIDTH 857 0
DWIDTH 12 0
BBX 12 13 0 -2
BITMAP
0000
00C0
EF00
2100
4100
85E0
E500
2500
A500
4FE0
B000
8FE0
0000
ENDCHAR
STARTCHAR 0x3165
ENCODING 12645
SWIDTH 857 0
DWIDTH 12 0
BBX 12 13 0 -2
BITMAP
0000
7BE0
4A20
6A20
9AE0
0A00
3220
C1E0
0400
1240
5020
8F80
0000
ENDCHAR
STARTCHAR 0x3166
ENCODING 12646
SWIDTH 857 0
DWIDTH 12 0
BBX 12 13 0 -2
BITMAP
0100
4100
5FE0
E440
4920
5FE0
4920
6FE0
C920
4FE0
4100
C1E0
0000
ENDCHAR
STARTCHAR 0x3167
ENCODING 12647
SWIDTH 857 0
DWIDTH 12 0
BBX 12 13 0 -2
BITMAP
0000
5FE0
4520
E540
4FE0
4100
5FE0
6200
C7C0
5A40
4180
CE60
0000
ENDCHAR
STARTCHAR 0x3168
ENCODING 12648
SWIDTH 857 0
DWIDTH 12 0
BBX 12 13 0 -2
BITMAP
0000
03C0
8040
4440
0420
8820
4800
07E0
0420
2420
4420
87E0
0000
ENDCHAR
STARTCHAR 0x3169
ENCODING 12649
SWIDTH 857 0
DWIDTH 12 0
BBX 12 13 0 -2
BITMAP
0100
0100
9FE0
5020
0FE0
8100
4FE0
0920
4FE0
4920
8FE0
B020
0000
ENDCHAR
STARTCHAR 0x316A
ENCODING 12650
SWIDTH 857 0
DWIDTH 12 0
BBX 12 13 0 -2
BITMAP
0400
0400
2440
4480
0A00
3180
C460
2480
2480
0A00
3180
C060
0000
ENDCHAR
STARTCHAR 0x316B
ENCODING 12651
SWIDTH 857 0
DWIDTH 12 0
BBX 12 13 0 -2
BITMAP
0000
23C0
2440
A880
A3E0
AA20
2A20
2BE0
5A20
4A20
8A20
8BE0
0000
ENDCHAR
STARTCHAR 0x316C
ENCODING 12652
SWIDTH 857 0
DWIDTH 12 0
BBX 12 13 0 -2
BITMAP
0000
2FE0
2280
AFE0
AAA0
AAA0
2FE0
2100
57E0
5100
8100
8FE0
0000
ENDCHAR
STARTCHAR 0x316D
ENCODING 12653
SWIDTH 857 0
DWIDTH 12 0
BBX 12 13 0 -2
BITMAP
1100
1100
FFE0
0A00
2EA0
E0C0
2E80
6AA0
AEE0
0000
5240
8920
0000
ENDCHAR
STARTCHAR 0x316E
ENCODING 12654
SWIDTH 857 0
DWIDTH 12 0
BBX 12 13 0 -2
BITMAP
0100
2100
AFE0
4100
5FE0
A440
2440
67C0
A2A0
3CA0
2440
CF20
0000
ENDCHAR
STARTCHAR 0x316F
ENCODING 12655
SWIDTH 857 0
DWIDTH 12 0
BBX 12 13 0 -2
BITMAP
0000
27C0
4040
87C0
E040
2FE0
4100
F6A0
21C0
A6A0
B8A0
2380
0000
ENDCHAR
STARTCHAR 0x3170
ENCODING 12656
SWIDTH 857 0
DWIDTH 12 0
BBX 12 13 0 -2
BITMAP
2400
25C0
FE40
A480
FFE0
A4A0
FCA0
47E0
7C00
2400
2420
FFE0
0000
ENDCHAR
STARTCHAR 0x3171
ENCODING 12657
SWIDTH 857 0
DWIDTH 12 0
BBX 12 13 0 -2
BITMAP
1100
1100
FFE0
1100
4000
7BC0
4A40
6A40
9AC0
0A00
3220
C1E0
0000
ENDCHAR
STARTCHAR 0x3172
ENCODING 12658
SWIDTH 857 0
DWIDTH 12 0
BBX 12 13 0 -2
BITMAP
1100
1100
FFE0
1100
FFE0
8420
BFA0
9120
9F20
AAA0
8920
FFE0
0000
ENDCHAR
STARTCHAR 0x3173
ENCODING 12659
SWIDTH 857 0
DWIDTH 12 0
BBX 12 13 0 -2
BITMAP
0100
0100
8FE0
4100
1FE0
0440
E7C0
2120
2540
2920
5000
8FE0
0000
ENDCHAR
STARTCHAR 0x3174
ENCODING 12660
SWIDTH 857 0
DWIDTH 12 0
BBX 12 13 0 -2
BITMAP
0000
31C0
4840
8240
F220
2420
F400
23E0
AA20
AA20
2220
FBE0
0000
ENDCHAR
STARTCHAR 0x3175
ENCODING 12661
SWIDTH 857 0
DWIDTH 12 0
BBX 12 13 0 -2
BITMAP
0000
7BE0
4A20
AAE0
1200
3FA0
E0E0
3F80
2080
3FE0
4020
9560
0000
ENDCHAR
STARTCHAR 0x3176
ENCODING 12662
SWIDTH 857 0
DWIDTH 12 0
BBX 12 13 0 -2
BITMAP
0400
4400
47E0
4800
F7C0
4440
47C0
4000
4FE0
4AA0
EAA0
1FE0
0000
ENDCHAR
STARTCHAR 0x3177
ENCODING 12663
SWIDTH 857 0
DWIDTH 12 0
BBX 12 13 0 -2
BITMAP
2000
21C0
2220
FC00
2000
2180
3C60
4400
4400
8400
8980
3060
0000
ENDCHAR
STARTCHAR 0x3178
ENCODING 12664
SWIDTH 857 0
DWIDTH 12 0
BBX 12 13 0 -2
BITMAP
0000
1FE0
8200
4200
1FE0
8400
4400
07E0
0820
2820
4040
8180
0000
ENDCHAR
STARTCHAR 0x3179
ENCODING 12665
SWIDTH 857 0
DWIDTH 12 0
BBX 12 13 0 -2
BITMAP
0000
2FE0
A920
FFE0
A920
2FE0
F100
2FE0
2220
2220
F420
04C0
0000
ENDCHAR
STARTCHAR 0x317A
ENCODING 12666
SWIDTH 857 0
DWIDTH 12 0
BBX 12 13 0 -2
BITMAP
0000
F1E0
9120
9120
9120
9120
9F20
8020
8020
8020
8020
FFE0
0000
ENDCHAR
STARTCHAR 0x317B
ENCODING 12667
SWIDTH 857 0
DWIDTH 12 0
BBX 12 13 0 -2
BITMAP
0400
0400
7FC0
4440
4440
4440
4440
FFE0
0400
0A00
3180
C060
0000
ENDCHAR
STARTCHAR 0x317C
ENCODING 12668
SWIDTH 857 0
DWIDTH 12 0
BBX 12 13 0 -2
BITMAP
0400
0800
7FC0
5540
4440
7FC0
4440
5540
FFE0
0A00
3180
C060
0000
ENDCHAR
STARTCHAR 0x317D
ENCODING 12669
SWIDTH 857 0
DWIDTH 12 0
BBX 12 13 0 -2
BITMAP
0200
2100
4000
8FE0
0100
2100
4100
CFE0
4100
4100
4100
4FE0
0000
ENDCHAR
STARTCHAR 0x317E
ENCODING 12670
SWIDTH 857 0
DWIDTH 12 0
BBX 12 13 0 -2
BITMAP
0200
0200
7FE0
4000
4200
4100
4000
4440
4420
5400
A420
83E0
0000
ENDCHAR
STARTCHAR 0x3221
ENCODING 12833
SWIDTH 857 0
DWIDTH 12 0
BBX 12 13 0 -2
BITMAP
0000
4FE0
4920
E920
4FE0
4920
4920
6920
CFE0
4100
4100
C100
0000
ENDCHAR
STARTCHAR 0x3222
ENCODING 12834
SWIDTH 857 0
DWIDTH 12 0
BBX 12 13 0 -2
BITMAP
0000
0FE0
F100
9100
9100
9100
F7E0
9100
9100
9100
F100
0FE0
0000
ENDCHAR
STARTCHAR 0x3223
ENCODING 12835
SWIDTH 857 0
DWIDTH 12 0
BBX 12 13 0 -2
BITMAP
0480
2480
2FE0
E480
3FE0
2920
6FE0
6920
AFE0
A000
2440
2820
0000
ENDCHAR
STARTCHAR 0x3224
ENCODING 12836
SWIDTH 857 0
DWIDTH 12 0
BBX 12 13 0 -2
BITMAP
0200
FA00
83E0
92A0
D2A0
A2A0
A080
D080
8940
8140
F220
0C20
0000
ENDCHAR
STARTCHAR 0x3225
ENCODING 12837
SWIDTH 857 0
DWIDTH 12 0
BBX 12 13 0 -2
BITMAP
0000
FBC0
8240
9240
D240
A460
A000
D7E0
9220
8240
F180
0E60
0000
ENDCHAR
STARTCHAR 0x3226
ENCODING 12838
SWIDTH 857 0
DWIDTH 12 0
BBX 12 13 0 -2
BITMAP
0000
FFE0
0400
0400
0400
0400
7FC0
0400
0400
0400
0400
FFE0
0000
ENDCHAR
STARTCHAR 0x3227
ENCODING 12839
SWIDTH 857 0
DWIDTH 12 0
BBX 12 13 0 -2
BITMAP
0000
0F00
2080
C860
1080
7F80
0000
FBE0
4920
28A0
4920
9A60
0000
ENDCHAR
STARTCHAR 0x3228
ENCODING 12840
SWIDTH 857 0
DWIDTH 12 0
BBX 12 13 0 -2
BITMAP
0100
4200
4FE0
ED60
2BA0
2D60
4BA0
DD60
6100
5FE0
4440
5820
0000
ENDCHAR
STARTCHAR 0x3229
ENCODING 12841
SWIDTH 857 0
DWIDTH 12 0
BBX 12 13 0 -2
BITMAP
0400
2480
FFE0
8820
BFA0
2080
3F80
2080
3FE0
0020
5520
9560
0000
ENDCHAR
STARTCHAR 0x322A
ENCODING 12842
SWIDTH 857 0
DWIDTH 12 0
BBX 12 13 0 -2
BITMAP
0100
F200
87C0
9440
D7C0
A440
A7E0
D400
97E0
8020
F520
1560
0000
ENDCHAR
STARTCHAR 0x322B
ENCODING 12843
SWIDTH 857 0
DWIDTH 12 0
BBX 12 13 0 -2
BITMAP
1100
1100
7FC0
1100
FFE0
0400
3F80
2480
3F80
2480
3F80
C060
0000
ENDCHAR
STARTCHAR 0x322C
ENCODING 12844
SWIDTH 857 0
DWIDTH 12 0
BBX 12 13 0 -2
BITMAP
0000
FFE0
8020
9120
9120
9220
BFA0
8420
A4A0
A4A0
BFA0
8060
0000
ENDCHAR
STARTCHAR 0x322D
ENCODING 12845
SWIDTH 857 0
DWIDTH 12 0
BBX 12 13 0 -2
BITMAP
0100
0100
8100
4FE0
0920
8920
4920
0FE0
0100
2100
4100
8100
0000
ENDCHAR
STARTCHAR 0x322E
ENCODING 12846
SWIDTH 857 0
DWIDTH 12 0
BBX 12 13 0 -2
BITMAP
1100
1100
FFE0
1000
5100
2100
6520
9540
3100
5180
9240
6C20
0000
ENDCHAR
STARTCHAR 0x322F
ENCODING 12847
SWIDTH 857 0
DWIDTH 12 0
BBX 12 13 0 -2
BITMAP
0100
2100
3FE0
4440
5FE0
C820
4FE0
4820
4FE0
4500
5440
67A0
0000
ENDCHAR
STARTCHAR 0x3230
ENCODING 12848
SWIDTH 857 0
DWIDTH 12 0
BBX 12 13 0 -2
BITMAP
0000
7FE0
4020
7FE0
4000
7FE0
4880
5FC0
4220
9FC0
8200
3FE0
0000
ENDCHAR
STARTCHAR 0x3231
ENCODING 12849
SWIDTH 857 0
DWIDTH 12 0
BBX 12 13 0 -2
BITMAP
0100
2100
2FE0
2440
BFE0
A820
AFE0
A820
AFE0
2500
3440
27A0
0000
ENDCHAR
STARTCHAR 0x3232
ENCODING 12850
SWIDTH 857 0
DWIDTH 12 0
BBX 12 13 0 -2
BITMAP
0100
E100
AFE0
A480
EFE0
A820
AFE0
E820
AFE0
A500
B440
A7A0
0000
ENDCHAR
STARTCHAR 0x3233
ENCODING 12851
SWIDTH 857 0
DWIDTH 12 0
BBX 12 13 0 -2
BITMAP
0000
2FC0
2080
F100
2FE0
2920
6FE0
6920
AFE0
A920
2920
2960
0000
ENDCHAR
STARTCHAR 0x3234
ENCODING 12852
SWIDTH 857 0
DWIDTH 12 0
BBX 12 13 0 -2
BITMAP
0080
A080
A080
F880
A7E0
A080
2080
3880
E080
2080
2080
27E0
0000
ENDCHAR
STARTCHAR 0x3235
ENCODING 12853
SWIDTH 857 0
DWIDTH 12 0
BBX 12 13 0 -2
BITMAP
0000
7F80
0080
0100
0200
0400
0800
1000
2040
4040
4040
3F80
0000
ENDCHAR
STARTCHAR 0x3236
ENCODING 12854
SWIDTH 857 0
DWIDTH 12 0
BBX 12 13 0 -2
BITMAP
0100
2100
3FE0
4440
4920
DFE0
6920
4FE0
4920
4FE0
4100
41E0
0000
ENDCHAR
STARTCHAR 0x3237
ENCODING 12855
SWIDTH 857 0
DWIDTH 12 0
BBX 12 13 0 -2
BITMAP
4000
4000
7DE0
9120
9120
FD20
1120
1D20
9120
9120
9D60
E100
0000
ENDCHAR
STARTCHAR 0x3238
ENCODING 12856
SWIDTH 857 0
DWIDTH 12 0
BBX 12 13 0 -2
BITMAP
0000
7FC0
4440
5F40
4440
4A40
5140
7FC0
0400
1240
5020
8F80
0000
ENDCHAR
STARTCHAR 0x3239
ENCODING 12857
SWIDTH 857 0
DWIDTH 12 0
BBX 12 13 0 -2
BITMAP
0000
0FC0
8840
4FC0
0840
8FC0
4000
0FE0
0AA0
2AA0
4AA0
9FE0
0000
ENDCHAR
STARTCHAR 0x323A
ENCODING 12858
SWIDTH 857 0
DWIDTH 12 0
BBX 12 13 0 -2
BITMAP
0000
1FE0
E520
2540
2FE0
F020
2FE0
6020
6FE0
A500
B440
27A0
0000
ENDCHAR
STARTCHAR 0x323B
ENCODING 12859
SWIDTH 857 0
DWIDTH 12 0
BBX 12 13 0 -2
BITMAP
0400
0400
7FC0
1100
1100
FFE0
0000
3F80
2080
3F80
2080
3F80
0000
ENDCHAR
STARTCHAR 0x323C
ENCODING 12860
SWIDTH 857 0
DWIDTH 12 0
BBX 12 13 0 -2
BITMAP
0000
FFE0
0400
0400
0400
0700
04C0
0400
0400
0400
0400
0400
0000
ENDCHAR
STARTCHAR 0x323D
ENCODING 12861
SWIDTH 857 0
DWIDTH 12 0
BBX 12 13 0 -2
BITMAP
0200
1200
1200
2220
2240
6280
A300
2200
2200
2220
2220
23E0
0000
ENDCHAR
STARTCHAR 0x323E
ENCODING 12862
SWIDTH 857 0
DWIDTH 12 0
BBX 12 13 0 -2
BITMAP
0000
2FE0
2800
4800
4FC0
C840
4A40
4940
5080
5080
4340
4C20
0000
ENDCHAR
STARTCHAR 0x323F
ENCODING 12863
SWIDTH 857 0
DWIDTH 12 0
BBX 12 13 0 -2
BITMAP
0000
2FE0
2040
4040
4E40
CA40
4A40
4A40
4E40
4040
4040
41C0
0000
ENDCHAR
STARTCHAR 0x3240
ENCODING 12864
SWIDTH 857 0
DWIDTH 12 0
BBX 12 13 0 -2
BITMAP
0800
2800
28E0
5EA0
4AA0
CAA0
4AA0
4AA0
52A0
52A0
42A0
4CE0
0000
ENDCHAR
STARTCHAR 0x3241
ENCODING 12865
SWIDTH 857 0
DWIDTH 12 0
BBX 12 13 0 -2
BITMAP
0000
2FE0
2280
4280
4FE0
CAA0
4AA0
4AA0
4AA0
4AA0
4AA0
4FE0
0000
ENDCHAR
STARTCHAR 0x3242
ENCODING 12866
SWIDTH 857 0
DWIDTH 12 0
BBX 12 13 0 -2
BITMAP
0100
2100
2FE0
4100
4100
DFE0
4100
4100
4FE0
4100
4100
5FE0
0000
ENDCHAR
STARTCHAR 0x3243
ENCODING 12867
SWIDTH 857 0
DWIDTH 12 0
BBX 12 13 0 -2
BITMAP
2000
2000
21E0
FD20
2520
2520
2520
4520
4520
8520
8920
31E0
0000
ENDCHAR
STARTCHAR 0x3244
ENCODING 12868
SWIDTH 857 0
DWIDTH 12 0
BBX 12 13 0 -2
BITMAP
0000
FFE0
0080
0080
7880
4880
4880
4880
7880
0080
0080
0380
0000
ENDCHAR
STARTCHAR 0x3245
ENCODING 12869
SWIDTH 857 0
DWIDTH 12 0
BBX 12 13 0 -2
BITMAP
0400
0400
FFE0
0400
7FC0
2080
3F80
1100
FFE0
2A40
4A40
9BC0
0000
ENDCHAR
STARTCHAR 0x3246
ENCODING 12870
SWIDTH 857 0
DWIDTH 12 0
BBX 12 13 0 -2
BITMAP
0000
FFE0
0400
3FC0
2040
3FC0
2040
3FC0
1080
6880
0F00
F0E0
0000
ENDCHAR
STARTCHAR 0x3247
ENCODING 12871
SWIDTH 857 0
DWIDTH 12 0
BBX 12 13 0 -2
BITMAP
0100
4100
5FE0
F020
57C0
5120
5340
9C80
E1C0
26A0
58A0
4300
0000
ENDCHAR
STARTCHAR 0x3248
ENCODING 12872
SWIDTH 857 0
DWIDTH 12 0
BBX 12 13 0 -2
BITMAP
0400
0400
FFE0
8020
BFA0
2400
0C40
7280
0700
1A80
E260
0C00
0000
ENDCHAR
STARTCHAR 0x3249
ENCODING 12873
SWIDTH 857 0
DWIDTH 12 0
BBX 12 13 0 -2
BITMAP
0400
0400
FFE0
9120
9F20
1100
FFE0
2080
7FC0
88A0
1080
6300
0000
ENDCHAR
STARTCHAR 0x324A
ENCODING 12874
SWIDTH 857 0
DWIDTH 12 0
BBX 12 13 0 -2
BITMAP
0000
1840
E240
2140
2040
F440
2240
6060
71C0
AE40
A040
2040
0000
ENDCHAR
STARTCHAR 0x324B
ENCODING 12875
SWIDTH 857 0
DWIDTH 12 0
BBX 12 13 0 -2
BITMAP
0000
1EE0
F220
9220
9EE0
9000
F1E0
9E20
90A0
9EA0
F0C0
1320
0000
ENDCHAR
STARTCHAR 0x324C
ENCODING 12876
SWIDTH 857 0
DWIDTH 12 0
BBX 12 13 0 -2
BITMAP
0000
7FC0
4440
7FC0
4440
4440
7FC0
0400
FFE0
0D00
3480
C460
0000
ENDCHAR
STARTCHAR 0x324D
ENCODING 12877
SWIDTH 857 0
DWIDTH 12 0
BBX 12 13 0 -2
BITMAP
2000
21E0
FD20
2520
2520
4520
99E0
0400
FFE0
0D00
3480
C460
0000
ENDCHAR
STARTCHAR 0x324E
ENCODING 12878
SWIDTH 857 0
DWIDTH 12 0
BBX 12 13 0 -2
BITMAP
0200
FE00
ABE0
AAA0
EAA0
0AA0
FC80
0880
E940
A940
EA20
1C20
0000
ENDCHAR
STARTCHAR 0x324F
ENCODING 12879
SWIDTH 857 0
DWIDTH 12 0
BBX 12 13 0 -2
BITMAP
0000
3FE0
8040
4040
0E40
8A40
4A40
0A40
0E40
2040
4040
81C0
0000
ENDCHAR
STARTCHAR 0x3250
ENCODING 12880
SWIDTH 857 0
DWIDTH 12 0
BBX 12 13 0 -2
BITMAP
0400
0400
0400
2440
2440
4480
4480
0A00
0A00
1100
2080
C060
0000
ENDCHAR
STARTCHAR 0x3251
ENCODING 12881
SWIDTH 857 0
DWIDTH 12 0
BBX 12 13 0 -2
BITMAP
0000
1FE0
E040
4040
4E40
4A40
EA40
4A40
4E40
4040
E040
01C0
0000
ENDCHAR
STARTCHAR 0x3252
ENCODING 12882
SWIDTH 857 0
DWIDTH 12 0
BBX 12 13 0 -2
BITMAP
0000
47C0
4440
F5C0
1540
2FE0
4820
CBA0
6AA0
4AA0
4BA0
4860
0000
ENDCHAR
STARTCHAR 0x3253
ENCODING 12883
SWIDTH 857 0
DWIDTH 12 0
BBX 12 13 0 -2
BITMAP
0000
03C0
7C00
0400
0400
FFE0
0600
0D00
1480
2440
C420
0400
0000
ENDCHAR
STARTCHAR 0x3254
ENCODING 12884
SWIDTH 857 0
DWIDTH 12 0
BBX 12 13 0 -2
BITMAP
0100
1900
EFE0
2820
27C0
F120
2340
6C80
61C0
A6A0
B8A0
2300
0000
ENDCHAR
STARTCHAR 0x3255
ENCODING 12885
SWIDTH 857 0
DWIDTH 12 0
BBX 12 13 0 -2
BITMAP
0200
4200
7BE0
A480
0000
FFE0
8420
BFA0
8420
9F20
9120
FFE0
0000
ENDCHAR
STARTCHAR 0x3256
ENCODING 12886
SWIDTH 857 0
DWIDTH 12 0
BBX 12 13 0 -2
BITMAP
1100
1100
FFE0
1100
1000
1200
2260
6380
A200
2200
2220
23E0
0000
ENDCHAR
STARTCHAR 0x3257
ENCODING 12887
SWIDTH 857 0
DWIDTH 12 0
BBX 12 13 0 -2
BITMAP
1100
1100
FFE0
1100
0000
FFE0
0040
3C40
2440
2440
3C40
01C0
0000
ENDCHAR
STARTCHAR 0x3258
ENCODING 12888
SWIDTH 857 0
DWIDTH 12 0
BBX 12 13 0 -2
BITMAP
1100
1100
FFE0
1100
2000
21E0
FD20
2520
2520
4520
8920
31E0
0000
ENDCHAR
STARTCHAR 0x3259
ENCODING 12889
SWIDTH 857 0
DWIDTH 12 0
BBX 12 13 0 -2
BITMAP
1100
1100
FFE0
1100
2000
7FE0
C040
4E40
4A40
4A40
4E40
40C0
0000
ENDCHAR
STARTCHAR 0x325A
ENCODING 12890
SWIDTH 857 0
DWIDTH 12 0
BBX 12 13 0 -2
BITMAP
1100
1100
FFE0
1100
7FC0
2480
FFE0
2480
7FC0
0400
FFE0
0400
0000
ENDCHAR
STARTCHAR 0x325B
ENCODING 12891
SWIDTH 857 0
DWIDTH 12 0
BBX 12 13 0 -2
BITMAP
1100
1100
FFE0
1100
3F80
2480
3F80
2480
FFE0
0D00
3480
C460
0000
ENDCHAR
STARTCHAR 0x325C
ENCODING 12892
SWIDTH 857 0
DWIDTH 12 0
BBX 12 13 0 -2
BITMAP
0000
2FE0
2920
F920
AF60
A800
A9E0
FE20
28A0
2EA0
28C0
FB20
0000
ENDCHAR
STARTCHAR 0x325D
ENCODING 12893
SWIDTH 857 0
DWIDTH 12 0
BBX 12 13 0 -2
BITMAP
0000
EFE0
0920
EFE0
0920
E920
0FE0
0100
EFE0
A300
A540
F920
0000
ENDCHAR
STARTCHAR 0x325E
ENCODING 12894
SWIDTH 857 0
DWIDTH 12 0
BBX 12 13 0 -2
BITMAP
0240
0240
EFE0
A240
AFE0
A4A0
BFE0
A4A0
AFE0
A080
EFE0
0080
0000
ENDCHAR
STARTCHAR 0x325F
ENCODING 12895
SWIDTH 857 0
DWIDTH 12 0
BBX 12 13 0 -2
BITMAP
0200
1260
2380
E220
3FE0
2080
3F80
2080
3F80
2080
3F80
C060
0000
ENDCHAR
STARTCHAR 0x3260
ENCODING 12896
SWIDTH 857 0
DWIDTH 12 0
BBX 12 13 0 -2
BITMAP
0800
0800
88E0
5EA0
0AA0
0AA0
EAA0
2AA0
32A0
26E0
5000
8FE0
0000
ENDCHAR
STARTCHAR 0x3261
ENCODING 12897
SWIDTH 857 0
DWIDTH 12 0
BBX 12 13 0 -2
BITMAP
0000
07C0
4440
25C0
0540
0FE0
E820
2BA0
2AA0
2BA0
5000
8FE0
0000
ENDCHAR
STARTCHAR 0x3262
ENCODING 12898
SWIDTH 857 0
DWIDTH 12 0
BBX 12 13 0 -2
BITMAP
0000
7FC0
0400
FFE0
A520
1480
FBE0
8820
FFE0
8240
F980
8660
0000
ENDCHAR
STARTCHAR 0x3263
ENCODING 12899
SWIDTH 857 0
DWIDTH 12 0
BBX 12 13 0 -2
BITMAP
0080
2080
2080
FFE0
A440
A440
A540
FD40
2140
2880
2980
FE60
0000
ENDCHAR
STARTCHAR 0x3264
ENCODING 12900
SWIDTH 857 0
DWIDTH 12 0
BBX 12 13 0 -2
BITMAP
0080
26A0
38A0
4880
4BE0
FC80
48A0
4EA0
7840
4840
49A0
5E20
0000
ENDCHAR
STARTCHAR 0x3265
ENCODING 12901
SWIDTH 857 0
DWIDTH 12 0
BBX 12 13 0 -2
BITMAP
0080
2EA0
24A0
2480
A7E0
BC80
A4A0
A6A0
BC40
A440
F5A0
0E20
0000
ENDCHAR
STARTCHAR 0x3266
ENCODING 12902
SWIDTH 857 0
DWIDTH 12 0
BBX 12 13 0 -2
BITMAP
0100
1940
E120
2100
2FE0
F080
20A0
2CA0
F040
20C0
2120
6620
0000
ENDCHAR
STARTCHAR 0x3267
ENCODING 12903
SWIDTH 857 0
DWIDTH 12 0
BBX 12 13 0 -2
BITMAP
0000
7FC0
2100
2100
2100
FFE0
0300
0500
0900
3100
C100
0700
0000
ENDCHAR
STARTCHAR 0x3268
ENCODING 12904
SWIDTH 857 0
DWIDTH 12 0
BBX 12 13 0 -2
BITMAP
0000
FFE0
0400
3F80
2480
A4A0
BFA0
A4A0
A4A0
BFA0
8020
FFE0
0000
ENDCHAR
STARTCHAR 0x3269
ENCODING 12905
SWIDTH 857 0
DWIDTH 12 0
BBX 12 13 0 -2
BITMAP
0080
FC80
9080
9080
F880
8880
8940
F940
9240
9220
FC20
0420
0000
ENDCHAR
STARTCHAR 0x326A
ENCODING 12906
SWIDTH 857 0
DWIDTH 12 0
BBX 12 13 0 -2
BITMAP
1100
1100
FFE0
1100
7FC0
1100
1100
FFE0
0500
1900
E100
0700
0000
ENDCHAR
STARTCHAR 0x326B
ENCODING 12907
SWIDTH 857 0
DWIDTH 12 0
BBX 12 13 0 -2
BITMAP
0080
2EA0
24A0
F480
AFE0
A480
A4A0
FEA0
2440
2440
25A0
FE20
0000
ENDCHAR
STARTCHAR 0x326C
ENCODING 12908
SWIDTH 857 0
DWIDTH 12 0
BBX 12 13 0 -2
BITMAP
2000
23E0
FA20
2A20
4BE0
8880
3F80
2080
3F80
2080
3F80
C060
0000
ENDCHAR
STARTCHAR 0x326D
ENCODING 12909
SWIDTH 857 0
DWIDTH 12 0
BBX 12 13 0 -2
BITMAP
0200
FA40
5240
57E0
5480
5FE0
F480
1480
37E0
5480
9480
37E0
0000
ENDCHAR
STARTCHAR 0x326E
ENCODING 12910
SWIDTH 857 0
DWIDTH 12 0
BBX 12 13 0 -2
BITMAP
0080
6EA0
94A0
2480
FFE0
9480
F4A0
96A0
FC40
A440
95A0
EE20
0000
ENDCHAR
STARTCHAR 0x326F
ENCODING 12911
SWIDTH 857 0
DWIDTH 12 0
BBX 12 13 0 -2
BITMAP
2000
21E0
FD20
2520
7FE0
A400
3FC0
2400
3FE0
0020
5520
9560
0000
ENDCHAR
STARTCHAR 0x3270
ENCODING 12912
SWIDTH 857 0
DWIDTH 12 0
BBX 12 13 0 -2
BITMAP
0000
0E00
1100
2080
5140
9120
1100
1100
2100
2100
4100
4100
0000
ENDCHAR
STARTCHAR 0x3271
ENCODING 12913
SWIDTH 857 0
DWIDTH 12 0
BBX 12 13 0 -2
BITMAP
0000
0E00
1100
2080
5F40
8020
0000
FFE0
1080
1080
2340
3C40
0000
ENDCHAR
STARTCHAR 0x3272
ENCODING 12914
SWIDTH 857 0
DWIDTH 12 0
BBX 12 13 0 -2
BITMAP
0000
77E0
9120
2220
FCC0
AA80
FBE0
AA80
AC80
FBE0
8880
9880
0000
ENDCHAR
STARTCHAR 0x3273
ENCODING 12915
SWIDTH 857 0
DWIDTH 12 0
BBX 12 13 0 -2
BITMAP
0000
FFE0
8020
8020
9F20
9120
9120
9120
9F20
8020
8020
FFE0
0000
ENDCHAR
STARTCHAR 0x3274
ENCODING 12916
SWIDTH 857 0
DWIDTH 12 0
BBX 12 13 0 -2
BITMAP
0100
4200
4FE0
4920
EFE0
4920
4920
4FE0
4540
4540
E920
09E0
0000
ENDCHAR
STARTCHAR 0x3275
ENCODING 12917
SWIDTH 857 0
DWIDTH 12 0
BBX 12 13 0 -2
BITMAP
0100
4100
5FE0
4AA0
EAA0
4FE0
4200
5FE0
4520
5940
E880
0E60
0000
ENDCHAR
STARTCHAR 0x3276
ENCODING 12918
SWIDTH 857 0
DWIDTH 12 0
BBX 12 13 0 -2
BITMAP
0000
0FE0
E820
2BA0
4AA0
8AA0
EBA0
2820
AFE0
4000
B000
8FE0
0000
ENDCHAR
STARTCHAR 0x3277
ENCODING 12919
SWIDTH 857 0
DWIDTH 12 0
BBX 12 13 0 -2
BITMAP
0100
2100
2FE0
2120
A120
A120
BFE0
A100
A100
2280
2440
3820
0000
ENDCHAR
STARTCHAR 0x3278
ENCODING 12920
SWIDTH 857 0
DWIDTH 12 0
BBX 12 13 0 -2
BITMAP
0000
2FE0
2020
2240
A180
AE60
A100
A100
A7E0
2100
2100
2FE0
0000
ENDCHAR
STARTCHAR 0x3279
ENCODING 12921
SWIDTH 857 0
DWIDTH 12 0
BBX 12 13 0 -2
BITMAP
0400
2400
27E0
2800
AFC0
A540
A540
BFE0
AA40
2A40
2FE0
2080
0000
ENDCHAR
STARTCHAR 0x327A
ENCODING 12922
SWIDTH 857 0
DWIDTH 12 0
BBX 12 13 0 -2
BITMAP
0000
2FE0
2880
2880
AAA0
AAA0
AAA0
A880
A940
2140
2220
2C20
0000
ENDCHAR
STARTCHAR 0x327B
ENCODING 12923
SWIDTH 857 0
DWIDTH 12 0
BBX 12 13 0 -2
BITMAP
0100
2100
3FE0
2AA0
AAA0
AFE0
A200
BFE0
A520
3940
2880
2E60
0000
ENDCHAR
STARTCHAR 0x327C
ENCODING 12924
SWIDTH 857 0
DWIDTH 12 0
BBX 12 13 0 -2
BITMAP
0100
0120
FFE0
0100
2920
2920
FD40
2940
2880
4180
4640
1820
0000
ENDCHAR
STARTCHAR 0x327D
ENCODING 12925
SWIDTH 857 0
DWIDTH 12 0
BBX 12 13 0 -2
BITMAP
0000
47C0
4440
F440
47C0
4000
4000
6FE0
C220
4220
4420
D8C0
0000
ENDCHAR
STARTCHAR 0x327E
ENCODING 12926
SWIDTH 857 0
DWIDTH 12 0
BBX 12 13 0 -2
BITMAP
0200
0200
F3E0
1240
1440
F440
8140
8140
9080
9080
F340
0C20
0000
ENDCHAR
STARTCHAR 0x3321
ENCODING 13089
SWIDTH 857 0
DWIDTH 12 0
BBX 12 13 0 -2
BITMAP
1000
2120
FCA0
A420
FD20
A4A0
A420
FDE0
5420
5700
9020
9FE0
0000
ENDCHAR
STARTCHAR 0x3322
ENCODING 13090
SWIDTH 857 0
DWIDTH 12 0
BBX 12 13 0 -2
BITMAP
0400
0400
E7E0
A800
AFC0
A540
E540
BFE0
AA40
AA40
EFE0
0080
0000
ENDCHAR
STARTCHAR 0x3323
ENCODING 13091
SWIDTH 857 0
DWIDTH 12 0
BBX 12 13 0 -2
BITMAP
0080
20A0
2FE0
F080
2A80
2AA0
7FA0
6AA0
AA40
AA40
20A0
2320
0000
ENDCHAR
STARTCHAR 0x3324
ENCODING 13092
SWIDTH 857 0
DWIDTH 12 0
BBX 12 13 0 -2
BITMAP
0800
0800
8FE0
5000
1FC0
8940
4940
1FE0
5240
5240
9FE0
8080
0000
ENDCHAR
STARTCHAR 0x3325
ENCODING 13093
SWIDTH 857 0
DWIDTH 12 0
BBX 12 13 0 -2
BITMAP
0000
7FE0
4000
4100
4920
4920
4920
4100
4280
8280
8440
1820
0000
ENDCHAR
STARTCHAR 0x3326
ENCODING 13094
SWIDTH 857 0
DWIDTH 12 0
BBX 12 13 0 -2
BITMAP
0000
7FC0
4440
7FC0
4440
4440
7FC0
1100
3180
D140
1120
6100
0000
ENDCHAR
STARTCHAR 0x3327
ENCODING 13095
SWIDTH 857 0
DWIDTH 12 0
BBX 12 13 0 -2
BITMAP
0200
4200
7BE0
4200
4220
FBE0
0400
3FC0
2040
3FC0
2040
3FC0
0000
ENDCHAR
STARTCHAR 0x3328
ENCODING 13096
SWIDTH 857 0
DWIDTH 12 0
BBX 12 13 0 -2
BITMAP
0000
23C0
4420
9000
F7E0
2000
4000
F7E0
2100
B220
A420
27E0
0000
ENDCHAR
STARTCHAR 0x3329
ENCODING 13097
SWIDTH 857 0
DWIDTH 12 0
BBX 12 13 0 -2
BITMAP
1100
1100
FFE0
1100
0000
0E00
3180
D160
1100
1100
2100
2100
0000
ENDCHAR
STARTCHAR 0x332A
ENCODING 13098
SWIDTH 857 0
DWIDTH 12 0
BBX 12 13 0 -2
BITMAP
0000
7BE0
9120
FBE0
AA80
FFE0
8880
3F80
2480
3F80
0420
FFE0
0000
ENDCHAR
STARTCHAR 0x332B
ENCODING 13099
SWIDTH 857 0
DWIDTH 12 0
BBX 12 13 0 -2
BITMAP
0000
FBE0
8A20
FBE0
8A20
FBE0
8020
BFA0
8A20
BFA0
8A20
9260
0000
ENDCHAR
STARTCHAR 0x332C
ENCODING 13100
SWIDTH 857 0
DWIDTH 12 0
BBX 12 13 0 -2
BITMAP
0080
E880
AEE0
A880
C880
AEE0
A100
AFE0
A820
CFE0
8820
8FE0
0000
ENDCHAR
STARTCHAR 0x332D
ENCODING 13101
SWIDTH 857 0
DWIDTH 12 0
BBX 12 13 0 -2
BITMAP
0000
3FC0
2040
3FC0
2040
3FC0
2040
2040
3FC0
0000
1080
6060
0000
ENDCHAR
STARTCHAR 0x332E
ENCODING 13102
SWIDTH 857 0
DWIDTH 12 0
BBX 12 13 0 -2
BITMAP
2000
ABC0
FA40
0240
FA40
0240
FA40
8A40
FA40
5240
5440
F860
0000
ENDCHAR
STARTCHAR 0x332F
ENCODING 13103
SWIDTH 857 0
DWIDTH 12 0
BBX 12 13 0 -2
BITMAP
2100
2100
F900
47E0
8920
5120
2220
4A20
9420
2420
5040
8980
0000
ENDCHAR
STARTCHAR 0x3330
ENCODING 13104
SWIDTH 857 0
DWIDTH 12 0
BBX 12 13 0 -2
BITMAP
0100
4100
7900
4900
4D00
AB00
9980
0940
1120
1100
2100
C100
0000
ENDCHAR
STARTCHAR 0x3331
ENCODING 13105
SWIDTH 857 0
DWIDTH 12 0
BBX 12 13 0 -2
BITMAP
0100
0100
FFE0
9100
9220
9440
9280
9120
9640
9080
F340
0C20
0000
ENDCHAR
STARTCHAR 0x3332
ENCODING 13106
SWIDTH 857 0
DWIDTH 12 0
BBX 12 13 0 -2
BITMAP
0400
0400
FFE0
8420
BFA0
0400
3F80
0400
FFE0
2080
2080
3F80
0000
ENDCHAR
STARTCHAR 0x3333
ENCODING 13107
SWIDTH 857 0
DWIDTH 12 0
BBX 12 13 0 -2
BITMAP
0400
4420
7FE0
0000
7FE0
4200
5FC0
4200
5FC0
8200
8200
3FE0
0000
ENDCHAR
STARTCHAR 0x3334
ENCODING 13108
SWIDTH 857 0
DWIDTH 12 0
BBX 12 13 0 -2
BITMAP
0000
2FE0
2940
2F40
A940
B9E0
AF40
A840
AB40
2CC0
2140
2660
0000
ENDCHAR
STARTCHAR 0x3335
ENCODING 13109
SWIDTH 857 0
DWIDTH 12 0
BBX 12 13 0 -2
BITMAP
0000
2FE0
2940
FF40
2940
29E0
6F40
6840
AB40
ACC0
2140
2660
0000
ENDCHAR
STARTCHAR 0x3336
ENCODING 13110
SWIDTH 857 0
DWIDTH 12 0
BBX 12 13 0 -2
BITMAP
0000
0FE0
8880
4BE0
0880
8880
4FE0
0880
4BE0
5080
9080
87E0
0000
ENDCHAR
STARTCHAR 0x3337
ENCODING 13111
SWIDTH 857 0
DWIDTH 12 0
BBX 12 13 0 -2
BITMAP
0000
07E0
F420
27E0
2420
27E0
7040
DFE0
5040
5440
5240
70C0
0000
ENDCHAR
STARTCHAR 0x3338
ENCODING 13112
SWIDTH 857 0
DWIDTH 12 0
BBX 12 13 0 -2
BITMAP
1100
1100
FFE0
1100
0400
FFE0
1080
7FC0
0020
7FC0
4A40
FFE0
0000
ENDCHAR
STARTCHAR 0x3339
ENCODING 13113
SWIDTH 857 0
DWIDTH 12 0
BBX 12 13 0 -2
BITMAP
0400
24E0
5F00
8400
04E0
3F20
4420
C420
5F20
4420
4420
5F60
0000
ENDCHAR
STARTCHAR 0x333A
ENCODING 13114
SWIDTH 857 0
DWIDTH 12 0
BBX 12 13 0 -2
BITMAP
0100
E100
0FE0
E100
0220
E440
0280
0120
E640
A080
A340
EC20
0000
ENDCHAR
STARTCHAR 0x333B
ENCODING 13115
SWIDTH 857 0
DWIDTH 12 0
BBX 12 13 0 -2
BITMAP
0100
3520
47E0
8000
F7E0
2000
FFE0
2420
B7E0
A240
2240
FFE0
0000
ENDCHAR
STARTCHAR 0x333C
ENCODING 13116
SWIDTH 857 0
DWIDTH 12 0
BBX 12 13 0 -2
BITMAP
0100
7900
4FE0
5900
4A20
FD40
8480
7920
4E40
7880
4940
5E20
0000
ENDCHAR
STARTCHAR 0x333D
ENCODING 13117
SWIDTH 857 0
DWIDTH 12 0
BBX 12 13 0 -2
BITMAP
0000
0FE0
8920
4FE0
0920
8920
4FE0
0100
0FE0
2100
4100
8FE0
0000
ENDCHAR
STARTCHAR 0x333E
ENCODING 13118
SWIDTH 857 0
DWIDTH 12 0
BBX 12 13 0 -2
BITMAP
1000
FFC0
1240
FC60
5580
7E60
8400
FFE0
2480
7FC0
A0A0
3F80
0000
ENDCHAR
STARTCHAR 0x333F
ENCODING 13119
SWIDTH 857 0
DWIDTH 12 0
BBX 12 13 0 -2
BITMAP
0080
2080
23E0
F880
A880
AFE0
A880
F880
23E0
2880
2880
FFE0
0000
ENDCHAR
STARTCHAR 0x3340
ENCODING 13120
SWIDTH 857 0
DWIDTH 12 0
BBX 12 13 0 -2
BITMAP
0000
5FE0
4000
4FC0
E840
4840
4FC0
4840
4840
4FC0
E000
1FE0
0000
ENDCHAR
STARTCHAR 0x3341
ENCODING 13121
SWIDTH 857 0
DWIDTH 12 0
BBX 12 13 0 -2
BITMAP
0100
2100
2FE0
F100
2100
2FE0
6920
6920
A920
A920
2960
2100
0000
ENDCHAR
STARTCHAR 0x3342
ENCODING 13122
SWIDTH 857 0
DWIDTH 12 0
BBX 12 13 0 -2
BITMAP
0000
27E0
2400
FC00
A7E0
A500
A500
FDE0
2220
2220
2420
FCC0
0000
ENDCHAR
STARTCHAR 0x3343
ENCODING 13123
SWIDTH 857 0
DWIDTH 12 0
BBX 12 13 0 -2
BITMAP
0400
3400
47E0
8820
FA20
2220
FA20
24A0
B4A0
A7A0
2020
F8C0
0000
ENDCHAR
STARTCHAR 0x3344
ENCODING 13124
SWIDTH 857 0
DWIDTH 12 0
BBX 12 13 0 -2
BITMAP
0000
FC20
2520
FD20
2520
FD20
2120
FF20
A520
FC20
A420
FE60
0000
ENDCHAR
STARTCHAR 0x3345
ENCODING 13125
SWIDTH 857 0
DWIDTH 12 0
BBX 12 13 0 -2
BITMAP
0480
0480
EFE0
A480
A480
BFE0
A540
AD40
B560
A540
E940
0B40
0000
ENDCHAR
STARTCHAR 0x3346
ENCODING 13126
SWIDTH 857 0
DWIDTH 12 0
BBX 12 13 0 -2
BITMAP
1000
1000
1F80
2080
4900
0600
1980
E060
3F80
2080
2080
3F80
0000
ENDCHAR
STARTCHAR 0x3347
ENCODING 13127
SWIDTH 857 0
DWIDTH 12 0
BBX 12 13 0 -2
BITMAP
0400
0400
FFE0
9000
FDE0
A520
BD40
8940
9120
FF20
89C0
B900
0000
ENDCHAR
STARTCHAR 0x3348
ENCODING 13128
SWIDTH 857 0
DWIDTH 12 0
BBX 12 13 0 -2
BITMAP
0100
4100
4FE0
F800
4900
4900
4900
6A40
CA40
5240
54A0
C720
0000
ENDCHAR
STARTCHAR 0x3349
ENCODING 13129
SWIDTH 857 0
DWIDTH 12 0
BBX 12 13 0 -2
BITMAP
0200
4940
4480
FFE0
4820
4FC0
4840
6840
CFC0
4280
44A0
D8E0
0000
ENDCHAR
STARTCHAR 0x334A
ENCODING 13130
SWIDTH 857 0
DWIDTH 12 0
BBX 12 13 0 -2
BITMAP
0200
2200
23E0
F420
2A40
2180
6240
7420
AFE0
A420
2420
27E0
0000
ENDCHAR
STARTCHAR 0x334B
ENCODING 13131
SWIDTH 857 0
DWIDTH 12 0
BBX 12 13 0 -2
BITMAP
0100
2100
2FE0
F100
2220
2440
6280
6120
B640
A080
2340
2C20
0000
ENDCHAR
STARTCHAR 0x334C
ENCODING 13132
SWIDTH 857 0
DWIDTH 12 0
BBX 12 13 0 -2
BITMAP
2000
23C0
FA40
2240
FA40
0460
F800
8FE0
7220
5240
9180
9E60
0000
ENDCHAR
STARTCHAR 0x334D
ENCODING 13133
SWIDTH 857 0
DWIDTH 12 0
BBX 12 13 0 -2
BITMAP
0240
2240
AFE0
4240
47E0
AC80
27E0
6480
AFE0
2440
2380
CC60
0000
ENDCHAR
STARTCHAR 0x334E
ENCODING 13134
SWIDTH 857 0
DWIDTH 12 0
BBX 12 13 0 -2
BITMAP
0100
0100
FFE0
2A20
2280
27E0
7C80
D480
57E0
5480
5480
77E0
0000
ENDCHAR
STARTCHAR 0x334F
ENCODING 13135
SWIDTH 857 0
DWIDTH 12 0
BBX 12 13 0 -2
BITMAP
0240
1A40
EFE0
2240
27E0
FC80
27E0
6480
6FE0
A440
A380
2C60
0000
ENDCHAR
STARTCHAR 0x3350
ENCODING 13136
SWIDTH 857 0
DWIDTH 12 0
BBX 12 13 0 -2
BITMAP
0480
2500
FFE0
A0A0
BFA0
2080
3F80
2080
3FA0
1220
2220
C3E0
0000
ENDCHAR
STARTCHAR 0x3351
ENCODING 13137
SWIDTH 857 0
DWIDTH 12 0
BBX 12 13 0 -2
BITMAP
0000
1F80
2100
7FC0
C440
7FC0
4440
4440
7FC0
4040
8040
81C0
0000
ENDCHAR
STARTCHAR 0x3352
ENCODING 13138
SWIDTH 857 0
DWIDTH 12 0
BBX 12 13 0 -2
BITMAP
1100
1100
FFE0
1100
1100
FFE0
2A80
AAA0
AAA0
AAA0
4880
5980
0000
ENDCHAR
STARTCHAR 0x3353
ENCODING 13139
SWIDTH 857 0
DWIDTH 12 0
BBX 12 13 0 -2
BITMAP
0100
2100
FFE0
2000
FA40
AC20
F800
AA40
F940
2080
F940
2620
0000
ENDCHAR
STARTCHAR 0x3354
ENCODING 13140
SWIDTH 857 0
DWIDTH 12 0
BBX 12 13 0 -2
BITMAP
1000
11E0
FF20
0120
7D40
4580
7D40
0920
1120
FF20
11C0
7100
0000
ENDCHAR
STARTCHAR 0x3355
ENCODING 13141
SWIDTH 857 0
DWIDTH 12 0
BBX 12 13 0 -2
BITMAP
0000
FBE0
8A20
FBE0
8A20
FFE0
9120
AE20
9120
BFA0
9120
9F60
0000
ENDCHAR
STARTCHAR 0x3356
ENCODING 13142
SWIDTH 857 0
DWIDTH 12 0
BBX 12 13 0 -2
BITMAP
0000
EFE0
A000
A7C0
C440
A7C0
A000
AFE0
AAA0
CC60
8BA0
8920
0000
ENDCHAR
STARTCHAR 0x3357
ENCODING 13143
SWIDTH 857 0
DWIDTH 12 0
BBX 12 13 0 -2
BITMAP
1100
1100
FFE0
1100
1F00
0400
7FC0
4440
7FC0
0400
FFE0
0400
0000
ENDCHAR
STARTCHAR 0x3358
ENCODING 13144
SWIDTH 857 0
DWIDTH 12 0
BBX 12 13 0 -2
BITMAP
0840
4480
2100
FFE0
8020
BF20
0200
0400
FFE0
0400
0400
1C00
0000
ENDCHAR
STARTCHAR 0x3359
ENCODING 13145
SWIDTH 857 0
DWIDTH 12 0
BBX 12 13 0 -2
BITMAP
0000
0380
3C00
2000
3FC0
2100
2100
FFE0
0400
4440
4440
7FC0
0000
ENDCHAR
STARTCHAR 0x335A
ENCODING 13146
SWIDTH 857 0
DWIDTH 12 0
BBX 12 13 0 -2
BITMAP
0400
0800
9F20
5140
1F00
5140
9F20
0400
FFE0
0D00
3480
C460
0000
ENDCHAR
STARTCHAR 0x335B
ENCODING 13147
SWIDTH 857 0
DWIDTH 12 0
BBX 12 13 0 -2
BITMAP
1000
13E0
FC80
ABE0
AA20
53E0
2A20
47E0
FA20
4BE0
4A40
7C20
0000
ENDCHAR
STARTCHAR 0x335C
ENCODING 13148
SWIDTH 857 0
DWIDTH 12 0
BBX 12 13 0 -2
BITMAP
0000
FBE0
A880
FBE0
0220
FBE0
0220
FBE0
4220
FBE0
8940
3620
0000
ENDCHAR
STARTCHAR 0x335D
ENCODING 13149
SWIDTH 857 0
DWIDTH 12 0
BBX 12 13 0 -2
BITMAP
0400
4440
4F40
E440
4440
5F40
4460
6450
CF40
4440
4440
DF40
0000
ENDCHAR
STARTCHAR 0x335E
ENCODING 13150
SWIDTH 857 0
DWIDTH 12 0
BBX 12 13 0 -2
BITMAP
0200
4200
7BE0
A480
2480
0400
7FC0
1100
1100
1200
0200
FFE0
0000
ENDCHAR
STARTCHAR 0x335F
ENCODING 13151
SWIDTH 857 0
DWIDTH 12 0
BBX 12 13 0 -2
BITMAP
0000
2FE0
2A20
FFA0
2940
2F40
6AA0
6FA0
A100
A7E0
2100
2FE0
0000
ENDCHAR
STARTCHAR 0x3360
ENCODING 13152
SWIDTH 857 0
DWIDTH 12 0
BBX 12 13 0 -2
BITMAP
0000
2FE0
2520
F7E0
2520
27E0
6000
6FE0
A520
A7E0
2520
2FE0
0000
ENDCHAR
STARTCHAR 0x3361
ENCODING 13153
SWIDTH 857 0
DWIDTH 12 0
BBX 12 13 0 -2
BITMAP
0000
27E0
2420
F7E0
2400
27E0
6480
77E0
A480
ABE0
2880
20E0
0000
ENDCHAR
STARTCHAR 0x3362
ENCODING 13154
SWIDTH 857 0
DWIDTH 12 0
BBX 12 13 0 -2
BITMAP
0080
7380
9C80
24A0
F4A0
AFA0
F480
A4C0
FD40
0540
AA20
AA20
0000
ENDCHAR
STARTCHAR 0x3363
ENCODING 13155
SWIDTH 857 0
DWIDTH 12 0
BBX 12 13 0 -2
BITMAP
0200
0CC0
8840
4DC0
0840
8FC0
4400
0FE0
5020
4AA0
8A20
80C0
0000
ENDCHAR
STARTCHAR 0x3364
ENCODING 13156
SWIDTH 857 0
DWIDTH 12 0
BBX 12 13 0 -2
BITMAP
1000
1020
FF20
9120
FD20
1120
7D20
1120
FD20
4420
4420
7C60
0000
ENDCHAR
STARTCHAR 0x3365
ENCODING 13157
SWIDTH 857 0
DWIDTH 12 0
BBX 12 13 0 -2
BITMAP
0000
0FC0
E840
AFC0
A840
AFC0
A400
AFE0
B820
A920
EF20
00C0
0000
ENDCHAR
STARTCHAR 0x3366
ENCODING 13158
SWIDTH 857 0
DWIDTH 12 0
BBX 12 13 0 -2
BITMAP
0000
23C0
2420
2800
A000
A7E0
A000
A000
A7E0
2420
2420
27E0
0000
ENDCHAR
STARTCHAR 0x3367
ENCODING 13159
SWIDTH 857 0
DWIDTH 12 0
BBX 12 13 0 -2
BITMAP
0000
2060
2780
F080
2080
27E0
2080
3080
E7E0
2420
2420
67E0
0000
ENDCHAR
STARTCHAR 0x3368
ENCODING 13160
SWIDTH 857 0
DWIDTH 12 0
BBX 12 13 0 -2
BITMAP
0000
00E0
8F00
4100
0100
8FE0
4100
0100
0FE0
2820
4820
8FE0
0000
ENDCHAR
STARTCHAR 0x3369
ENCODING 13161
SWIDTH 857 0
DWIDTH 12 0
BBX 12 13 0 -2
BITMAP
0000
0FC0
8840
4FC0
0840
8FC0
4400
0FE0
5820
4920
8F20
80C0
0000
ENDCHAR
STARTCHAR 0x336A
ENCODING 13162
SWIDTH 857 0
DWIDTH 12 0
BBX 12 13 0 -2
BITMAP
0000
0FC0
8840
4BC0
0A40
9FE0
5020
0FC0
0840
2FC0
4840
88C0
0000
ENDCHAR
STARTCHAR 0x336B
ENCODING 13163
SWIDTH 857 0
DWIDTH 12 0
BBX 12 13 0 -2
BITMAP
1100
1100
FFE0
2080
3F80
2080
3F80
1000
3FE0
E020
2220
3EC0
0000
ENDCHAR
STARTCHAR 0x336C
ENCODING 13164
SWIDTH 857 0
DWIDTH 12 0
BBX 12 13 0 -2
BITMAP
0000
4FC0
4840
EFC0
2840
2FC0
4400
EFE0
5820
4920
4F20
40C0
0000
ENDCHAR
STARTCHAR 0x336D
ENCODING 13165
SWIDTH 857 0
DWIDTH 12 0
BBX 12 13 0 -2
BITMAP
0080
2080
FFE0
24A0
FBE0
A880
FBE0
A880
FFE0
2220
FA20
23E0
0000
ENDCHAR
STARTCHAR 0x336E
ENCODING 13166
SWIDTH 857 0
DWIDTH 12 0
BBX 12 13 0 -2
BITMAP
0000
3F80
2080
2080
3F80
2080
2080
3F80
2080
2080
2080
FFE0
0000
ENDCHAR
STARTCHAR 0x336F
ENCODING 13167
SWIDTH 857 0
DWIDTH 12 0
BBX 12 13 0 -2
BITMAP
0000
6FE0
AA20
4FA0
F940
AF40
FAA0
AFA0
F880
03E0
A880
AFE0
0000
ENDCHAR
STARTCHAR 0x3370
ENCODING 13168
SWIDTH 857 0
DWIDTH 12 0
BBX 12 13 0 -2
BITMAP
0080
0080
F080
9080
9FE0
9080
9080
9080
9080
9080
F080
0080
0000
ENDCHAR
STARTCHAR 0x3371
ENCODING 13169
SWIDTH 857 0
DWIDTH 12 0
BBX 12 13 0 -2
BITMAP
0480
2480
3FE0
E480
2500
2520
6940
6980
B900
A900
2920
29E0
0000
ENDCHAR
STARTCHAR 0x3372
ENCODING 13170
SWIDTH 857 0
DWIDTH 12 0
BBX 12 13 0 -2
BITMAP
0240
2240
2FE0
F240
2FE0
24A0
7FE0
64A0
AFE0
A080
2FE0
2080
0000
ENDCHAR
STARTCHAR 0x3373
ENCODING 13171
SWIDTH 857 0
DWIDTH 12 0
BBX 12 13 0 -2
BITMAP
0200
5200
FBE0
5420
77A0
24A0
F8A0
ABA0
FA60
2200
FA20
23E0
0000
ENDCHAR
STARTCHAR 0x3374
ENCODING 13172
SWIDTH 857 0
DWIDTH 12 0
BBX 12 13 0 -2
BITMAP
0100
2900
2900
EFE0
3100
2100
6FE0
7100
A380
A540
3920
2100
0000
ENDCHAR
STARTCHAR 0x3375
ENCODING 13173
SWIDTH 857 0
DWIDTH 12 0
BBX 12 13 0 -2
BITMAP
0400
0800
DF60
9120
9F20
9120
9120
DF60
0200
1200
1220
E3E0
0000
ENDCHAR
STARTCHAR 0x3376
ENCODING 13174
SWIDTH 857 0
DWIDTH 12 0
BBX 12 13 0 -2
BITMAP
0400
0400
FFE0
8A20
1200
7FC0
2480
7FC0
4440
7FC0
4420
07E0
0000
ENDCHAR
STARTCHAR 0x3377
ENCODING 13175
SWIDTH 857 0
DWIDTH 12 0
BBX 12 13 0 -2
BITMAP
1100
1100
FFE0
1120
4FE0
2100
8FE0
4920
0FE0
2920
4FE0
8920
0000
ENDCHAR
STARTCHAR 0x3378
ENCODING 13176
SWIDTH 857 0
DWIDTH 12 0
BBX 12 13 0 -2
BITMAP
0000
3180
CA60
0E00
3180
C060
3F80
0400
7FC0
2480
1500
FFE0
0000
ENDCHAR
STARTCHAR 0x3379
ENCODING 13177
SWIDTH 857 0
DWIDTH 12 0
BBX 12 13 0 -2
BITMAP
0240
3280
4FE0
8280
F7E0
22A0
FFE0
22A0
B7E0
A280
26C0
FAA0
0000
ENDCHAR
STARTCHAR 0x337A
ENCODING 13178
SWIDTH 857 0
DWIDTH 12 0
BBX 12 13 0 -2
BITMAP
0200
0BC0
EA00
BFE0
A240
AAA0
A220
BFE0
AAA0
B260
E220
3FE0
0000
ENDCHAR
STARTCHAR 0x337B
ENCODING 13179
SWIDTH 857 0
DWIDTH 12 0
BBX 12 13 0 -2
BITMAP
0080
0100
FBC0
AA40
ABC0
FA40
ABE0
AA00
FBE0
2020
2AA0
2AE0
0000
ENDCHAR
STARTCHAR 0x337C
ENCODING 13180
SWIDTH 857 0
DWIDTH 12 0
BBX 12 13 0 -2
BITMAP
0000
2FE0
2100
F200
27E0
2420
6420
67E0
B420
A420
2420
27E0
0000
ENDCHAR
STARTCHAR 0x337D
ENCODING 13181
SWIDTH 857 0
DWIDTH 12 0
BBX 12 13 0 -2
BITMAP
1100
1100
FFE0
1100
3F80
0100
FFE0
0620
0A40
3200
C200
0E00
0000
ENDCHAR
STARTCHAR 0x337E
ENCODING 13182
SWIDTH 857 0
DWIDTH 12 0
BBX 12 13 0 -2
BITMAP
1100
1100
FFE0
1100
0400
FFE0
8020
BFA0
1100
1F00
1100
FFE0
0000
ENDCHAR
STARTCHAR 0x3421
ENCODING 13345
SWIDTH 857 0
DWIDTH 12 0
BBX 12 13 0 -2
BITMAP
0000
E4E0
3520
2E20
E4E0
9F80
8480
E4E0
2E20
3520
2420
C4C0
0000
ENDCHAR
STARTCHAR 0x3422
ENCODING 13346
SWIDTH 857 0
DWIDTH 12 0
BBX 12 13 0 -2
BITMAP
0000
0820
0920
8920
4920
3120
1120
1120
2920
2420
4020
4060
0000
ENDCHAR
STARTCHAR 0x3423
ENCODING 13347
SWIDTH 857 0
DWIDTH 12 0
BBX 12 13 0 -2
BITMAP
1100
1100
FFE0
1100
1020
5120
3120
1120
2920
2520
4020
4060
0000
ENDCHAR
STARTCHAR 0x3424
ENCODING 13348
SWIDTH 857 0
DWIDTH 12 0
BBX 12 13 0 -2
BITMAP
0000
FFE0
1000
1000
1F00
1100
1100
2900
2500
2120
3F20
C1E0
0000
ENDCHAR
STARTCHAR 0x3425
ENCODING 13349
SWIDTH 857 0
DWIDTH 12 0
BBX 12 13 0 -2
BITMAP
0200
2200
FBE0
2200
FC00
8BE0
F840
8880
F900
2220
FC20
23E0
0000
ENDCHAR
STARTCHAR 0x3426
ENCODING 13350
SWIDTH 857 0
DWIDTH 12 0
BBX 12 13 0 -2
BITMAP
0000
2FE0
2820
4820
4820
CFE0
4000
4540
4540
4540
4940
5160
0000
ENDCHAR
STARTCHAR 0x3427
ENCODING 13351
SWIDTH 857 0
DWIDTH 12 0
BBX 12 13 0 -2
BITMAP
0000
FFE0
8020
0040
F040
07E0
0040
FA40
5140
5040
9020
8FE0
0000
ENDCHAR
STARTCHAR 0x3428
ENCODING 13352
SWIDTH 857 0
DWIDTH 12 0
BBX 12 13 0 -2
BITMAP
0400
0400
FFE0
9120
BFA0
1100
FFE0
1100
2C80
C360
1800
0700
0000
ENDCHAR
STARTCHAR 0x3429
ENCODING 13353
SWIDTH 857 0
DWIDTH 12 0
BBX 12 13 0 -2
BITMAP
0000
FC20
2120
2120
2120
2120
FD20
2120
2120
2020
2020
2060
0000
ENDCHAR
STARTCHAR 0x342A
ENCODING 13354
SWIDTH 857 0
DWIDTH 12 0
BBX 12 13 0 -2
BITMAP
0100
4900
F900
4FE0
7920
4920
4920
FD20
AA20
CE20
8040
FD80
0000
ENDCHAR
STARTCHAR 0x342B
ENCODING 13355
SWIDTH 857 0
DWIDTH 12 0
BBX 12 13 0 -2
BITMAP
4100
4100
7D00
A3E0
FD20
5120
7D20
D120
7E20
5220
5040
7D80
0000
ENDCHAR
STARTCHAR 0x342C
ENCODING 13356
SWIDTH 857 0
DWIDTH 12 0
BBX 12 13 0 -2
BITMAP
0840
4480
2100
7FC0
0900
FFE0
1080
3FC0
C0A0
3F80
2040
3FC0
0000
ENDCHAR
STARTCHAR 0x342D
ENCODING 13357
SWIDTH 857 0
DWIDTH 12 0
BBX 12 13 0 -2
BITMAP
0000
07C0
E880
BFE0
AAA0
AAA0
ACE0
A920
BFE0
A280
E440
1820
0000
ENDCHAR
STARTCHAR 0x342E
ENCODING 13358
SWIDTH 857 0
DWIDTH 12 0
BBX 12 13 0 -2
BITMAP
0440
4440
5FE0
4440
E7C0
4440
4440
4FE0
4A80
4CE0
F800
0FE0
0000
ENDCHAR
STARTCHAR 0x342F
ENCODING 13359
SWIDTH 857 0
DWIDTH 12 0
BBX 12 13 0 -2
BITMAP
0800
0800
7FC0
1100
3100
1F00
2080
FFE0
4A40
CA40
39C0
C620
0000
ENDCHAR
STARTCHAR 0x3430
ENCODING 13360
SWIDTH 857 0
DWIDTH 12 0
BBX 12 13 0 -2
BITMAP
0400
0400
FFE0
8020
BFA0
0000
0000
7FC0
1200
1200
2220
C3E0
0000
ENDCHAR
STARTCHAR 0x3431
ENCODING 13361
SWIDTH 857 0
DWIDTH 12 0
BBX 12 13 0 -2
BITMAP
0400
0400
FFE0
8020
BF20
A120
3F00
2000
3F80
2080
2080
3F80
0000
ENDCHAR
STARTCHAR 0x3432
ENCODING 13362
SWIDTH 857 0
DWIDTH 12 0
BBX 12 13 0 -2
BITMAP
0400
0400
FFE0
9120
7FC0
2080
3F80
2080
3F80
0A00
3220
C3E0
0000
ENDCHAR
STARTCHAR 0x3433
ENCODING 13363
SWIDTH 857 0
DWIDTH 12 0
BBX 12 13 0 -2
BITMAP
0000
7FC0
0400
0400
0400
0400
FFE0
0400
0400
0400
0400
0400
0000
ENDCHAR
STARTCHAR 0x3434
ENCODING 13364
SWIDTH 857 0
DWIDTH 12 0
BBX 12 13 0 -2
BITMAP
0000
21C0
FA20
2400
FBE0
8880
F880
8880
FBE0
2080
F880
2080
0000
ENDCHAR
STARTCHAR 0x3435
ENCODING 13365
SWIDTH 857 0
DWIDTH 12 0
BBX 12 13 0 -2
BITMAP
0400
0400
7FC0
4440
7FC0
0400
7FC0
4440
7FC0
1200
5040
8FA0
0000
ENDCHAR
STARTCHAR 0x3436
ENCODING 13366
SWIDTH 857 0
DWIDTH 12 0
BBX 12 13 0 -2
BITMAP
0100
0120
7FE0
4100
5D40
5480
9D40
8220
0400
1240
5020
8F80
0000
ENDCHAR
STARTCHAR 0x3437
ENCODING 13367
SWIDTH 857 0
DWIDTH 12 0
BBX 12 13 0 -2
BITMAP
0000
2FE0
2920
3FE0
A920
AFE0
A820
AFE0
A820
2FE0
2240
2C20
0000
ENDCHAR
STARTCHAR 0x3438
ENCODING 13368
SWIDTH 857 0
DWIDTH 12 0
BBX 12 13 0 -2
BITMAP
0080
20A0
2FE0
2880
AEA0
AA40
AEA0
A920
2200
0940
2820
4780
0000
ENDCHAR
STARTCHAR 0x3439
ENCODING 13369
SWIDTH 857 0
DWIDTH 12 0
BBX 12 13 0 -2
BITMAP
0000
47C0
4880
FFE0
4AA0
4AA0
4CE0
6920
DFE0
4280
4440
D820
0000
ENDCHAR
STARTCHAR 0x343A
ENCODING 13370
SWIDTH 857 0
DWIDTH 12 0
BBX 12 13 0 -2
BITMAP
0100
FD00
11E0
FD20
4620
7C20
44A0
7CA0
4440
7C40
C4A0
0720
0000
ENDCHAR
STARTCHAR 0x343B
ENCODING 13371
SWIDTH 857 0
DWIDTH 12 0
BBX 12 13 0 -2
BITMAP
0400
2420
2420
FFE0
2420
2420
67E0
6420
B420
A420
2420
27E0
0000
ENDCHAR
STARTCHAR 0x343C
ENCODING 13372
SWIDTH 857 0
DWIDTH 12 0
BBX 12 13 0 -2
BITMAP
0000
2FE0
2000
F7E0
2420
2420
67E0
6420
B420
A7E0
2000
2FE0
0000
ENDCHAR
STARTCHAR 0x343D
ENCODING 13373
SWIDTH 857 0
DWIDTH 12 0
BBX 12 13 0 -2
BITMAP
0100
2100
2FE0
F820
27C0
2440
67C0
6400
B7E0
A420
2420
27E0
0000
ENDCHAR
STARTCHAR 0x343E
ENCODING 13374
SWIDTH 857 0
DWIDTH 12 0
BBX 12 13 0 -2
BITMAP
0200
2200
FFE0
22A0
FAA0
02A0
F880
0080
FD40
2140
AA20
AC20
0000
ENDCHAR
STARTCHAR 0x343F
ENCODING 13375
SWIDTH 857 0
DWIDTH 12 0
BBX 12 13 0 -2
BITMAP
4200
4200
7FE0
A2A0
FEA0
52A0
7C80
D080
7D40
5140
5220
7C20
0000
ENDCHAR
STARTCHAR 0x3440
ENCODING 13376
SWIDTH 857 0
DWIDTH 12 0
BBX 12 13 0 -2
BITMAP
0000
0FE0
8100
4100
0100
8100
4FE0
0100
0100
2100
4100
8100
0000
ENDCHAR
STARTCHAR 0x3441
ENCODING 13377
SWIDTH 857 0
DWIDTH 12 0
BBX 12 13 0 -2
BITMAP
0480
0480
9FE0
4480
0FE0
8920
4FE0
0100
5FE0
4280
8440
9820
0000
ENDCHAR
STARTCHAR 0x3442
ENCODING 13378
SWIDTH 857 0
DWIDTH 12 0
BBX 12 13 0 -2
BITMAP
0000
1EE0
92A0
5EE0
12A0
9EE0
5020
17A0
54A0
57A0
94A0
97A0
0000
ENDCHAR
STARTCHAR 0x3443
ENCODING 13379
SWIDTH 857 0
DWIDTH 12 0
BBX 12 13 0 -2
BITMAP
0400
0400
87E0
4900
0FE0
8240
47E0
0C80
07E0
2480
4480
87E0
0000
ENDCHAR
STARTCHAR 0x3444
ENCODING 13380
SWIDTH 857 0
DWIDTH 12 0
BBX 12 13 0 -2
BITMAP
0000
0FE0
FAA0
2FE0
2000
2FE0
F440
27C0
2160
3380
CD40
0120
0000
ENDCHAR
STARTCHAR 0x3445
ENCODING 13381
SWIDTH 857 0
DWIDTH 12 0
BBX 12 13 0 -2
BITMAP
2080
2080
2080
FFE0
2080
2080
3F80
2080
2080
2080
2080
3F80
0000
ENDCHAR
STARTCHAR 0x3446
ENCODING 13382
SWIDTH 857 0
DWIDTH 12 0
BBX 12 13 0 -2
BITMAP
0200
FA00
A3E0
FC00
8800
FBC0
A000
A000
FFC0
4A40
4A40
FFE0
0000
ENDCHAR
STARTCHAR 0x3447
ENCODING 13383
SWIDTH 857 0
DWIDTH 12 0
BBX 12 13 0 -2
BITMAP
0000
7FE0
0400
3FC0
0400
FFE0
0800
1FC0
3040
DFC0
1040
1FC0
0000
ENDCHAR
STARTCHAR 0x3448
ENCODING 13384
SWIDTH 857 0
DWIDTH 12 0
BBX 12 13 0 -2
BITMAP
0200
4200
7BE0
A480
0000
7FC0
0400
0400
FFE0
0400
0400
0400
0000
ENDCHAR
STARTCHAR 0x3449
ENCODING 13385
SWIDTH 857 0
DWIDTH 12 0
BBX 12 13 0 -2
BITMAP
0200
4200
7BE0
A480
0400
FFE0
9120
9F20
1000
1F80
1080
1F80
0000
ENDCHAR
STARTCHAR 0x344A
ENCODING 13386
SWIDTH 857 0
DWIDTH 12 0
BBX 12 13 0 -2
BITMAP
4200
4200
7BE0
A480
FBE0
8A20
FBE0
8E20
F1E0
9F20
9120
9F60
0000
ENDCHAR
STARTCHAR 0x344B
ENCODING 13387
SWIDTH 857 0
DWIDTH 12 0
BBX 12 13 0 -2
BITMAP
0000
2FE0
4520
8540
EFE0
2100
4FE0
F200
27C0
AA40
A180
2E60
0000
ENDCHAR
STARTCHAR 0x344C
ENCODING 13388
SWIDTH 857 0
DWIDTH 12 0
BBX 12 13 0 -2
BITMAP
2000
2000
3FC0
4400
4400
0400
FFE0
0400
0400
4440
4440
7FC0
0000
ENDCHAR
STARTCHAR 0x344D
ENCODING 13389
SWIDTH 857 0
DWIDTH 12 0
BBX 12 13 0 -2
BITMAP
0000
21C0
FA20
2400
FFE0
8920
FDA0
8920
FB60
25A0
F920
2360
0000
ENDCHAR
STARTCHAR 0x344E
ENCODING 13390
SWIDTH 857 0
DWIDTH 12 0
BBX 12 13 0 -2
BITMAP
0000
F7E0
9080
9080
F080
9080
97E0
F080
9080
9080
9080
B080
0000
ENDCHAR
STARTCHAR 0x344F
ENCODING 13391
SWIDTH 857 0
DWIDTH 12 0
BBX 12 13 0 -2
BITMAP
2080
4F80
EA80
AFE0
E900
AF00
FAE0
A200
EFE0
AAA0
AAA0
BFE0
0000
ENDCHAR
STARTCHAR 0x3450
ENCODING 13392
SWIDTH 857 0
DWIDTH 12 0
BBX 12 13 0 -2
BITMAP
1100
1100
FFE0
1100
FFE0
8020
3F80
0000
7FC0
0A00
3220
C3E0
0000
ENDCHAR
STARTCHAR 0x3451
ENCODING 13393
SWIDTH 857 0
DWIDTH 12 0
BBX 12 13 0 -2
BITMAP
4000
43E0
7E20
A3E0
FE20
53E0
7E20
D3E0
7940
5140
5240
7C60
0000
ENDCHAR
STARTCHAR 0x3452
ENCODING 13394
SWIDTH 857 0
DWIDTH 12 0
BBX 12 13 0 -2
BITMAP
0100
E100
0FE0
E100
0FE0
E920
0FE0
0920
EFE0
A300
A540
F920
0000
ENDCHAR
STARTCHAR 0x3453
ENCODING 13395
SWIDTH 857 0
DWIDTH 12 0
BBX 12 13 0 -2
BITMAP
0000
7FC0
4440
FFE0
4440
7FC0
2080
3F80
2080
3F80
2080
C060
0000
ENDCHAR
STARTCHAR 0x3454
ENCODING 13396
SWIDTH 857 0
DWIDTH 12 0
BBX 12 13 0 -2
BITMAP
0000
0FE0
4AA0
2FE0
0000
1FE0
E440
27C0
2320
2D40
5120
8FE0
0000
ENDCHAR
STARTCHAR 0x3455
ENCODING 13397
SWIDTH 857 0
DWIDTH 12 0
BBX 12 13 0 -2
BITMAP
0080
3F80
4A80
8FE0
F900
2F00
FAE0
2200
AFE0
AAA0
2AA0
FFE0
0000
ENDCHAR
STARTCHAR 0x3456
ENCODING 13398
SWIDTH 857 0
DWIDTH 12 0
BBX 12 13 0 -2
BITMAP
0000
FBE0
8A20
FBE0
8A20
FBE0
8020
9F20
9120
9F20
9120
9F60
0000
ENDCHAR
STARTCHAR 0x3457
ENCODING 13399
SWIDTH 857 0
DWIDTH 12 0
BBX 12 13 0 -2
BITMAP
0000
FBE0
8A20
FBE0
8A20
FBE0
8420
BFA0
8420
8E20
B5A0
8460
0000
ENDCHAR
STARTCHAR 0x3458
ENCODING 13400
SWIDTH 857 0
DWIDTH 12 0
BBX 12 13 0 -2
BITMAP
0000
FBE0
8A20
FBE0
8A20
FBE0
8A20
BFA0
8420
BFA0
8A20
9160
0000
ENDCHAR
STARTCHAR 0x3459
ENCODING 13401
SWIDTH 857 0
DWIDTH 12 0
BBX 12 13 0 -2
BITMAP
0000
E3C0
A440
A880
C3E0
AA20
AA20
ABE0
AA20
CA20
8A20
8BE0
0000
ENDCHAR
STARTCHAR 0x345A
ENCODING 13402
SWIDTH 857 0
DWIDTH 12 0
BBX 12 13 0 -2
BITMAP
2080
2080
F7E0
2120
FFE0
8A20
FBE0
8880
FFE0
2480
FFE0
2080
0000
ENDCHAR
STARTCHAR 0x345B
ENCODING 13403
SWIDTH 857 0
DWIDTH 12 0
BBX 12 13 0 -2
BITMAP
0100
7100
87E0
2420
FBE0
8A40
FBC0
8A00
FBE0
A220
9220
EBE0
0000
ENDCHAR
STARTCHAR 0x345C
ENCODING 13404
SWIDTH 857 0
DWIDTH 12 0
BBX 12 13 0 -2
BITMAP
0100
3100
47E0
8420
FBE0
2240
FBC0
2200
FBE0
8A20
8A20
FBE0
0000
ENDCHAR
STARTCHAR 0x345D
ENCODING 13405
SWIDTH 857 0
DWIDTH 12 0
BBX 12 13 0 -2
BITMAP
1000
1000
1000
FF00
1100
1100
5100
3100
1100
2920
4520
80E0
0000
ENDCHAR
STARTCHAR 0x345E
ENCODING 13406
SWIDTH 857 0
DWIDTH 12 0
BBX 12 13 0 -2
BITMAP
0000
1F00
2080
5F40
8020
3F80
0100
0200
3F80
2080
2080
3F80
0000
ENDCHAR
STARTCHAR 0x345F
ENCODING 13407
SWIDTH 857 0
DWIDTH 12 0
BBX 12 13 0 -2
BITMAP
0200
4220
7FE0
0000
7FE0
4000
5FC0
4200
4200
BFE0
8200
0200
0000
ENDCHAR
STARTCHAR 0x3460
ENCODING 13408
SWIDTH 857 0
DWIDTH 12 0
BBX 12 13 0 -2
BITMAP
0400
4420
7FE0
2240
7FE0
4900
7FE0
5440
5D40
5540
BD80
8660
0000
ENDCHAR
STARTCHAR 0x3461
ENCODING 13409
SWIDTH 857 0
DWIDTH 12 0
BBX 12 13 0 -2
BITMAP
0000
0FE0
F000
2000
2000
FFE0
2480
2480
3480
C480
08A0
30E0
0000
ENDCHAR
STARTCHAR 0x3462
ENCODING 13410
SWIDTH 857 0
DWIDTH 12 0
BBX 12 13 0 -2
BITMAP
0200
0200
7FE0
4840
CFC0
4000
5EE0
D2A0
5EE0
4100
9120
9FE0
0000
ENDCHAR
STARTCHAR 0x3463
ENCODING 13411
SWIDTH 857 0
DWIDTH 12 0
BBX 12 13 0 -2
BITMAP
0000
07E0
F420
97E0
F420
9420
97E0
F500
9520
94A0
F440
0720
0000
ENDCHAR
STARTCHAR 0x3464
ENCODING 13412
SWIDTH 857 0
DWIDTH 12 0
BBX 12 13 0 -2
BITMAP
0400
4440
4440
7FC0
0000
FFE0
0800
1000
3FC0
E040
2040
3FC0
0000
ENDCHAR
STARTCHAR 0x3465
ENCODING 13413
SWIDTH 857 0
DWIDTH 12 0
BBX 12 13 0 -2
BITMAP
0000
FDE0
2400
B400
6C00
B7E0
2540
F940
8940
F940
8A40
FA60
0000
ENDCHAR
STARTCHAR 0x3466
ENCODING 13414
SWIDTH 857 0
DWIDTH 12 0
BBX 12 13 0 -2
BITMAP
0000
7FE0
4A40
53E0
7680
5280
5FE0
5040
9FC0
9040
1FC0
6060
0000
ENDCHAR
STARTCHAR 0x3467
ENCODING 13415
SWIDTH 857 0
DWIDTH 12 0
BBX 12 13 0 -2
BITMAP
0000
7FE0
4940
4940
53E0
7240
57E0
5A40
53E0
9240
9240
13E0
0000
ENDCHAR
STARTCHAR 0x3468
ENCODING 13416
SWIDTH 857 0
DWIDTH 12 0
BBX 12 13 0 -2
BITMAP
0000
0FE0
F100
07E0
0420
F7E0
5420
57E0
5420
9FE0
8240
0C20
0000
ENDCHAR
STARTCHAR 0x3469
ENCODING 13417
SWIDTH 857 0
DWIDTH 12 0
BBX 12 13 0 -2
BITMAP
2000
27E0
F880
4BE0
4A20
FFE0
9220
E3E0
9A20
E3E0
1940
E620
0000
ENDCHAR
STARTCHAR 0x346A
ENCODING 13418
SWIDTH 857 0
DWIDTH 12 0
BBX 12 13 0 -2
BITMAP
0000
FBE0
9080
FBE0
8A20
FBE0
8A20
FBE0
9220
5BE0
9140
3620
0000
ENDCHAR
STARTCHAR 0x346B
ENCODING 13419
SWIDTH 857 0
DWIDTH 12 0
BBX 12 13 0 -2
BITMAP
0000
0E00
1100
2080
4440
8420
0400
2780
2400
2400
2400
FFE0
0000
ENDCHAR
STARTCHAR 0x346C
ENCODING 13420
SWIDTH 857 0
DWIDTH 12 0
BBX 12 13 0 -2
BITMAP
0100
2100
3FE0
4100
4100
CFC0
4040
4440
4440
4280
4380
5C60
0000
ENDCHAR
STARTCHAR 0x346D
ENCODING 13421
SWIDTH 857 0
DWIDTH 12 0
BBX 12 13 0 -2
BITMAP
0000
1F00
2100
4200
FFE0
4000
4F80
4880
4880
4980
8820
8FE0
0000
ENDCHAR
STARTCHAR 0x346E
ENCODING 13422
SWIDTH 857 0
DWIDTH 12 0
BBX 12 13 0 -2
BITMAP
0400
0400
FFE0
0400
7FC0
2080
3F80
1100
FFE0
2080
2080
3F80
0000
ENDCHAR
STARTCHAR 0x346F
ENCODING 13423
SWIDTH 857 0
DWIDTH 12 0
BBX 12 13 0 -2
BITMAP
0000
7BC0
4A40
4A40
7BC0
0400
FFE0
1100
FBE0
4A40
4A40
7BC0
0000
ENDCHAR
STARTCHAR 0x3470
ENCODING 13424
SWIDTH 857 0
DWIDTH 12 0
BBX 12 13 0 -2
BITMAP
1100
1100
7FC0
1100
1F00
1100
FFE0
1100
2480
DF60
0400
7FC0
0000
ENDCHAR
STARTCHAR 0x3471
ENCODING 13425
SWIDTH 857 0
DWIDTH 12 0
BBX 12 13 0 -2
BITMAP
0400
0400
7FC0
0A00
1100
2080
FFE0
0080
3C80
2480
3C80
0180
0000
ENDCHAR
STARTCHAR 0x3472
ENCODING 13426
SWIDTH 857 0
DWIDTH 12 0
BBX 12 13 0 -2
BITMAP
0080
4080
4FE0
F080
57E0
5420
57E0
9240
E7E0
3420
4420
47E0
0000
ENDCHAR
STARTCHAR 0x3473
ENCODING 13427
SWIDTH 857 0
DWIDTH 12 0
BBX 12 13 0 -2
BITMAP
0400
0400
FFE0
8420
BFA0
0A00
1100
FFE0
0080
3C80
2480
3D80
0000
ENDCHAR
STARTCHAR 0x3474
ENCODING 13428
SWIDTH 857 0
DWIDTH 12 0
BBX 12 13 0 -2
BITMAP
0100
2100
3FE0
2100
A100
AFC0
A040
A440
A440
F280
0380
1C60
0000
ENDCHAR
STARTCHAR 0x3475
ENCODING 13429
SWIDTH 857 0
DWIDTH 12 0
BBX 12 13 0 -2
BITMAP
0000
31C0
0E00
7180
0440
FFE0
1200
3FC0
D240
1240
12C0
0200
0000
ENDCHAR
STARTCHAR 0x3476
ENCODING 13430
SWIDTH 857 0
DWIDTH 12 0
BBX 12 13 0 -2
BITMAP
0400
2480
5540
2480
4520
7DE0
0400
FFE0
2220
2240
5180
4E60
0000
ENDCHAR
STARTCHAR 0x3477
ENCODING 13431
SWIDTH 857 0
DWIDTH 12 0
BBX 12 13 0 -2
BITMAP
0000
3F80
0080
0080
3F80
2000
2040
3FC0
0400
1240
5020
8F80
0000
ENDCHAR
STARTCHAR 0x3478
ENCODING 13432
SWIDTH 857 0
DWIDTH 12 0
BBX 12 13 0 -2
BITMAP
0000
5FE0
5120
FFE0
4920
4FE0
4920
6920
CFE0
4100
5FE0
C100
0000
ENDCHAR
STARTCHAR 0x3479
ENCODING 13433
SWIDTH 857 0
DWIDTH 12 0
BBX 12 13 0 -2
BITMAP
0000
27C0
2440
F440
2440
2440
6440
7440
A440
A440
2840
3060
0000
ENDCHAR
STARTCHAR 0x347A
ENCODING 13434
SWIDTH 857 0
DWIDTH 12 0
BBX 12 13 0 -2
BITMAP
0400
4400
4FE0
F440
47E0
4440
77C0
5440
9FE0
9000
1240
6420
0000
ENDCHAR
STARTCHAR 0x347B
ENCODING 13435
SWIDTH 857 0
DWIDTH 12 0
BBX 12 13 0 -2
BITMAP
0000
F7E0
9240
F240
9240
9FE0
F080
8080
9180
8AA0
A4A0
C8E0
0000
ENDCHAR
STARTCHAR 0x347C
ENCODING 13436
SWIDTH 857 0
DWIDTH 12 0
BBX 12 13 0 -2
BITMAP
0000
49E0
FD20
4920
79E0
4920
7920
49E0
FD20
0120
5220
8A60
0000
ENDCHAR
STARTCHAR 0x347D
ENCODING 13437
SWIDTH 857 0
DWIDTH 12 0
BBX 12 13 0 -2
BITMAP
0440
2440
2FE0
F440
27C0
2440
67C0
6440
AFE0
A000
2440
2820
0000
ENDCHAR
STARTCHAR 0x347E
ENCODING 13438
SWIDTH 857 0
DWIDTH 12 0
BBX 12 13 0 -2
BITMAP
0400
0400
FFE0
1080
7FC0
2480
FFE0
2480
7FC0
0D00
3480
C460
0000
ENDCHAR
STARTCHAR 0x3521
ENCODING 13601
SWIDTH 857 0
DWIDTH 12 0
BBX 12 13 0 -2
BITMAP
0100
2520
2940
F5A0
2940
2FE0
6100
6FE0
A480
A6A0
2840
29A0
0000
ENDCHAR
STARTCHAR 0x3522
ENCODING 13602
SWIDTH 857 0
DWIDTH 12 0
BBX 12 13 0 -2
BITMAP
0000
2FC0
A040
AFC0
A040
BFE0
A120
AFE0
2940
2940
49C0
4100
0000
ENDCHAR
STARTCHAR 0x3523
ENCODING 13603
SWIDTH 857 0
DWIDTH 12 0
BBX 12 13 0 -2
BITMAP
2000
23C0
FA40
5240
5240
FC60
A800
57E0
B220
5A40
9180
6660
0000
ENDCHAR
STARTCHAR 0x3524
ENCODING 13604
SWIDTH 857 0
DWIDTH 12 0
BBX 12 13 0 -2
BITMAP
2000
2000
3FE0
4000
5F80
0000
7FC0
0040
3240
0C40
1220
6120
0000
ENDCHAR
STARTCHAR 0x3525
ENCODING 13605
SWIDTH 857 0
DWIDTH 12 0
BBX 12 13 0 -2
BITMAP
0800
0800
8FC0
5000
1780
8000
5FC0
0040
0040
2040
4020
8020
0000
ENDCHAR
STARTCHAR 0x3526
ENCODING 13606
SWIDTH 857 0
DWIDTH 12 0
BBX 12 13 0 -2
BITMAP
0400
1480
2D40
5680
2520
FFE0
0400
FFE0
5520
7D40
5480
7D60
0000
ENDCHAR
STARTCHAR 0x3527
ENCODING 13607
SWIDTH 857 0
DWIDTH 12 0
BBX 12 13 0 -2
BITMAP
0000
20C0
2700
F400
1400
17E0
2440
6440
B440
2840
2840
2040
0000
ENDCHAR
STARTCHAR 0x3528
ENCODING 13608
SWIDTH 857 0
DWIDTH 12 0
BBX 12 13 0 -2
BITMAP
0000
3F80
0400
FFE0
1500
2480
DF40
0220
0400
FFE0
0400
1C00
0000
ENDCHAR
STARTCHAR 0x3529
ENCODING 13609
SWIDTH 857 0
DWIDTH 12 0
BBX 12 13 0 -2
BITMAP
0000
1A60
E180
2640
2120
F7E0
2200
67E0
6D20
B520
A560
2100
0000
ENDCHAR
STARTCHAR 0x352A
ENCODING 13610
SWIDTH 857 0
DWIDTH 12 0
BBX 12 13 0 -2
BITMAP
0000
27E0
4020
9020
F020
27E0
4400
FC00
2400
B420
A420
27E0
0000
ENDCHAR
STARTCHAR 0x352B
ENCODING 13611
SWIDTH 857 0
DWIDTH 12 0
BBX 12 13 0 -2
BITMAP
0500
3500
55E0
9F20
0420
2AA0
54A0
CAA0
5F40
4440
54A0
6720
0000
ENDCHAR
STARTCHAR 0x352C
ENCODING 13612
SWIDTH 857 0
DWIDTH 12 0
BBX 12 13 0 -2
BITMAP
0000
27E0
2420
F7E0
2420
27E0
FC20
27E0
5280
5280
84A0
98E0
0000
ENDCHAR
STARTCHAR 0x352D
ENCODING 13613
SWIDTH 857 0
DWIDTH 12 0
BBX 12 13 0 -2
BITMAP
0000
F7E0
0020
F020
0020
F7E0
0400
0400
F400
9420
9420
F7E0
0000
ENDCHAR
STARTCHAR 0x352E
ENCODING 13614
SWIDTH 857 0
DWIDTH 12 0
BBX 12 13 0 -2
BITMAP
0400
0400
7FC0
4440
7FC0
0400
FFE0
2080
3F80
2080
3F80
C060
0000
ENDCHAR
STARTCHAR 0x352F
ENCODING 13615
SWIDTH 857 0
DWIDTH 12 0
BBX 12 13 0 -2
BITMAP
2000
23E0
F820
2020
23E0
FA00
2200
3A20
A3E0
A000
F000
8FE0
0000
ENDCHAR
STARTCHAR 0x3530
ENCODING 13616
SWIDTH 857 0
DWIDTH 12 0
BBX 12 13 0 -2
BITMAP
0100
2100
F900
27C0
F940
A940
F940
A940
FA40
2240
FC40
2460
0000
ENDCHAR
STARTCHAR 0x3531
ENCODING 13617
SWIDTH 857 0
DWIDTH 12 0
BBX 12 13 0 -2
BITMAP
0000
2FE0
2920
AFE0
A520
27E0
FD20
5520
57E0
5100
9FE0
8100
0000
ENDCHAR
STARTCHAR 0x3532
ENCODING 13618
SWIDTH 857 0
DWIDTH 12 0
BBX 12 13 0 -2
BITMAP
0000
73C0
8A40
2240
FA40
8A40
FA40
8A40
FA40
9240
8A40
F460
0000
ENDCHAR
STARTCHAR 0x3533
ENCODING 13619
SWIDTH 857 0
DWIDTH 12 0
BBX 12 13 0 -2
BITMAP
0100
F100
AFE0
F280
A440
F820
AFE0
F020
1720
D520
1720
6060
0000
ENDCHAR
STARTCHAR 0x3534
ENCODING 13620
SWIDTH 857 0
DWIDTH 12 0
BBX 12 13 0 -2
BITMAP
0400
0800
7F80
4880
7F80
4880
4880
7F80
1540
15C0
2420
C3E0
0000
ENDCHAR
STARTCHAR 0x3535
ENCODING 13621
SWIDTH 857 0
DWIDTH 12 0
BBX 12 13 0 -2
BITMAP
0000
3F00
4200
FF80
4880
7FC0
4840
FFC0
8840
FFC0
8820
07E0
0000
ENDCHAR
STARTCHAR 0x3536
ENCODING 13622
SWIDTH 857 0
DWIDTH 12 0
BBX 12 13 0 -2
BITMAP
0880
2480
2100
5F80
4480
CFC0
5040
7FE0
4020
5520
5520
40C0
0000
ENDCHAR
STARTCHAR 0x3537
ENCODING 13623
SWIDTH 857 0
DWIDTH 12 0
BBX 12 13 0 -2
BITMAP
0440
2480
3FE0
4100
4FE0
C100
5FE0
4900
7FE0
4920
5CC0
4B20
0000
ENDCHAR
STARTCHAR 0x3538
ENCODING 13624
SWIDTH 857 0
DWIDTH 12 0
BBX 12 13 0 -2
BITMAP
0100
4100
5FE0
F100
5100
5FC0
5040
9440
E440
3280
4380
5C60
0000
ENDCHAR
STARTCHAR 0x3539
ENCODING 13625
SWIDTH 857 0
DWIDTH 12 0
BBX 12 13 0 -2
BITMAP
0400
0400
FFE0
8020
BFA0
2080
3F80
2080
3F80
2080
2080
FFE0
0000
ENDCHAR
STARTCHAR 0x353A
ENCODING 13626
SWIDTH 857 0
DWIDTH 12 0
BBX 12 13 0 -2
BITMAP
1080
1EA0
10A0
7E80
53E0
7E80
50A0
5EA0
9540
B640
14A0
7F20
0000
ENDCHAR
STARTCHAR 0x353B
ENCODING 13627
SWIDTH 857 0
DWIDTH 12 0
BBX 12 13 0 -2
BITMAP
0100
4100
5FE0
E100
4100
4FC0
4040
6440
C440
4280
4380
DC60
0000
ENDCHAR
STARTCHAR 0x353C
ENCODING 13628
SWIDTH 857 0
DWIDTH 12 0
BBX 12 13 0 -2
BITMAP
0000
53E0
5C40
F080
4FE0
50A0
5E80
6880
DEE0
4A80
5680
E3E0
0000
ENDCHAR
STARTCHAR 0x353D
ENCODING 13629
SWIDTH 857 0
DWIDTH 12 0
BBX 12 13 0 -2
BITMAP
0200
4A00
FBE0
4AA0
7AA0
4AA0
7880
4880
FD40
0140
5220
8C20
0000
ENDCHAR
STARTCHAR 0x353E
ENCODING 13630
SWIDTH 857 0
DWIDTH 12 0
BBX 12 13 0 -2
BITMAP
0440
A480
AFE0
F100
A7E0
A100
2FE0
3500
EFE0
24A0
2E40
25A0
0000
ENDCHAR
STARTCHAR 0x353F
ENCODING 13631
SWIDTH 857 0
DWIDTH 12 0
BBX 12 13 0 -2
BITMAP
0000
9BE0
E040
8880
FBE0
40A0
7A80
9280
FEE0
1280
2A80
C7E0
0000
ENDCHAR
STARTCHAR 0x3540
ENCODING 13632
SWIDTH 857 0
DWIDTH 12 0
BBX 12 13 0 -2
BITMAP
0000
4060
4780
F480
1480
1480
27E0
4440
E440
5440
45A0
4E20
0000
ENDCHAR
STARTCHAR 0x3541
ENCODING 13633
SWIDTH 857 0
DWIDTH 12 0
BBX 12 13 0 -2
BITMAP
1080
1100
FFE0
0400
7FC0
0400
FFE0
2420
FFE0
2240
F980
2660
0000
ENDCHAR
STARTCHAR 0x3542
ENCODING 13634
SWIDTH 857 0
DWIDTH 12 0
BBX 12 13 0 -2
BITMAP
0240
2280
2FE0
F880
ABE0
A880
AFE0
F480
2FE0
24A0
2E40
F5A0
0000
ENDCHAR
STARTCHAR 0x3543
ENCODING 13635
SWIDTH 857 0
DWIDTH 12 0
BBX 12 13 0 -2
BITMAP
0100
E100
0FE0
E820
07C0
E440
07C0
0440
E7C0
A440
A440
EFE0
0000
ENDCHAR
STARTCHAR 0x3544
ENCODING 13636
SWIDTH 857 0
DWIDTH 12 0
BBX 12 13 0 -2
BITMAP
0440
E480
1FE0
E100
0FE0
E100
1FE0
0900
FFE0
A920
BCC0
EB20
0000
ENDCHAR
STARTCHAR 0x3545
ENCODING 13637
SWIDTH 857 0
DWIDTH 12 0
BBX 12 13 0 -2
BITMAP
0800
4800
4FE0
F020
52A0
4B20
4220
5FE0
E320
4AA0
5220
C0C0
0000
ENDCHAR
STARTCHAR 0x3546
ENCODING 13638
SWIDTH 857 0
DWIDTH 12 0
BBX 12 13 0 -2
BITMAP
1100
1100
FFE0
1100
3FE0
4920
AA20
0820
7FA0
1A20
2920
48C0
0000
ENDCHAR
STARTCHAR 0x3547
ENCODING 13639
SWIDTH 857 0
DWIDTH 12 0
BBX 12 13 0 -2
BITMAP
0400
5400
FFE0
5420
7AA0
22A0
FA20
AFE0
FB20
26A0
FA20
20C0
0000
ENDCHAR
STARTCHAR 0x3548
ENCODING 13640
SWIDTH 857 0
DWIDTH 12 0
BBX 12 13 0 -2
BITMAP
0400
0400
FFE0
0400
0400
7FC0
0000
0000
3F80
2080
2080
3F80
0000
ENDCHAR
STARTCHAR 0x3549
ENCODING 13641
SWIDTH 857 0
DWIDTH 12 0
BBX 12 13 0 -2
BITMAP
0400
0400
F7E0
9800
9000
97C0
9080
9100
9200
9420
F420
03E0
0000
ENDCHAR
STARTCHAR 0x354A
ENCODING 13642
SWIDTH 857 0
DWIDTH 12 0
BBX 12 13 0 -2
BITMAP
0400
0400
EFE0
A4A0
AEA0
A520
AE60
A100
BFE0
A100
E680
1860
0000
ENDCHAR
STARTCHAR 0x354B
ENCODING 13643
SWIDTH 857 0
DWIDTH 12 0
BBX 12 13 0 -2
BITMAP
0080
2080
2FE0
F080
2080
27E0
6000
6000
B7E0
A420
2420
27E0
0000
ENDCHAR
STARTCHAR 0x354C
ENCODING 13644
SWIDTH 857 0
DWIDTH 12 0
BBX 12 13 0 -2
BITMAP
0000
27C0
2080
FFE0
2520
2940
6FE0
6AA0
ACE0
ABA0
2AA0
2BA0
0000
ENDCHAR
STARTCHAR 0x354D
ENCODING 13645
SWIDTH 857 0
DWIDTH 12 0
BBX 12 13 0 -2
BITMAP
0080
F080
07E0
F080
0080
F7E0
0000
0000
F3E0
9220
9220
F3E0
0000
ENDCHAR
STARTCHAR 0x354E
ENCODING 13646
SWIDTH 857 0
DWIDTH 12 0
BBX 12 13 0 -2
BITMAP
0100
F900
2100
21E0
2100
2100
7100
D7E0
5420
5420
5420
77E0
0000
ENDCHAR
STARTCHAR 0x354F
ENCODING 13647
SWIDTH 857 0
DWIDTH 12 0
BBX 12 13 0 -2
BITMAP
0400
2400
27E0
F880
2880
2080
6080
6FE0
A080
A080
2080
2080
0000
ENDCHAR
STARTCHAR 0x3550
ENCODING 13648
SWIDTH 857 0
DWIDTH 12 0
BBX 12 13 0 -2
BITMAP
0000
03C0
7C00
0400
FFE0
2480
4A40
3180
C460
1500
2480
CC60
0000
ENDCHAR
STARTCHAR 0x3551
ENCODING 13649
SWIDTH 857 0
DWIDTH 12 0
BBX 12 13 0 -2
BITMAP
2000
23E0
FA20
2220
2220
2220
FE20
4220
4220
8A20
FAE0
0A00
0000
ENDCHAR
STARTCHAR 0x3552
ENCODING 13650
SWIDTH 857 0
DWIDTH 12 0
BBX 12 13 0 -2
BITMAP
0400
0400
FFE0
90A0
A920
4600
1980
E060
3F80
2080
2080
3F80
0000
ENDCHAR
STARTCHAR 0x3553
ENCODING 13651
SWIDTH 857 0
DWIDTH 12 0
BBX 12 13 0 -2
BITMAP
0400
E4E0
A4A0
BFA0
E4A0
A4A0
BFA0
E4A0
A8A0
AAE0
AE80
A080
0000
ENDCHAR
STARTCHAR 0x3554
ENCODING 13652
SWIDTH 857 0
DWIDTH 12 0
BBX 12 13 0 -2
BITMAP
0400
07C0
0400
7FE0
4420
5F80
4420
5FE0
5000
9FE0
9000
1FE0
0000
ENDCHAR
STARTCHAR 0x3555
ENCODING 13653
SWIDTH 857 0
DWIDTH 12 0
BBX 12 13 0 -2
BITMAP
0440
0240
8080
4FE0
0100
0920
E920
2FE0
2100
2100
5000
8FE0
0000
ENDCHAR
STARTCHAR 0x3556
ENCODING 13654
SWIDTH 857 0
DWIDTH 12 0
BBX 12 13 0 -2
BITMAP
0000
0180
3E00
2000
2000
3FC0
2100
2100
2100
2100
2100
FFE0
0000
ENDCHAR
STARTCHAR 0x3557
ENCODING 13655
SWIDTH 857 0
DWIDTH 12 0
BBX 12 13 0 -2
BITMAP
1000
1000
1F80
1080
2080
2100
0100
0200
0500
0880
3040
C020
0000
ENDCHAR
STARTCHAR 0x3558
ENCODING 13656
SWIDTH 857 0
DWIDTH 12 0
BBX 12 13 0 -2
BITMAP
0200
2200
2200
5FC0
4240
C240
4240
4240
4440
4440
4820
7020
0000
ENDCHAR
STARTCHAR 0x3559
ENCODING 13657
SWIDTH 857 0
DWIDTH 12 0
BBX 12 13 0 -2
BITMAP
0100
2100
2100
5FE0
4100
C100
4300
4580
4940
5120
4100
4100
0000
ENDCHAR
STARTCHAR 0x355A
ENCODING 13658
SWIDTH 857 0
DWIDTH 12 0
BBX 12 13 0 -2
BITMAP
0000
7F80
1080
1100
1200
13C0
2040
2440
4280
4180
0640
3820
0000
ENDCHAR
STARTCHAR 0x355B
ENCODING 13659
SWIDTH 857 0
DWIDTH 12 0
BBX 12 13 0 -2
BITMAP
0000
1FC0
E440
A480
A500
A5C0
A840
AA40
B140
A080
E340
0C20
0000
ENDCHAR
STARTCHAR 0x355C
ENCODING 13660
SWIDTH 857 0
DWIDTH 12 0
BBX 12 13 0 -2
BITMAP
0400
0400
FFE0
8020
9F20
9120
1F00
0800
3F80
2080
2080
3F80
0000
ENDCHAR
STARTCHAR 0x355D
ENCODING 13661
SWIDTH 857 0
DWIDTH 12 0
BBX 12 13 0 -2
BITMAP
0000
3FC0
0040
0040
3FC0
2000
2000
3FE0
4020
4020
0040
0380
0000
ENDCHAR
STARTCHAR 0x355E
ENCODING 13662
SWIDTH 857 0
DWIDTH 12 0
BBX 12 13 0 -2
BITMAP
0000
1F00
2200
7FC0
0040
3FC0
0040
3FC0
0400
1240
5020
8F80
0000
ENDCHAR
STARTCHAR 0x355F
ENCODING 13663
SWIDTH 857 0
DWIDTH 12 0
BBX 12 13 0 -2
BITMAP
2200
2200
2BE0
FA40
2040
A440
6940
2140
6880
A480
2140
6620
0000
ENDCHAR
STARTCHAR 0x3560
ENCODING 13664
SWIDTH 857 0
DWIDTH 12 0
BBX 12 13 0 -2
BITMAP
0000
2FE0
2200
F200
2200
23E0
6220
6420
B420
A020
2040
2380
0000
ENDCHAR
STARTCHAR 0x3561
ENCODING 13665
SWIDTH 857 0
DWIDTH 12 0
BBX 12 13 0 -2
BITMAP
0400
0440
0420
FFC0
0400
4440
2680
0500
0C80
3440
C420
0C00
0000
ENDCHAR
STARTCHAR 0x3562
ENCODING 13666
SWIDTH 857 0
DWIDTH 12 0
BBX 12 13 0 -2
BITMAP
0000
1FC0
8440
4480
0500
85C0
4840
0A40
5140
5080
8340
8C20
0000
ENDCHAR
STARTCHAR 0x3563
ENCODING 13667
SWIDTH 857 0
DWIDTH 12 0
BBX 12 13 0 -2
BITMAP
0200
0200
8200
5FE0
0000
8440
4440
0440
0480
2480
4080
9FE0
0000
ENDCHAR
STARTCHAR 0x3564
ENCODING 13668
SWIDTH 857 0
DWIDTH 12 0
BBX 12 13 0 -2
BITMAP
0000
1F80
6100
0600
1980
E060
0400
2440
4480
0A00
3180
C060
0000
ENDCHAR
STARTCHAR 0x3565
ENCODING 13669
SWIDTH 857 0
DWIDTH 12 0
BBX 12 13 0 -2
BITMAP
0100
0140
E120
5FC0
4100
4920
E540
4100
4580
4940
F120
0300
0000
ENDCHAR
STARTCHAR 0x3566
ENCODING 13670
SWIDTH 857 0
DWIDTH 12 0
BBX 12 13 0 -2
BITMAP
0400
0400
FFE0
8A20
1200
61C0
0800
7F00
0900
0920
3120
C0E0
0000
ENDCHAR
STARTCHAR 0x3567
ENCODING 13671
SWIDTH 857 0
DWIDTH 12 0
BBX 12 13 0 -2
BITMAP
0400
0400
FFE0
8A20
7BE0
4820
7BE0
4A00
FFE0
2A20
4820
99C0
0000
ENDCHAR
STARTCHAR 0x3568
ENCODING 13672
SWIDTH 857 0
DWIDTH 12 0
BBX 12 13 0 -2
BITMAP
0200
4200
7BE0
A480
0000
FFC0
2100
23C0
4840
4480
8380
9C60
0000
ENDCHAR
STARTCHAR 0x3569
ENCODING 13673
SWIDTH 857 0
DWIDTH 12 0
BBX 12 13 0 -2
BITMAP
0000
2FC0
4440
9480
F500
25C0
4840
EA40
3140
A080
A340
2C20
0000
ENDCHAR
STARTCHAR 0x356A
ENCODING 13674
SWIDTH 857 0
DWIDTH 12 0
BBX 12 13 0 -2
BITMAP
0000
2040
4240
9240
F240
2240
4A40
FA60
23C0
AC40
A040
2040
0000
ENDCHAR
STARTCHAR 0x356B
ENCODING 13675
SWIDTH 857 0
DWIDTH 12 0
BBX 12 13 0 -2
BITMAP
0000
21C0
4220
9400
F000
23E0
4800
F800
23E0
AA20
AA20
23E0
0000
ENDCHAR
STARTCHAR 0x356C
ENCODING 13676
SWIDTH 857 0
DWIDTH 12 0
BBX 12 13 0 -2
BITMAP
0000
4FE0
4820
4820
4820
4820
4FE0
4820
4820
4820
4820
4FE0
0000
ENDCHAR
STARTCHAR 0x356D
ENCODING 13677
SWIDTH 857 0
DWIDTH 12 0
BBX 12 13 0 -2
BITMAP
0400
4400
4400
7FC0
8400
8400
0400
FFE0
0400
0400
0400
0400
0000
ENDCHAR
STARTCHAR 0x356E
ENCODING 13678
SWIDTH 857 0
DWIDTH 12 0
BBX 12 13 0 -2
BITMAP
0400
0400
7FC0
0400
0400
0400
FFE0
0800
0880
1080
2340
3C40
0000
ENDCHAR
STARTCHAR 0x356F
ENCODING 13679
SWIDTH 857 0
DWIDTH 12 0
BBX 12 13 0 -2
BITMAP
0000
7FC0
4040
7FC0
4200
7FE0
4200
4200
5FC0
9040
9040
1FC0
0000
ENDCHAR
STARTCHAR 0x3570
ENCODING 13680
SWIDTH 857 0
DWIDTH 12 0
BBX 12 13 0 -2
BITMAP
0000
7FE0
4000
4000
7F80
4080
4080
7F80
4000
4000
4000
7FE0
0000
ENDCHAR
STARTCHAR 0x3571
ENCODING 13681
SWIDTH 857 0
DWIDTH 12 0
BBX 12 13 0 -2
BITMAP
0000
4FE0
4800
E800
4FC0
4840
4840
6FC0
C800
4800
4800
CFE0
0000
ENDCHAR
STARTCHAR 0x3572
ENCODING 13682
SWIDTH 857 0
DWIDTH 12 0
BBX 12 13 0 -2
BITMAP
1000
51C0
5D40
F540
5540
5540
5540
6A40
CA40
4860
5400
E3E0
0000
ENDCHAR
STARTCHAR 0x3573
ENCODING 13683
SWIDTH 857 0
DWIDTH 12 0
BBX 12 13 0 -2
BITMAP
0840
2480
1100
FFE0
2080
5F40
8420
3F80
0400
FFE0
0400
1C00
0000
ENDCHAR
STARTCHAR 0x3574
ENCODING 13684
SWIDTH 857 0
DWIDTH 12 0
BBX 12 13 0 -2
BITMAP
0000
47E0
2400
87C0
4440
17C0
2400
FFE0
0D00
3480
C460
0400
0000
ENDCHAR
STARTCHAR 0x3575
ENCODING 13685
SWIDTH 857 0
DWIDTH 12 0
BBX 12 13 0 -2
BITMAP
0400
07C0
0400
7FE0
4820
5FC0
4800
4FC0
6520
9540
8500
3FE0
0000
ENDCHAR
STARTCHAR 0x3576
ENCODING 13686
SWIDTH 857 0
DWIDTH 12 0
BBX 12 13 0 -2
BITMAP
0200
F200
03E0
F480
0480
F080
0080
07E0
F080
9080
9080
F080
0000
ENDCHAR
STARTCHAR 0x3577
ENCODING 13687
SWIDTH 857 0
DWIDTH 12 0
BBX 12 13 0 -2
BITMAP
0000
FBE0
8A00
8A00
FBE0
2220
2220
BBE0
A200
A200
A200
FBE0
0000
ENDCHAR
STARTCHAR 0x3578
ENCODING 13688
SWIDTH 857 0
DWIDTH 12 0
BBX 12 13 0 -2
BITMAP
0000
37E0
4C20
87E0
F480
27E0
FC80
2480
ABE0
AA20
2220
FBE0
0000
ENDCHAR
STARTCHAR 0x3579
ENCODING 13689
SWIDTH 857 0
DWIDTH 12 0
BBX 12 13 0 -2
BITMAP
0000
07C0
8880
5FE0
0920
8FE0
4920
0920
4FE0
4000
8AA0
92A0
0000
ENDCHAR
STARTCHAR 0x357A
ENCODING 13690
SWIDTH 857 0
DWIDTH 12 0
BBX 12 13 0 -2
BITMAP
1000
5FE0
94A0
3FA0
44A0
D4E0
5F80
0000
FFE0
0400
4440
8C20
0000
ENDCHAR
STARTCHAR 0x357B
ENCODING 13691
SWIDTH 857 0
DWIDTH 12 0
BBX 12 13 0 -2
BITMAP
0000
1F80
2100
7FC0
C440
7FC0
4440
4440
7FC0
0000
5240
8920
0000
ENDCHAR
STARTCHAR 0x357C
ENCODING 13692
SWIDTH 857 0
DWIDTH 12 0
BBX 12 13 0 -2
BITMAP
0400
0400
FFE0
1100
1100
1F00
0000
FFE0
0200
0400
0400
1C00
0000
ENDCHAR
STARTCHAR 0x357D
ENCODING 13693
SWIDTH 857 0
DWIDTH 12 0
BBX 12 13 0 -2
BITMAP
0400
0400
FFE0
1100
1100
3F80
0100
0200
FFE0
0400
0400
1C00
0000
ENDCHAR
STARTCHAR 0x357E
ENCODING 13694
SWIDTH 857 0
DWIDTH 12 0
BBX 12 13 0 -2
BITMAP
0400
0400
FFE0
0000
3F80
2080
2080
3F80
0400
4440
8420
1C00
0000
ENDCHAR
STARTCHAR 0x3621
ENCODING 13857
SWIDTH 857 0
DWIDTH 12 0
BBX 12 13 0 -2
BITMAP
0480
2480
2480
5FE0
4480
C480
4480
5FE0
4000
4480
4840
5020
0000
ENDCHAR
STARTCHAR 0x3622
ENCODING 13858
SWIDTH 857 0
DWIDTH 12 0
BBX 12 13 0 -2
BITMAP
0100
2100
2FE0
4100
4920
C540
4100
5FE0
4100
4280
4440
5820
0000
ENDCHAR
STARTCHAR 0x3623
ENCODING 13859
SWIDTH 857 0
DWIDTH 12 0
BBX 12 13 0 -2
BITMAP
0000
2FE0
2200
5FE0
4480
CCC0
57A0
6000
5FE0
54A0
57A0
5060
0000
ENDCHAR
STARTCHAR 0x3624
ENCODING 13860
SWIDTH 857 0
DWIDTH 12 0
BBX 12 13 0 -2
BITMAP
0000
5140
4A40
4440
4A40
5140
4040
7FC0
1200
1220
2220
C1E0
0000
ENDCHAR
STARTCHAR 0x3625
ENCODING 13861
SWIDTH 857 0
DWIDTH 12 0
BBX 12 13 0 -2
BITMAP
2080
2080
FBE0
5140
FFE0
0000
FBE0
8A20
FBE0
5140
9240
9C60
0000
ENDCHAR
STARTCHAR 0x3626
ENCODING 13862
SWIDTH 857 0
DWIDTH 12 0
BBX 12 13 0 -2
BITMAP
1100
1100
1100
7FC0
1100
1100
1100
FFE0
0000
1100
2080
4040
0000
ENDCHAR
STARTCHAR 0x3627
ENCODING 13863
SWIDTH 857 0
DWIDTH 12 0
BBX 12 13 0 -2
BITMAP
0000
8020
A0A0
9120
8A20
8420
8A20
9120
A0A0
8020
8020
FFE0
0000
ENDCHAR
STARTCHAR 0x3628
ENCODING 13864
SWIDTH 857 0
DWIDTH 12 0
BBX 12 13 0 -2
BITMAP
0200
4200
4FC0
4240
F240
4440
5FE0
4AA0
4AA0
4AA0
5320
5660
0000
ENDCHAR
STARTCHAR 0x3629
ENCODING 13865
SWIDTH 857 0
DWIDTH 12 0
BBX 12 13 0 -2
BITMAP
0000
FFE0
8000
BFE0
8200
8200
9FC0
8200
8200
BFE0
8000
FFE0
0000
ENDCHAR
STARTCHAR 0x362A
ENCODING 13866
SWIDTH 857 0
DWIDTH 12 0
BBX 12 13 0 -2
BITMAP
0000
3EE0
CAA0
8EA0
AAA0
AAA0
AEA0
A8A0
EAA0
2AE0
4E80
4280
0000
ENDCHAR
STARTCHAR 0x362B
ENCODING 13867
SWIDTH 857 0
DWIDTH 12 0
BBX 12 13 0 -2
BITMAP
0000
0040
F240
9240
9240
9240
9240
9260
93C0
9C40
F040
0040
0000
ENDCHAR
STARTCHAR 0x362C
ENCODING 13868
SWIDTH 857 0
DWIDTH 12 0
BBX 12 13 0 -2
BITMAP
0000
7FC0
0400
FFE0
1180
3140
DF20
0000
7FC0
5140
5F40
40C0
0000
ENDCHAR
STARTCHAR 0x362D
ENCODING 13869
SWIDTH 857 0
DWIDTH 12 0
BBX 12 13 0 -2
BITMAP
0200
4200
5FE0
4480
E480
5FE0
4840
4FC0
4840
4FC0
E480
18E0
0000
ENDCHAR
STARTCHAR 0x362E
ENCODING 13870
SWIDTH 857 0
DWIDTH 12 0
BBX 12 13 0 -2
BITMAP
0100
2100
3FE0
2100
A920
A540
A100
BFE0
A100
A280
E440
1820
0000
ENDCHAR
STARTCHAR 0x362F
ENCODING 13871
SWIDTH 857 0
DWIDTH 12 0
BBX 12 13 0 -2
BITMAP
0200
E400
2820
2FE0
E100
8FE0
8920
E920
2FE0
2100
2120
CFE0
0000
ENDCHAR
STARTCHAR 0x3630
ENCODING 13872
SWIDTH 857 0
DWIDTH 12 0
BBX 12 13 0 -2
BITMAP
0000
EFE0
2520
27E0
E520
87E0
8000
EFE0
2520
27E0
2520
DFE0
0000
ENDCHAR
STARTCHAR 0x3631
ENCODING 13873
SWIDTH 857 0
DWIDTH 12 0
BBX 12 13 0 -2
BITMAP
0100
2100
2FE0
2100
A100
A100
AFE0
A200
A240
2440
28A0
2F20
0000
ENDCHAR
STARTCHAR 0x3632
ENCODING 13874
SWIDTH 857 0
DWIDTH 12 0
BBX 12 13 0 -2
BITMAP
0000
F7C0
2440
2640
2540
3440
C060
0400
1200
1040
5020
8F80
0000
ENDCHAR
STARTCHAR 0x3633
ENCODING 13875
SWIDTH 857 0
DWIDTH 12 0
BBX 12 13 0 -2
BITMAP
1100
1100
7FC0
1100
1100
FFE0
2080
4440
9420
2540
4540
0C00
0000
ENDCHAR
STARTCHAR 0x3634
ENCODING 13876
SWIDTH 857 0
DWIDTH 12 0
BBX 12 13 0 -2
BITMAP
0100
4100
4FE0
E100
4920
4540
4100
6FE0
C100
4280
4440
D820
0000
ENDCHAR
STARTCHAR 0x3635
ENCODING 13877
SWIDTH 857 0
DWIDTH 12 0
BBX 12 13 0 -2
BITMAP
2100
2500
FDE0
2A40
2A40
FC40
4140
B940
0880
FC80
1140
3620
0000
ENDCHAR
STARTCHAR 0x3636
ENCODING 13878
SWIDTH 857 0
DWIDTH 12 0
BBX 12 13 0 -2
BITMAP
0000
2FE0
2100
FFE0
2480
2CC0
77A0
6000
AFE0
AAA0
2BA0
2860
0000
ENDCHAR
STARTCHAR 0x3637
ENCODING 13879
SWIDTH 857 0
DWIDTH 12 0
BBX 12 13 0 -2
BITMAP
0000
0FE0
8820
4820
0820
8FE0
4280
0280
4280
42A0
84A0
98E0
0000
ENDCHAR
STARTCHAR 0x3638
ENCODING 13880
SWIDTH 857 0
DWIDTH 12 0
BBX 12 13 0 -2
BITMAP
0000
2FE0
A100
4100
4100
A100
2FE0
6100
A100
2100
2100
CFE0
0000
ENDCHAR
STARTCHAR 0x3639
ENCODING 13881
SWIDTH 857 0
DWIDTH 12 0
BBX 12 13 0 -2
BITMAP
0100
2100
AFE0
4100
4920
A540
2100
6FE0
A100
2280
2440
D820
0000
ENDCHAR
STARTCHAR 0x363A
ENCODING 13882
SWIDTH 857 0
DWIDTH 12 0
BBX 12 13 0 -2
BITMAP
0000
8FE0
F100
AFE0
2480
ECC0
37A0
2000
5FE0
54A0
97A0
9060
0000
ENDCHAR
STARTCHAR 0x363B
ENCODING 13883
SWIDTH 857 0
DWIDTH 12 0
BBX 12 13 0 -2
BITMAP
0800
E800
AFE0
B120
EA20
A4A0
AAA0
F1A0
A0A0
BFA0
A020
A0C0
0000
ENDCHAR
STARTCHAR 0x363C
ENCODING 13884
SWIDTH 857 0
DWIDTH 12 0
BBX 12 13 0 -2
BITMAP
0400
3F80
0880
1080
FBE0
2920
4A60
BFC0
2040
3FC0
2040
20C0
0000
ENDCHAR
STARTCHAR 0x363D
ENCODING 13885
SWIDTH 857 0
DWIDTH 12 0
BBX 12 13 0 -2
BITMAP
0000
DF60
9120
FFE0
9120
F7E0
9520
9520
FFE0
0000
4040
8020
0000
ENDCHAR
STARTCHAR 0x363E
ENCODING 13886
SWIDTH 857 0
DWIDTH 12 0
BBX 12 13 0 -2
BITMAP
1100
1100
FFE0
0400
FFE0
1100
3F40
C020
7FC0
5140
5F40
40C0
0000
ENDCHAR
STARTCHAR 0x363F
ENCODING 13887
SWIDTH 857 0
DWIDTH 12 0
BBX 12 13 0 -2
BITMAP
0000
2EE0
4AA0
8EA0
EAA0
2AC0
4EA0
88A0
EAA0
2AC0
4E80
4280
0000
ENDCHAR
STARTCHAR 0x3640
ENCODING 13888
SWIDTH 857 0
DWIDTH 12 0
BBX 12 13 0 -2
BITMAP
0100
3100
4FE0
8240
F240
27E0
FC40
27C0
B440
A7C0
2280
FCE0
0000
ENDCHAR
STARTCHAR 0x3641
ENCODING 13889
SWIDTH 857 0
DWIDTH 12 0
BBX 12 13 0 -2
BITMAP
0000
4EE0
AAA0
4EC0
AAA0
EDE0
2480
7FC0
1100
FFE0
2080
3F80
0000
ENDCHAR
STARTCHAR 0x3642
ENCODING 13890
SWIDTH 857 0
DWIDTH 12 0
BBX 12 13 0 -2
BITMAP
0000
4EE0
AAA0
4EC0
AAA0
EDE0
2480
7FC0
A0A0
3F80
2240
F9E0
0000
ENDCHAR
STARTCHAR 0x3643
ENCODING 13891
SWIDTH 857 0
DWIDTH 12 0
BBX 12 13 0 -2
BITMAP
0200
5200
FFE0
5540
7580
0A60
7FC0
4400
7FE0
0020
5520
9560
0000
ENDCHAR
STARTCHAR 0x3644
ENCODING 13892
SWIDTH 857 0
DWIDTH 12 0
BBX 12 13 0 -2
BITMAP
0000
2300
2CE0
4920
4920
C920
4920
4920
4920
4B20
5D60
4100
0000
ENDCHAR
STARTCHAR 0x3645
ENCODING 13893
SWIDTH 857 0
DWIDTH 12 0
BBX 12 13 0 -2
BITMAP
0000
13E0
9C40
5080
0FE0
10A0
1E80
0880
5EE0
4A80
9680
A3E0
0000
ENDCHAR
STARTCHAR 0x3646
ENCODING 13894
SWIDTH 857 0
DWIDTH 12 0
BBX 12 13 0 -2
BITMAP
0400
0400
7FC0
0400
1500
FFE0
1100
1100
7FC0
0A00
3220
C1E0
0000
ENDCHAR
STARTCHAR 0x3647
ENCODING 13895
SWIDTH 857 0
DWIDTH 12 0
BBX 12 13 0 -2
BITMAP
0100
0100
EFE0
A100
A540
BFE0
E440
A440
AFE0
A280
E4A0
18E0
0000
ENDCHAR
STARTCHAR 0x3648
ENCODING 13896
SWIDTH 857 0
DWIDTH 12 0
BBX 12 13 0 -2
BITMAP
0A00
2A40
2A80
FFE0
1100
1100
7FC0
0400
FFE0
0D00
3480
C460
0000
ENDCHAR
STARTCHAR 0x3649
ENCODING 13897
SWIDTH 857 0
DWIDTH 12 0
BBX 12 13 0 -2
BITMAP
0000
7FC0
4040
7FC0
4000
7FE0
4020
5F20
5120
5120
9F20
80C0
0000
ENDCHAR
STARTCHAR 0x364A
ENCODING 13898
SWIDTH 857 0
DWIDTH 12 0
BBX 12 13 0 -2
BITMAP
0900
0900
0900
7FE0
4920
4920
4920
7FE0
4920
4920
4920
7FE0
0000
ENDCHAR
STARTCHAR 0x364B
ENCODING 13899
SWIDTH 857 0
DWIDTH 12 0
BBX 12 13 0 -2
BITMAP
0000
2FE0
2400
F6E0
2220
2EA0
6AA0
6A40
AEC0
A320
2400
2FE0
0000
ENDCHAR
STARTCHAR 0x364C
ENCODING 13900
SWIDTH 857 0
DWIDTH 12 0
BBX 12 13 0 -2
BITMAP
0000
FFE0
0400
0400
0400
0400
7FC0
0400
0440
0420
0400
FFE0
0000
ENDCHAR
STARTCHAR 0x364D
ENCODING 13901
SWIDTH 857 0
DWIDTH 12 0
BBX 12 13 0 -2
BITMAP
0000
2FE0
2820
F820
2BA0
2820
6BA0
6AA0
AAA0
ABA0
2820
2860
0000
ENDCHAR
STARTCHAR 0x364E
ENCODING 13902
SWIDTH 857 0
DWIDTH 12 0
BBX 12 13 0 -2
BITMAP
0000
20C0
AF00
A100
2100
F100
2FE0
6100
7100
A100
A100
2100
0000
ENDCHAR
STARTCHAR 0x364F
ENCODING 13903
SWIDTH 857 0
DWIDTH 12 0
BBX 12 13 0 -2
BITMAP
0480
2480
3FE0
4480
4FE0
C920
4920
4FE0
4100
4FE0
4100
5FE0
0000
ENDCHAR
STARTCHAR 0x3650
ENCODING 13904
SWIDTH 857 0
DWIDTH 12 0
BBX 12 13 0 -2
BITMAP
0100
5100
F900
57E0
F920
A920
A920
F920
2220
FA20
2040
F980
0000
ENDCHAR
STARTCHAR 0x3651
ENCODING 13905
SWIDTH 857 0
DWIDTH 12 0
BBX 12 13 0 -2
BITMAP
0400
4400
47E0
4820
E820
4720
4020
41A0
4E20
4020
E040
0180
0000
ENDCHAR
STARTCHAR 0x3652
ENCODING 13906
SWIDTH 857 0
DWIDTH 12 0
BBX 12 13 0 -2
BITMAP
0400
0400
0400
FFE0
8420
8420
8420
8420
8420
84E0
0400
0400
0000
ENDCHAR
STARTCHAR 0x3653
ENCODING 13907
SWIDTH 857 0
DWIDTH 12 0
BBX 12 13 0 -2
BITMAP
0080
3100
47E0
8420
F7E0
2420
F7E0
2100
B7E0
A520
2520
FD60
0000
ENDCHAR
STARTCHAR 0x3654
ENCODING 13908
SWIDTH 857 0
DWIDTH 12 0
BBX 12 13 0 -2
BITMAP
0000
01C0
7E00
4000
4000
7FE0
4100
4100
4100
8100
8100
0100
0000
ENDCHAR
STARTCHAR 0x3655
ENCODING 13909
SWIDTH 857 0
DWIDTH 12 0
BBX 12 13 0 -2
BITMAP
0200
1A00
63E0
42A0
42A0
7EA0
4880
4880
4940
8940
8A20
0C20
0000
ENDCHAR
STARTCHAR 0x3656
ENCODING 13910
SWIDTH 857 0
DWIDTH 12 0
BBX 12 13 0 -2
BITMAP
0200
3200
4BE0
82A0
FAA0
22A0
F880
2080
A940
A940
2220
FC20
0000
ENDCHAR
STARTCHAR 0x3657
ENCODING 13911
SWIDTH 857 0
DWIDTH 12 0
BBX 12 13 0 -2
BITMAP
0000
FBE0
2080
7BC0
2080
FFE0
1100
2E80
4060
BF80
0080
0100
0000
ENDCHAR
STARTCHAR 0x3658
ENCODING 13912
SWIDTH 857 0
DWIDTH 12 0
BBX 12 13 0 -2
BITMAP
2080
2080
FBE0
2180
72C0
A4A0
3F80
0000
FFE0
0400
4440
8C20
0000
ENDCHAR
STARTCHAR 0x3659
ENCODING 13913
SWIDTH 857 0
DWIDTH 12 0
BBX 12 13 0 -2
BITMAP
0000
1F00
2480
7FC0
8A20
2480
2A80
2880
FFE0
8920
9F20
8060
0000
ENDCHAR
STARTCHAR 0x365A
ENCODING 13914
SWIDTH 857 0
DWIDTH 12 0
BBX 12 13 0 -2
BITMAP
0200
4200
7BE0
A500
7900
4FE0
7920
4920
7920
4A20
8A20
98C0
0000
ENDCHAR
STARTCHAR 0x365B
ENCODING 13915
SWIDTH 857 0
DWIDTH 12 0
BBX 12 13 0 -2
BITMAP
0000
FBE0
A020
F940
8980
FE60
8900
1240
FFE0
0400
2480
C460
0000
ENDCHAR
STARTCHAR 0x365C
ENCODING 13916
SWIDTH 857 0
DWIDTH 12 0
BBX 12 13 0 -2
BITMAP
1100
1100
FFE0
1100
03C0
7C00
4000
7FE0
4100
8100
8100
0100
0000
ENDCHAR
STARTCHAR 0x365D
ENCODING 13917
SWIDTH 857 0
DWIDTH 12 0
BBX 12 13 0 -2
BITMAP
1100
1100
FFE0
1100
FFE0
8420
BFA0
8420
8D20
B4A0
8420
FFE0
0000
ENDCHAR
STARTCHAR 0x365E
ENCODING 13918
SWIDTH 857 0
DWIDTH 12 0
BBX 12 13 0 -2
BITMAP
0000
23C0
2420
F800
17E0
1000
2000
67E0
B020
2820
2040
2180
0000
ENDCHAR
STARTCHAR 0x365F
ENCODING 13919
SWIDTH 857 0
DWIDTH 12 0
BBX 12 13 0 -2
BITMAP
0440
4440
5FE0
E4C0
2D60
2440
4FC0
6000
DFE0
4100
4940
5320
0000
ENDCHAR
STARTCHAR 0x3660
ENCODING 13920
SWIDTH 857 0
DWIDTH 12 0
BBX 12 13 0 -2
BITMAP
0240
E240
0FE0
E240
0FE0
E920
0920
0FE0
E100
AFE0
A100
EFE0
0000
ENDCHAR
STARTCHAR 0x3661
ENCODING 13921
SWIDTH 857 0
DWIDTH 12 0
BBX 12 13 0 -2
BITMAP
0000
00C0
4700
2400
0400
07E0
E480
2880
2880
2080
5000
8FE0
0000
ENDCHAR
STARTCHAR 0x3662
ENCODING 13922
SWIDTH 857 0
DWIDTH 12 0
BBX 12 13 0 -2
BITMAP
0000
0E00
1100
2080
5F40
8420
0400
7FC0
0400
4440
2480
FFE0
0000
ENDCHAR
STARTCHAR 0x3663
ENCODING 13923
SWIDTH 857 0
DWIDTH 12 0
BBX 12 13 0 -2
BITMAP
0000
03C0
F420
9800
97E0
9000
9000
97E0
9020
9020
F040
0180
0000
ENDCHAR
STARTCHAR 0x3664
ENCODING 13924
SWIDTH 857 0
DWIDTH 12 0
BBX 12 13 0 -2
BITMAP
0000
33E0
4A20
83E0
FA20
2220
FBE0
2280
AAA0
AAA0
2240
FB20
0000
ENDCHAR
STARTCHAR 0x3665
ENCODING 13925
SWIDTH 857 0
DWIDTH 12 0
BBX 12 13 0 -2
BITMAP
0800
0800
0800
FF00
0900
0900
0900
0900
1100
1120
2120
C0E0
0000
ENDCHAR
STARTCHAR 0x3666
ENCODING 13926
SWIDTH 857 0
DWIDTH 12 0
BBX 12 13 0 -2
BITMAP
0000
2FC0
2840
4FC0
4840
CFC0
4840
4840
5FE0
4000
4840
5020
0000
ENDCHAR
STARTCHAR 0x3667
ENCODING 13927
SWIDTH 857 0
DWIDTH 12 0
BBX 12 13 0 -2
BITMAP
2000
2000
3FE0
4020
4020
9E20
9220
1220
1220
1E20
0040
0180
0000
ENDCHAR
STARTCHAR 0x3668
ENCODING 13928
SWIDTH 857 0
DWIDTH 12 0
BBX 12 13 0 -2
BITMAP
0000
FFE0
8000
9040
8880
8500
8200
8500
8880
9040
8000
FFE0
0000
ENDCHAR
STARTCHAR 0x3669
ENCODING 13929
SWIDTH 857 0
DWIDTH 12 0
BBX 12 13 0 -2
BITMAP
0400
2400
A7E0
4820
4820
A720
2520
6520
A720
2020
2040
C180
0000
ENDCHAR
STARTCHAR 0x366A
ENCODING 13930
SWIDTH 857 0
DWIDTH 12 0
BBX 12 13 0 -2
BITMAP
0400
0400
F7C0
4440
4440
E840
4880
4080
4100
E280
0C40
3020
0000
ENDCHAR
STARTCHAR 0x366B
ENCODING 13931
SWIDTH 857 0
DWIDTH 12 0
BBX 12 13 0 -2
BITMAP
0000
87E0
FC00
A400
27E0
FC20
2420
27E0
5400
4C00
8400
87E0
0000
ENDCHAR
STARTCHAR 0x366C
ENCODING 13932
SWIDTH 857 0
DWIDTH 12 0
BBX 12 13 0 -2
BITMAP
1100
1100
FFE0
1100
0400
FFE0
0400
0400
7FC0
4040
4040
7FC0
0000
ENDCHAR
STARTCHAR 0x366D
ENCODING 13933
SWIDTH 857 0
DWIDTH 12 0
BBX 12 13 0 -2
BITMAP
2000
43E0
FA00
8AA0
FAA0
8A40
FA40
8EA0
FAA0
2B20
4A00
9BE0
0000
ENDCHAR
STARTCHAR 0x366E
ENCODING 13934
SWIDTH 857 0
DWIDTH 12 0
BBX 12 13 0 -2
BITMAP
0000
FBE0
A200
FAA0
A2A0
FA40
A240
FAA0
0AA0
AB20
0A00
33E0
0000
ENDCHAR
STARTCHAR 0x366F
ENCODING 13935
SWIDTH 857 0
DWIDTH 12 0
BBX 12 13 0 -2
BITMAP
0000
F8C0
A300
FA00
A200
FBE0
A240
FA40
0A40
AA40
0A40
37E0
0000
ENDCHAR
STARTCHAR 0x3670
ENCODING 13936
SWIDTH 857 0
DWIDTH 12 0
BBX 12 13 0 -2
BITMAP
0200
FA00
A3E0
F420
A420
F3A0
A2A0
FAA0
0BA0
A820
0840
3180
0000
ENDCHAR
STARTCHAR 0x3671
ENCODING 13937
SWIDTH 857 0
DWIDTH 12 0
BBX 12 13 0 -2
BITMAP
0000
3F80
2080
3F80
2080
3F80
2080
2080
FFE0
0000
3180
C060
0000
ENDCHAR
STARTCHAR 0x3672
ENCODING 13938
SWIDTH 857 0
DWIDTH 12 0
BBX 12 13 0 -2
BITMAP
0000
3F80
2480
3F80
2480
FFE0
8420
BF60
0400
1240
5020
8F80
0000
ENDCHAR
STARTCHAR 0x3673
ENCODING 13939
SWIDTH 857 0
DWIDTH 12 0
BBX 12 13 0 -2
BITMAP
0780
0400
7FE0
4420
5FC0
4480
5480
5FE0
4020
BFE0
8880
3060
0000
ENDCHAR
STARTCHAR 0x3674
ENCODING 13940
SWIDTH 857 0
DWIDTH 12 0
BBX 12 13 0 -2
BITMAP
0000
0780
E840
B120
AFC0
A840
AFC0
A840
AFC0
A960
E880
0E60
0000
ENDCHAR
STARTCHAR 0x3675
ENCODING 13941
SWIDTH 857 0
DWIDTH 12 0
BBX 12 13 0 -2
BITMAP
0400
0400
FFE0
8A20
8A20
1200
63C0
0000
3F80
0400
0400
FFE0
0000
ENDCHAR
STARTCHAR 0x3676
ENCODING 13942
SWIDTH 857 0
DWIDTH 12 0
BBX 12 13 0 -2
BITMAP
0000
2FE0
2920
4FE0
4920
CFE0
4100
4FE0
4A20
4AA0
4FA0
4860
0000
ENDCHAR
STARTCHAR 0x3677
ENCODING 13943
SWIDTH 857 0
DWIDTH 12 0
BBX 12 13 0 -2
BITMAP
0400
0400
FFE0
A4A0
3F80
2480
3F80
0400
FFE0
84A0
BFA0
8060
0000
ENDCHAR
STARTCHAR 0x3678
ENCODING 13944
SWIDTH 857 0
DWIDTH 12 0
BBX 12 13 0 -2
BITMAP
0000
0FE0
4920
2FE0
0920
0FE0
E100
2FE0
2920
2BA0
5000
8FE0
0000
ENDCHAR
STARTCHAR 0x3679
ENCODING 13945
SWIDTH 857 0
DWIDTH 12 0
BBX 12 13 0 -2
BITMAP
0000
EFE0
A920
AFE0
C920
AFE0
A100
AFE0
AA20
CAA0
8FA0
8860
0000
ENDCHAR
STARTCHAR 0x367A
ENCODING 13946
SWIDTH 857 0
DWIDTH 12 0
BBX 12 13 0 -2
BITMAP
0400
0400
7FC0
4440
4440
7FC0
0400
FFE0
8420
FFE0
0400
0400
0000
ENDCHAR
STARTCHAR 0x367B
ENCODING 13947
SWIDTH 857 0
DWIDTH 12 0
BBX 12 13 0 -2
BITMAP
0100
2900
2FE0
F540
2EE0
2AA0
6EA0
6AA0
AEA0
A8A0
2AE0
2E80
0000
ENDCHAR
STARTCHAR 0x367C
ENCODING 13948
SWIDTH 857 0
DWIDTH 12 0
BBX 12 13 0 -2
BITMAP
0000
3220
4AA0
82A0
FAA0
22A0
FAA0
22A0
B2A0
A2A0
2420
F420
0000
ENDCHAR
STARTCHAR 0x367D
ENCODING 13949
SWIDTH 857 0
DWIDTH 12 0
BBX 12 13 0 -2
BITMAP
0000
7FE0
4020
7FE0
5240
4A80
5FE0
5020
5FE0
9020
9FE0
1020
0000
ENDCHAR
STARTCHAR 0x367E
ENCODING 13950
SWIDTH 857 0
DWIDTH 12 0
BBX 12 13 0 -2
BITMAP
0000
7FE0
4020
7FE0
4100
4920
4920
4FE0
4100
9120
9120
1FE0
0000
ENDCHAR
STARTCHAR 0x3721
ENCODING 14113
SWIDTH 857 0
DWIDTH 12 0
BBX 12 13 0 -2
BITMAP
0000
4FE0
4820
EFE0
4880
4AA0
4AA0
6BE0
C880
54A0
54A0
C7E0
0000
ENDCHAR
STARTCHAR 0x3722
ENCODING 14114
SWIDTH 857 0
DWIDTH 12 0
BBX 12 13 0 -2
BITMAP
0400
0400
FFE0
8A20
1200
7FE0
4020
7FE0
5240
9FC0
A220
3FE0
0000
ENDCHAR
STARTCHAR 0x3723
ENCODING 14115
SWIDTH 857 0
DWIDTH 12 0
BBX 12 13 0 -2
BITMAP
0400
0400
F620
1540
2480
CC60
0000
7FC0
4040
7FC0
4040
7FC0
0000
ENDCHAR
STARTCHAR 0x3724
ENCODING 14116
SWIDTH 857 0
DWIDTH 12 0
BBX 12 13 0 -2
BITMAP
0080
5280
FA80
5280
76A0
22C0
FA80
AA80
FA80
22A0
FAA0
22E0
0000
ENDCHAR
STARTCHAR 0x3725
ENCODING 14117
SWIDTH 857 0
DWIDTH 12 0
BBX 12 13 0 -2
BITMAP
0400
4440
BFA0
5540
FFE0
5540
FFE0
4440
3F80
2080
2080
3F80
0000
ENDCHAR
STARTCHAR 0x3726
ENCODING 14118
SWIDTH 857 0
DWIDTH 12 0
BBX 12 13 0 -2
BITMAP
0400
0400
FFE0
8A20
1200
21C0
9100
4FE0
0100
2FC0
4100
9FE0
0000
ENDCHAR
STARTCHAR 0x3727
ENCODING 14119
SWIDTH 857 0
DWIDTH 12 0
BBX 12 13 0 -2
BITMAP
2200
4260
8B80
FA20
8BE0
FA00
8BE0
FA00
8BE0
0000
5240
8920
0000
ENDCHAR
STARTCHAR 0x3728
ENCODING 14120
SWIDTH 857 0
DWIDTH 12 0
BBX 12 13 0 -2
BITMAP
0000
EFE0
A920
AFE0
C920
AFE0
A000
BFE0
A920
C940
8880
9E60
0000
ENDCHAR
STARTCHAR 0x3729
ENCODING 14121
SWIDTH 857 0
DWIDTH 12 0
BBX 12 13 0 -2
BITMAP
0000
1F80
6100
0600
1900
E4E0
2480
0500
FFE0
0D00
3480
C460
0000
ENDCHAR
STARTCHAR 0x372A
ENCODING 14122
SWIDTH 857 0
DWIDTH 12 0
BBX 12 13 0 -2
BITMAP
0000
FFE0
0A00
7FC0
4A40
4A40
7FC0
0400
FFE0
0D00
3480
C460
0000
ENDCHAR
STARTCHAR 0x372B
ENCODING 14123
SWIDTH 857 0
DWIDTH 12 0
BBX 12 13 0 -2
BITMAP
0000
27C0
4440
8FE0
EAA0
2AA0
4EE0
F100
2FE0
A300
A540
2920
0000
ENDCHAR
STARTCHAR 0x372C
ENCODING 14124
SWIDTH 857 0
DWIDTH 12 0
BBX 12 13 0 -2
BITMAP
0000
7F80
1080
1100
0E00
FBE0
4920
5140
FFE0
0D00
3480
C460
0000
ENDCHAR
STARTCHAR 0x372D
ENCODING 14125
SWIDTH 857 0
DWIDTH 12 0
BBX 12 13 0 -2
BITMAP
0080
3380
4C80
84A0
F4A0
2FA0
F480
24C0
AD40
B540
2620
F420
0000
ENDCHAR
STARTCHAR 0x372E
ENCODING 14126
SWIDTH 857 0
DWIDTH 12 0
BBX 12 13 0 -2
BITMAP
0100
F900
27E0
F920
A920
F920
AA20
FA20
20C0
F800
0240
9120
0000
ENDCHAR
STARTCHAR 0x372F
ENCODING 14127
SWIDTH 857 0
DWIDTH 12 0
BBX 12 13 0 -2
BITMAP
0000
3FC0
0440
FFE0
0440
0440
7FC0
0800
3FC0
D040
1040
1FC0
0000
ENDCHAR
STARTCHAR 0x3730
ENCODING 14128
SWIDTH 857 0
DWIDTH 12 0
BBX 12 13 0 -2
BITMAP
1100
1100
FFE0
0400
7FC0
2480
3F80
2480
FFE0
0000
5240
8920
0000
ENDCHAR
STARTCHAR 0x3731
ENCODING 14129
SWIDTH 857 0
DWIDTH 12 0
BBX 12 13 0 -2
BITMAP
0000
F220
02A0
F2A0
02A0
F2A0
02A0
02A0
F2A0
92A0
9420
F420
0000
ENDCHAR
STARTCHAR 0x3732
ENCODING 14130
SWIDTH 857 0
DWIDTH 12 0
BBX 12 13 0 -2
BITMAP
0240
FA40
2880
FFE0
2880
2880
FBE0
2080
7880
CFE0
4880
7880
0000
ENDCHAR
STARTCHAR 0x3733
ENCODING 14131
SWIDTH 857 0
DWIDTH 12 0
BBX 12 13 0 -2
BITMAP
0000
FFE0
8420
FFE0
2480
3F80
2480
2480
3F80
0400
FFE0
0400
0000
ENDCHAR
STARTCHAR 0x3734
ENCODING 14132
SWIDTH 857 0
DWIDTH 12 0
BBX 12 13 0 -2
BITMAP
0000
FDE0
2520
FF40
2580
2540
FD20
2120
7D20
C5C0
4500
7D00
0000
ENDCHAR
STARTCHAR 0x3735
ENCODING 14133
SWIDTH 857 0
DWIDTH 12 0
BBX 12 13 0 -2
BITMAP
1000
1080
FC80
1080
1080
FEC0
10A0
1090
FC80
1080
1080
FE80
0000
ENDCHAR
STARTCHAR 0x3736
ENCODING 14134
SWIDTH 857 0
DWIDTH 12 0
BBX 12 13 0 -2
BITMAP
2000
21E0
FD20
2520
4520
99E0
0400
FFE0
1440
E240
2180
7C60
0000
ENDCHAR
STARTCHAR 0x3737
ENCODING 14135
SWIDTH 857 0
DWIDTH 12 0
BBX 12 13 0 -2
BITMAP
2000
23E0
2220
FA20
0A40
1280
2240
7220
AA20
2220
22C0
2200
0000
ENDCHAR
STARTCHAR 0x3738
ENCODING 14136
SWIDTH 857 0
DWIDTH 12 0
BBX 12 13 0 -2
BITMAP
0000
2FE0
2200
4440
4880
C500
4220
5FE0
4100
4940
5120
4100
0000
ENDCHAR
STARTCHAR 0x3739
ENCODING 14137
SWIDTH 857 0
DWIDTH 12 0
BBX 12 13 0 -2
BITMAP
0000
27E0
2080
53E0
5220
D7E0
5A20
53E0
5220
5BE0
4240
4C20
0000
ENDCHAR
STARTCHAR 0x373A
ENCODING 14138
SWIDTH 857 0
DWIDTH 12 0
BBX 12 13 0 -2
BITMAP
0000
FC20
4920
4920
4920
FD20
4920
4920
4920
4820
8820
8860
0000
ENDCHAR
STARTCHAR 0x373B
ENCODING 14139
SWIDTH 857 0
DWIDTH 12 0
BBX 12 13 0 -2
BITMAP
0000
3F80
2080
2080
2080
2080
3F80
1200
1200
1220
2220
C3E0
0000
ENDCHAR
STARTCHAR 0x373C
ENCODING 14140
SWIDTH 857 0
DWIDTH 12 0
BBX 12 13 0 -2
BITMAP
0200
FA00
03E0
7E40
4A40
7980
8660
8000
3F80
2080
2080
3F80
0000
ENDCHAR
STARTCHAR 0x373D
ENCODING 14141
SWIDTH 857 0
DWIDTH 12 0
BBX 12 13 0 -2
BITMAP
0400
0400
7FC0
0400
0400
FFE0
0400
0400
7FC0
0400
0400
FFE0
0000
ENDCHAR
STARTCHAR 0x373E
ENCODING 14142
SWIDTH 857 0
DWIDTH 12 0
BBX 12 13 0 -2
BITMAP
0100
0100
F7E0
4100
4100
4FE0
E100
4100
47E0
4100
F100
0FE0
0000
ENDCHAR
STARTCHAR 0x373F
ENCODING 14143
SWIDTH 857 0
DWIDTH 12 0
BBX 12 13 0 -2
BITMAP
0000
FD20
4920
4920
FD20
4920
8860
0400
3F80
0400
0400
FFE0
0000
ENDCHAR
STARTCHAR 0x3740
ENCODING 14144
SWIDTH 857 0
DWIDTH 12 0
BBX 12 13 0 -2
BITMAP
2000
27E0
F920
2120
7A20
2220
F8C0
0400
FFE0
0A00
3180
C060
0000
ENDCHAR
STARTCHAR 0x3741
ENCODING 14145
SWIDTH 857 0
DWIDTH 12 0
BBX 12 13 0 -2
BITMAP
0000
FE20
4840
4880
4800
FE20
4840
4880
4800
4820
8840
8880
0000
ENDCHAR
STARTCHAR 0x3742
ENCODING 14146
SWIDTH 857 0
DWIDTH 12 0
BBX 12 13 0 -2
BITMAP
0000
2FE0
4020
8240
0180
2E60
4100
C100
47E0
4100
4100
4FE0
0000
ENDCHAR
STARTCHAR 0x3743
ENCODING 14147
SWIDTH 857 0
DWIDTH 12 0
BBX 12 13 0 -2
BITMAP
0400
0400
FFE0
0400
7FC0
4440
7FC0
4440
7FC0
1240
5020
8F80
0000
ENDCHAR
STARTCHAR 0x3744
ENCODING 14148
SWIDTH 857 0
DWIDTH 12 0
BBX 12 13 0 -2
BITMAP
0200
0200
7FE0
4900
7FE0
4920
7FE0
48A0
6FC0
9440
8780
3860
0000
ENDCHAR
STARTCHAR 0x3745
ENCODING 14149
SWIDTH 857 0
DWIDTH 12 0
BBX 12 13 0 -2
BITMAP
2080
2080
FBE0
2080
FBE0
2080
7FC0
0040
7FC0
1200
5040
8FA0
0000
ENDCHAR
STARTCHAR 0x3746
ENCODING 14150
SWIDTH 857 0
DWIDTH 12 0
BBX 12 13 0 -2
BITMAP
0080
F900
23E0
FE20
23E0
FA20
8A20
FBE0
0400
1240
5020
8F80
0000
ENDCHAR
STARTCHAR 0x3747
ENCODING 14151
SWIDTH 857 0
DWIDTH 12 0
BBX 12 13 0 -2
BITMAP
0000
4FC0
4840
EFC0
4840
4FC0
4400
6FE0
D820
4920
4F20
C0C0
0000
ENDCHAR
STARTCHAR 0x3748
ENCODING 14152
SWIDTH 857 0
DWIDTH 12 0
BBX 12 13 0 -2
BITMAP
0480
4480
4FE0
E900
5FE0
4900
4FE0
6900
CFC0
4260
4420
D8C0
0000
ENDCHAR
STARTCHAR 0x3749
ENCODING 14153
SWIDTH 857 0
DWIDTH 12 0
BBX 12 13 0 -2
BITMAP
0200
5200
FBE0
5240
4240
7C40
8540
E540
A480
E480
0940
3220
0000
ENDCHAR
STARTCHAR 0x374A
ENCODING 14154
SWIDTH 857 0
DWIDTH 12 0
BBX 12 13 0 -2
BITMAP
0000
3F80
2080
3F80
2080
3F80
0400
FFE0
1100
1F00
4440
8C20
0000
ENDCHAR
STARTCHAR 0x374B
ENCODING 14155
SWIDTH 857 0
DWIDTH 12 0
BBX 12 13 0 -2
BITMAP
0100
2100
27E0
F100
2100
2FE0
6100
6100
B7E0
A100
2100
2FE0
0000
ENDCHAR
STARTCHAR 0x374C
ENCODING 14156
SWIDTH 857 0
DWIDTH 12 0
BBX 12 13 0 -2
BITMAP
0000
1FE0
8000
5220
0940
8100
4FE0
0100
5FE0
4280
8440
9820
0000
ENDCHAR
STARTCHAR 0x374D
ENCODING 14157
SWIDTH 857 0
DWIDTH 12 0
BBX 12 13 0 -2
BITMAP
0080
0080
FBE0
A880
A880
AFE0
F880
A880
ABE0
A880
F880
07E0
0000
ENDCHAR
STARTCHAR 0x374E
ENCODING 14158
SWIDTH 857 0
DWIDTH 12 0
BBX 12 13 0 -2
BITMAP
0100
1940
EFE0
2280
2CE0
F780
2420
67E0
7000
A7E0
A420
27E0
0000
ENDCHAR
STARTCHAR 0x374F
ENCODING 14159
SWIDTH 857 0
DWIDTH 12 0
BBX 12 13 0 -2
BITMAP
0000
7FC0
0800
1100
2200
1480
0840
FFE0
0400
2480
4440
8420
0000
ENDCHAR
STARTCHAR 0x3750
ENCODING 14160
SWIDTH 857 0
DWIDTH 12 0
BBX 12 13 0 -2
BITMAP
0000
27E0
4020
9240
F180
2660
4100
F100
27E0
B100
A100
2FE0
0000
ENDCHAR
ENDFONT
